<ttFont>
    <TTGlyph name=".notdef" xMin="102" yMin="0" xMax="1038" yMax="1516">
      <contour>
        <pt x="102" y="1516" on="1"/>
        <pt x="1038" y="1516" on="1"/>
        <pt x="1038" y="0" on="1"/>
        <pt x="102" y="0" on="1"/>
      </contour>
      <contour>
        <pt x="205" y="102" on="1"/>
        <pt x="936" y="102" on="1"/>
        <pt x="936" y="1413" on="1"/>
        <pt x="205" y="1413" on="1"/>
      </contour>
    </TTGlyph>
    <TTGlyph name="A" xMin="-102" yMin="0" xMax="1520" yMax="1516">
      <contour>
        <pt x="907" y="274" on="1"/>
        <pt x="991" y="274" on="1"/>
        <pt x="975" y="483" on="1"/>
        <pt x="557" y="483" on="1"/>
        <pt x="446" y="274" on="1"/>
        <pt x="573" y="274" on="1"/>
        <pt x="510" y="0" on="1"/>
        <pt x="-102" y="0" on="1"/>
        <pt x="-39" y="274" on="1"/>
        <pt x="89" y="274" on="1"/>
        <pt x="778" y="1516" on="1"/>
        <pt x="1214" y="1516" on="1"/>
        <pt x="1328" y="274" on="1"/>
        <pt x="1520" y="274" on="1"/>
        <pt x="1456" y="0" on="1"/>
        <pt x="844" y="0" on="1"/>
      </contour>
      <contour>
        <pt x="711" y="772" on="1"/>
        <pt x="954" y="772" on="1"/>
        <pt x="924" y="1174" on="1"/>
      </contour>
    </TTGlyph>
    <TTGlyph name="AE" xMin="-143" yMin="0" xMax="2376" yMax="1516">
      <contour>
        <pt x="-80" y="274" on="1"/>
        <pt x="57" y="274" on="1"/>
        <pt x="1024" y="1516" on="1"/>
        <pt x="2376" y="1516" on="1"/>
        <pt x="2257" y="999" on="1"/>
        <pt x="1907" y="999" on="1"/>
        <pt x="1962" y="1241" on="1"/>
        <pt x="1541" y="1241" on="1"/>
        <pt x="1465" y="915" on="1"/>
        <pt x="1802" y="915" on="1"/>
        <pt x="1735" y="625" on="1"/>
        <pt x="1398" y="625" on="1"/>
        <pt x="1316" y="274" on="1"/>
        <pt x="1712" y="274" on="1"/>
        <pt x="1774" y="543" on="1"/>
        <pt x="2124" y="543" on="1"/>
        <pt x="1999" y="0" on="1"/>
        <pt x="903" y="0" on="1"/>
        <pt x="931" y="121" on="1"/>
        <pt x="931" y="121" on="1"/>
        <pt x="1015" y="483" on="1"/>
        <pt x="613" y="483" on="1"/>
        <pt x="450" y="274" on="1"/>
        <pt x="596" y="274" on="1"/>
        <pt x="532" y="0" on="1"/>
        <pt x="-143" y="0" on="1"/>
      </contour>
      <contour>
        <pt x="1082" y="772" on="1"/>
        <pt x="1186" y="1220" on="1"/>
        <pt x="837" y="772" on="1"/>
      </contour>
    </TTGlyph>
    <TTGlyph name="Aacute" xMin="-102" yMin="0" xMax="1520" yMax="1969">
      <component glyphName="A" x="0" y="0" flags="0x204"/>
      <component glyphName="acute" x="778" y="480" flags="0x4"/>
    </TTGlyph>
    <TTGlyph name="Abreve" xMin="-102" yMin="0" xMax="1520" yMax="1961">
      <component glyphName="A" x="0" y="0" flags="0x204"/>
      <component glyphName="breve" x="515" y="480" flags="0x4"/>
    </TTGlyph>
    <TTGlyph name="Acircumflex" xMin="-102" yMin="0" xMax="1520" yMax="1983">
      <component glyphName="A" x="0" y="0" flags="0x204"/>
      <component glyphName="circumflex" x="479" y="480" flags="0x4"/>
    </TTGlyph>
    <TTGlyph name="Adieresis" xMin="-102" yMin="0" xMax="1520" yMax="2000">
      <component glyphName="A" x="0" y="0" flags="0x204"/>
      <component glyphName="dieresis" x="575" y="478" flags="0x4"/>
    </TTGlyph>
    <TTGlyph name="Agrave" xMin="-102" yMin="0" xMax="1520" yMax="1969">
      <component glyphName="A" x="0" y="0" flags="0x204"/>
      <component glyphName="grave" x="473" y="480" flags="0x4"/>
    </TTGlyph>
    <TTGlyph name="Amacron" xMin="-102" yMin="0" xMax="1520" yMax="1871">
      <component glyphName="A" x="0" y="0" flags="0x204"/>
      <component glyphName="macron" x="551" y="480" flags="0x4"/>
    </TTGlyph>
    <TTGlyph name="Aogonek" xMin="-102" yMin="-471" xMax="1520" yMax="1516">
      <contour>
        <pt x="-39" y="274" on="1"/>
        <pt x="88" y="274" on="1"/>
        <pt x="778" y="1516" on="1"/>
        <pt x="1214" y="1516" on="1"/>
        <pt x="1327" y="274" on="1"/>
        <pt x="1520" y="274" on="1"/>
        <pt x="1456" y="0" on="1"/>
        <pt x="1262" y="0" on="1"/>
        <pt x="1169" y="0" on="0"/>
        <pt x="1026" y="-39" on="0"/>
        <pt x="930" y="-102" on="0"/>
        <pt x="879" y="-178" on="0"/>
        <pt x="879" y="-215" on="1"/>
        <pt x="879" y="-254" on="0"/>
        <pt x="928" y="-283" on="0"/>
        <pt x="950" y="-283" on="1"/>
        <pt x="989" y="-283" on="0"/>
        <pt x="1042" y="-270" on="0"/>
        <pt x="1063" y="-260" on="1"/>
        <pt x="1112" y="-430" on="1"/>
        <pt x="1090" y="-442" on="0"/>
        <pt x="987" y="-471" on="0"/>
        <pt x="934" y="-471" on="1"/>
        <pt x="872" y="-471" on="0"/>
        <pt x="768" y="-442" on="0"/>
        <pt x="688" y="-389" on="0"/>
        <pt x="643" y="-311" on="0"/>
        <pt x="643" y="-260" on="1"/>
        <pt x="643" y="-174" on="0"/>
        <pt x="762" y="-45" on="0"/>
        <pt x="844" y="0" on="1"/>
        <pt x="907" y="274" on="1"/>
        <pt x="991" y="274" on="1"/>
        <pt x="975" y="483" on="1"/>
        <pt x="557" y="483" on="1"/>
        <pt x="446" y="274" on="1"/>
        <pt x="573" y="274" on="1"/>
        <pt x="510" y="0" on="1"/>
        <pt x="-102" y="0" on="1"/>
      </contour>
      <contour>
        <pt x="711" y="772" on="1"/>
        <pt x="952" y="772" on="1"/>
        <pt x="924" y="1174" on="1"/>
      </contour>
    </TTGlyph>
    <TTGlyph name="Aring" xMin="-102" yMin="0" xMax="1520" yMax="1865">
      <contour>
        <pt x="907" y="274" on="1"/>
        <pt x="991" y="274" on="1"/>
        <pt x="975" y="483" on="1"/>
        <pt x="557" y="483" on="1"/>
        <pt x="446" y="274" on="1"/>
        <pt x="573" y="274" on="1"/>
        <pt x="510" y="0" on="1"/>
        <pt x="-102" y="0" on="1"/>
        <pt x="-39" y="274" on="1"/>
        <pt x="89" y="274" on="1"/>
        <pt x="716" y="1404" on="1"/>
        <pt x="682" y="1440" on="0"/>
        <pt x="645" y="1529" on="0"/>
        <pt x="645" y="1579" on="1"/>
        <pt x="645" y="1638" on="0"/>
        <pt x="698" y="1742" on="0"/>
        <pt x="790" y="1820" on="0"/>
        <pt x="912" y="1865" on="0"/>
        <pt x="981" y="1865" on="1"/>
        <pt x="1050" y="1865" on="0"/>
        <pt x="1173" y="1820" on="0"/>
        <pt x="1265" y="1742" on="0"/>
        <pt x="1319" y="1638" on="0"/>
        <pt x="1319" y="1579" on="1"/>
        <pt x="1319" y="1522" on="0"/>
        <pt x="1270" y="1421" on="0"/>
        <pt x="1226" y="1382" on="1"/>
        <pt x="1328" y="274" on="1"/>
        <pt x="1520" y="274" on="1"/>
        <pt x="1456" y="0" on="1"/>
        <pt x="844" y="0" on="1"/>
      </contour>
      <contour>
        <pt x="711" y="772" on="1"/>
        <pt x="954" y="772" on="1"/>
        <pt x="924" y="1174" on="1"/>
      </contour>
      <contour>
        <pt x="854" y="1579" on="1"/>
        <pt x="854" y="1555" on="0"/>
        <pt x="874" y="1514" on="0"/>
        <pt x="908" y="1484" on="0"/>
        <pt x="955" y="1466" on="0"/>
        <pt x="981" y="1466" on="1"/>
        <pt x="1008" y="1466" on="0"/>
        <pt x="1054" y="1484" on="0"/>
        <pt x="1088" y="1514" on="0"/>
        <pt x="1107" y="1555" on="0"/>
        <pt x="1107" y="1579" on="1"/>
        <pt x="1107" y="1602" on="0"/>
        <pt x="1088" y="1643" on="0"/>
        <pt x="1054" y="1673" on="0"/>
        <pt x="1008" y="1690" on="0"/>
        <pt x="981" y="1690" on="1"/>
        <pt x="955" y="1690" on="0"/>
        <pt x="908" y="1673" on="0"/>
        <pt x="874" y="1643" on="0"/>
        <pt x="854" y="1602" on="0"/>
      </contour>
    </TTGlyph>
    <TTGlyph name="Atilde" xMin="-102" yMin="0" xMax="1520" yMax="1959">
      <component glyphName="A" x="0" y="0" flags="0x204"/>
      <component glyphName="tilde" x="530" y="480" flags="0x4"/>
    </TTGlyph>
    <TTGlyph name="B" xMin="61" yMin="0" xMax="1556" yMax="1516">
      <contour>
        <pt x="125" y="274" on="1"/>
        <pt x="278" y="274" on="1"/>
        <pt x="502" y="1241" on="1"/>
        <pt x="330" y="1241" on="1"/>
        <pt x="393" y="1516" on="1"/>
        <pt x="1159" y="1516" on="1"/>
        <pt x="1255" y="1516" on="0"/>
        <pt x="1403" y="1458" on="0"/>
        <pt x="1504" y="1355" on="0"/>
        <pt x="1556" y="1215" on="0"/>
        <pt x="1556" y="1133" on="1"/>
        <pt x="1556" y="1048" on="0"/>
        <pt x="1500" y="889" on="0"/>
        <pt x="1435" y="826" on="1"/>
        <pt x="1387" y="781" on="0"/>
        <pt x="1317" y="747" on="1"/>
        <pt x="1325" y="741" on="0"/>
        <pt x="1331" y="735" on="1"/>
        <pt x="1382" y="688" on="0"/>
        <pt x="1434" y="566" on="0"/>
        <pt x="1434" y="496" on="1"/>
        <pt x="1434" y="372" on="0"/>
        <pt x="1353" y="186" on="0"/>
        <pt x="1203" y="62" on="0"/>
        <pt x="991" y="0" on="0"/>
        <pt x="860" y="0" on="1"/>
        <pt x="61" y="0" on="1"/>
      </contour>
      <contour>
        <pt x="710" y="627" on="1"/>
        <pt x="628" y="274" on="1"/>
        <pt x="877" y="274" on="1"/>
        <pt x="929" y="274" on="0"/>
        <pt x="1010" y="305" on="0"/>
        <pt x="1065" y="362" on="0"/>
        <pt x="1094" y="441" on="0"/>
        <pt x="1094" y="489" on="1"/>
        <pt x="1094" y="518" on="0"/>
        <pt x="1076" y="569" on="0"/>
        <pt x="1042" y="606" on="0"/>
        <pt x="990" y="627" on="0"/>
        <pt x="956" y="627" on="1"/>
      </contour>
      <contour>
        <pt x="853" y="1241" on="1"/>
        <pt x="774" y="901" on="1"/>
        <pt x="1006" y="901" on="1"/>
        <pt x="1051" y="901" on="0"/>
        <pt x="1129" y="928" on="0"/>
        <pt x="1186" y="979" on="0"/>
        <pt x="1219" y="1050" on="0"/>
        <pt x="1219" y="1094" on="1"/>
        <pt x="1219" y="1124" on="0"/>
        <pt x="1200" y="1177" on="0"/>
        <pt x="1164" y="1218" on="0"/>
        <pt x="1109" y="1241" on="0"/>
        <pt x="1073" y="1241" on="1"/>
      </contour>
    </TTGlyph>
    <TTGlyph name="C" xMin="102" yMin="-31" xMax="1677" yMax="1544">
      <contour>
        <pt x="1199" y="1123" on="0"/>
        <pt x="1068" y="1208" on="0"/>
        <pt x="971" y="1208" on="1"/>
        <pt x="903" y="1208" on="0"/>
        <pt x="775" y="1165" on="0"/>
        <pt x="662" y="1088" on="0"/>
        <pt x="569" y="982" on="0"/>
        <pt x="502" y="856" on="0"/>
        <pt x="465" y="715" on="0"/>
        <pt x="465" y="641" on="1"/>
        <pt x="465" y="566" on="0"/>
        <pt x="507" y="443" on="0"/>
        <pt x="586" y="354" on="0"/>
        <pt x="697" y="305" on="0"/>
        <pt x="766" y="305" on="1"/>
        <pt x="821" y="305" on="0"/>
        <pt x="917" y="335" on="0"/>
        <pt x="1000" y="388" on="0"/>
        <pt x="1068" y="459" on="0"/>
        <pt x="1096" y="500" on="1"/>
        <pt x="1413" y="342" on="1"/>
        <pt x="1299" y="162" on="0"/>
        <pt x="954" y="-31" on="0"/>
        <pt x="727" y="-31" on="1"/>
        <pt x="591" y="-31" on="0"/>
        <pt x="362" y="62" on="0"/>
        <pt x="195" y="230" on="0"/>
        <pt x="102" y="465" on="0"/>
        <pt x="102" y="608" on="1"/>
        <pt x="102" y="750" on="0"/>
        <pt x="174" y="999" on="0"/>
        <pt x="301" y="1207" on="0"/>
        <pt x="474" y="1371" on="0"/>
        <pt x="677" y="1484" on="0"/>
        <pt x="900" y="1544" on="0"/>
        <pt x="1014" y="1544" on="1"/>
        <pt x="1105" y="1544" on="0"/>
        <pt x="1259" y="1506" on="0"/>
        <pt x="1387" y="1436" on="0"/>
        <pt x="1464" y="1359" on="0"/>
        <pt x="1487" y="1329" on="1"/>
        <pt x="1677" y="1329" on="1"/>
        <pt x="1614" y="1055" on="1"/>
        <pt x="1225" y="1055" on="1"/>
      </contour>
    </TTGlyph>
    <TTGlyph name="Cacute" xMin="102" yMin="-31" xMax="2717" yMax="2449">
      <component glyphName="C" x="0" y="0" flags="0x204"/>
      <component glyphName="acute" x="800" y="480" flags="0x4"/>
    </TTGlyph>
    <TTGlyph name="Ccaron" xMin="102" yMin="-31" xMax="1677" yMax="1982">
      <component glyphName="C" x="0" y="0" flags="0x204"/>
      <component glyphName="caron" x="592" y="479" flags="0x4"/>
    </TTGlyph>
    <TTGlyph name="Ccedilla" xMin="102" yMin="-453" xMax="1677" yMax="1544">
      <component glyphName="C" x="0" y="0" flags="0x204"/>
      <component glyphName="cedilla" x="238" y="0" flags="0x4"/>
    </TTGlyph>
    <TTGlyph name="D" xMin="61" yMin="0" xMax="1647" yMax="1516">
      <contour>
        <pt x="412" y="1516" on="1"/>
        <pt x="1020" y="1516" on="1"/>
        <pt x="1157" y="1516" on="0"/>
        <pt x="1387" y="1432" on="0"/>
        <pt x="1554" y="1273" on="0"/>
        <pt x="1647" y="1041" on="0"/>
        <pt x="1647" y="893" on="1"/>
        <pt x="1647" y="768" on="0"/>
        <pt x="1589" y="539" on="0"/>
        <pt x="1477" y="341" on="0"/>
        <pt x="1313" y="179" on="0"/>
        <pt x="1101" y="63" on="0"/>
        <pt x="842" y="0" on="0"/>
        <pt x="692" y="0" on="1"/>
        <pt x="61" y="0" on="1"/>
        <pt x="125" y="274" on="1"/>
        <pt x="280" y="274" on="1"/>
        <pt x="504" y="1241" on="1"/>
        <pt x="348" y="1241" on="1"/>
      </contour>
      <contour>
        <pt x="855" y="1241" on="1"/>
        <pt x="630" y="274" on="1"/>
        <pt x="737" y="274" on="1"/>
        <pt x="810" y="274" on="0"/>
        <pt x="947" y="317" on="0"/>
        <pt x="1068" y="394" on="0"/>
        <pt x="1169" y="502" on="0"/>
        <pt x="1242" y="633" on="0"/>
        <pt x="1282" y="783" on="0"/>
        <pt x="1282" y="864" on="1"/>
        <pt x="1282" y="969" on="0"/>
        <pt x="1229" y="1113" on="0"/>
        <pt x="1140" y="1202" on="0"/>
        <pt x="1024" y="1241" on="0"/>
        <pt x="961" y="1241" on="1"/>
      </contour>
    </TTGlyph>
    <TTGlyph name="D_E" xMin="85" yMin="0" xMax="1984" yMax="1516">
      <contour>
        <pt x="814" y="0" on="1"/>
        <pt x="659" y="0" on="0"/>
        <pt x="393" y="119" on="0"/>
        <pt x="196" y="326" on="0"/>
        <pt x="85" y="604" on="0"/>
        <pt x="85" y="762" on="1"/>
        <pt x="85" y="918" on="0"/>
        <pt x="196" y="1194" on="0"/>
        <pt x="393" y="1397" on="0"/>
        <pt x="659" y="1516" on="0"/>
        <pt x="814" y="1516" on="1"/>
        <pt x="1984" y="1516" on="1"/>
        <pt x="1984" y="1087" on="1"/>
        <pt x="1779" y="1087" on="1"/>
        <pt x="1779" y="1343" on="1"/>
        <pt x="1238" y="1343" on="1"/>
        <pt x="1238" y="858" on="1"/>
        <pt x="1693" y="858" on="1"/>
        <pt x="1693" y="686" on="1"/>
        <pt x="1238" y="686" on="1"/>
        <pt x="1238" y="172" on="1"/>
        <pt x="1779" y="172" on="1"/>
        <pt x="1779" y="428" on="1"/>
        <pt x="1984" y="428" on="1"/>
        <pt x="1984" y="0" on="1"/>
      </contour>
      <contour>
        <pt x="294" y="762" on="1"/>
        <pt x="294" y="639" on="0"/>
        <pt x="374" y="424" on="0"/>
        <pt x="511" y="264" on="0"/>
        <pt x="698" y="172" on="0"/>
        <pt x="802" y="172" on="1"/>
        <pt x="1042" y="172" on="1"/>
        <pt x="1042" y="1343" on="1"/>
        <pt x="802" y="1343" on="1"/>
        <pt x="698" y="1343" on="0"/>
        <pt x="511" y="1253" on="0"/>
        <pt x="374" y="1096" on="0"/>
        <pt x="294" y="885" on="0"/>
        <pt x="294" y="762" on="1"/>
      </contour>
    </TTGlyph>
    <TTGlyph name="Dcaron" xMin="61" yMin="0" xMax="2023" yMax="2380">
      <component glyphName="D" x="0" y="0" flags="0x204"/>
      <component glyphName="caron" x="252" y="398" flags="0x4"/>
    </TTGlyph>
    <TTGlyph name="Dcroat" xMin="-20" yMin="0" xMax="1566" yMax="1516">
      <component glyphName="Eth" x="0" y="0" flags="0x204"/>
    </TTGlyph>
    <TTGlyph name="E" xMin="61" yMin="0" xMax="1690" yMax="1516">
      <contour>
        <pt x="393" y="1516" on="1"/>
        <pt x="1690" y="1516" on="1"/>
        <pt x="1571" y="999" on="1"/>
        <pt x="1221" y="999" on="1"/>
        <pt x="1276" y="1241" on="1"/>
        <pt x="855" y="1241" on="1"/>
        <pt x="779" y="915" on="1"/>
        <pt x="1116" y="915" on="1"/>
        <pt x="1049" y="625" on="1"/>
        <pt x="712" y="625" on="1"/>
        <pt x="630" y="274" on="1"/>
        <pt x="1026" y="274" on="1"/>
        <pt x="1087" y="543" on="1"/>
        <pt x="1438" y="543" on="1"/>
        <pt x="1313" y="0" on="1"/>
        <pt x="61" y="0" on="1"/>
        <pt x="125" y="274" on="1"/>
        <pt x="280" y="274" on="1"/>
        <pt x="504" y="1241" on="1"/>
        <pt x="330" y="1241" on="1"/>
      </contour>
    </TTGlyph>
    <TTGlyph name="Eacute" xMin="61" yMin="0" xMax="4081" yMax="2929">
      <component glyphName="E" x="0" y="0" flags="0x204"/>
      <component glyphName="acute" x="884" y="480" flags="0x4"/>
    </TTGlyph>
    <TTGlyph name="Ecaron" xMin="61" yMin="0" xMax="2633" yMax="2860">
      <component glyphName="E" x="0" y="0" flags="0x204"/>
      <component glyphName="caron" x="610" y="480" flags="0x4"/>
    </TTGlyph>
    <TTGlyph name="Ecircumflex" xMin="61" yMin="0" xMax="2247" yMax="2463">
      <component glyphName="E" x="0" y="0" flags="0x204"/>
      <component glyphName="circumflex" x="585" y="480" flags="0x4"/>
    </TTGlyph>
    <TTGlyph name="Edieresis" xMin="61" yMin="0" xMax="2307" yMax="2478">
      <component glyphName="E" x="0" y="0" flags="0x204"/>
      <component glyphName="dieresis" x="571" y="478" flags="0x4"/>
    </TTGlyph>
    <TTGlyph name="Edotaccent" xMin="61" yMin="0" xMax="1690" yMax="2028">
      <component glyphName="E" x="0" y="0" flags="0x204"/>
      <component glyphName="dotaccent" x="804" y="480" flags="0x4"/>
    </TTGlyph>
    <TTGlyph name="Egrave" xMin="61" yMin="0" xMax="1994" yMax="2449">
      <component glyphName="E" x="0" y="0" flags="0x204"/>
      <component glyphName="grave" x="579" y="480" flags="0x4"/>
    </TTGlyph>
    <TTGlyph name="Emacron" xMin="61" yMin="0" xMax="2331" yMax="2351">
      <component glyphName="E" x="0" y="0" flags="0x204"/>
      <component glyphName="macron" x="657" y="480" flags="0x4"/>
    </TTGlyph>
    <TTGlyph name="Eogonek" xMin="61" yMin="-471" xMax="1690" yMax="1516">
      <contour>
        <pt x="393" y="1516" on="1"/>
        <pt x="1690" y="1516" on="1"/>
        <pt x="1571" y="999" on="1"/>
        <pt x="1221" y="999" on="1"/>
        <pt x="1276" y="1241" on="1"/>
        <pt x="854" y="1241" on="1"/>
        <pt x="778" y="915" on="1"/>
        <pt x="1116" y="915" on="1"/>
        <pt x="1049" y="625" on="1"/>
        <pt x="711" y="625" on="1"/>
        <pt x="631" y="274" on="1"/>
        <pt x="1026" y="274" on="1"/>
        <pt x="1087" y="543" on="1"/>
        <pt x="1438" y="543" on="1"/>
        <pt x="1313" y="0" on="1"/>
        <pt x="1311" y="0" on="1"/>
        <pt x="1227" y="0" on="0"/>
        <pt x="1100" y="-41" on="0"/>
        <pt x="1016" y="-106" on="0"/>
        <pt x="973" y="-182" on="0"/>
        <pt x="973" y="-215" on="1"/>
        <pt x="973" y="-254" on="0"/>
        <pt x="1022" y="-283" on="0"/>
        <pt x="1044" y="-283" on="1"/>
        <pt x="1083" y="-283" on="0"/>
        <pt x="1137" y="-270" on="0"/>
        <pt x="1157" y="-260" on="1"/>
        <pt x="1206" y="-430" on="1"/>
        <pt x="1184" y="-442" on="0"/>
        <pt x="1081" y="-471" on="0"/>
        <pt x="1028" y="-471" on="1"/>
        <pt x="967" y="-471" on="0"/>
        <pt x="862" y="-442" on="0"/>
        <pt x="782" y="-389" on="0"/>
        <pt x="737" y="-311" on="0"/>
        <pt x="737" y="-260" on="1"/>
        <pt x="737" y="-180" on="0"/>
        <pt x="848" y="-47" on="0"/>
        <pt x="926" y="0" on="1"/>
        <pt x="61" y="0" on="1"/>
        <pt x="125" y="274" on="1"/>
        <pt x="281" y="274" on="1"/>
        <pt x="504" y="1241" on="1"/>
        <pt x="330" y="1241" on="1"/>
      </contour>
    </TTGlyph>
    <TTGlyph name="Eth" xMin="-20" yMin="0" xMax="1566" yMax="1516">
      <contour>
        <pt x="88" y="640" on="1"/>
        <pt x="152" y="914" on="1"/>
        <pt x="347" y="914" on="1"/>
        <pt x="423" y="1241" on="1"/>
        <pt x="267" y="1241" on="1"/>
        <pt x="331" y="1516" on="1"/>
        <pt x="939" y="1516" on="1"/>
        <pt x="1076" y="1516" on="0"/>
        <pt x="1306" y="1432" on="0"/>
        <pt x="1473" y="1273" on="0"/>
        <pt x="1566" y="1041" on="0"/>
        <pt x="1566" y="893" on="1"/>
        <pt x="1566" y="768" on="0"/>
        <pt x="1508" y="539" on="0"/>
        <pt x="1396" y="341" on="0"/>
        <pt x="1232" y="179" on="0"/>
        <pt x="1020" y="63" on="0"/>
        <pt x="761" y="0" on="0"/>
        <pt x="611" y="0" on="1"/>
        <pt x="-20" y="0" on="1"/>
        <pt x="44" y="274" on="1"/>
        <pt x="199" y="274" on="1"/>
        <pt x="284" y="640" on="1"/>
      </contour>
      <contour>
        <pt x="774" y="1241" on="1"/>
        <pt x="698" y="914" on="1"/>
        <pt x="950" y="914" on="1"/>
        <pt x="886" y="640" on="1"/>
        <pt x="634" y="640" on="1"/>
        <pt x="549" y="274" on="1"/>
        <pt x="656" y="274" on="1"/>
        <pt x="729" y="274" on="0"/>
        <pt x="866" y="317" on="0"/>
        <pt x="987" y="394" on="0"/>
        <pt x="1088" y="502" on="0"/>
        <pt x="1161" y="633" on="0"/>
        <pt x="1201" y="783" on="0"/>
        <pt x="1201" y="864" on="1"/>
        <pt x="1201" y="969" on="0"/>
        <pt x="1148" y="1113" on="0"/>
        <pt x="1059" y="1202" on="0"/>
        <pt x="943" y="1241" on="0"/>
        <pt x="880" y="1241" on="1"/>
      </contour>
    </TTGlyph>
    <TTGlyph name="Euro" xMin="219" yMin="-27" xMax="1737" yMax="1544">
      <contour>
        <pt x="1350" y="1055" on="1"/>
        <pt x="1325" y="1126" on="0"/>
        <pt x="1188" y="1231" on="0"/>
        <pt x="1083" y="1231" on="1"/>
        <pt x="1032" y="1231" on="0"/>
        <pt x="932" y="1204" on="0"/>
        <pt x="838" y="1155" on="0"/>
        <pt x="752" y="1087" on="0"/>
        <pt x="715" y="1044" on="1"/>
        <pt x="1196" y="1044" on="1"/>
        <pt x="983" y="760" on="1"/>
        <pt x="575" y="760" on="1"/>
        <pt x="571" y="743" on="0"/>
        <pt x="569" y="715" on="0"/>
        <pt x="567" y="698" on="1"/>
        <pt x="1063" y="698" on="1"/>
        <pt x="850" y="414" on="1"/>
        <pt x="631" y="414" on="1"/>
        <pt x="670" y="354" on="0"/>
        <pt x="788" y="289" on="0"/>
        <pt x="866" y="289" on="1"/>
        <pt x="926" y="289" on="0"/>
        <pt x="1040" y="328" on="0"/>
        <pt x="1139" y="391" on="0"/>
        <pt x="1223" y="475" on="0"/>
        <pt x="1251" y="520" on="1"/>
        <pt x="1550" y="430" on="1"/>
        <pt x="1497" y="332" on="0"/>
        <pt x="1339" y="166" on="0"/>
        <pt x="1143" y="43" on="0"/>
        <pt x="915" y="-27" on="0"/>
        <pt x="793" y="-27" on="1"/>
        <pt x="664" y="-27" on="0"/>
        <pt x="451" y="70" on="0"/>
        <pt x="301" y="240" on="0"/>
        <pt x="219" y="469" on="0"/>
        <pt x="219" y="602" on="1"/>
        <pt x="219" y="791" on="0"/>
        <pt x="379" y="1133" on="0"/>
        <pt x="641" y="1391" on="0"/>
        <pt x="977" y="1544" on="0"/>
        <pt x="1155" y="1544" on="1"/>
        <pt x="1214" y="1544" on="0"/>
        <pt x="1331" y="1522" on="0"/>
        <pt x="1436" y="1481" on="0"/>
        <pt x="1526" y="1425" on="0"/>
        <pt x="1561" y="1393" on="1"/>
        <pt x="1737" y="1393" on="1"/>
        <pt x="1659" y="1055" on="1"/>
      </contour>
    </TTGlyph>
    <TTGlyph name="F" xMin="61" yMin="0" xMax="1653" yMax="1516">
      <contour>
        <pt x="348" y="1516" on="1"/>
        <pt x="1653" y="1516" on="1"/>
        <pt x="1534" y="999" on="1"/>
        <pt x="1186" y="999" on="1"/>
        <pt x="1241" y="1241" on="1"/>
        <pt x="851" y="1241" on="1"/>
        <pt x="770" y="893" on="1"/>
        <pt x="1133" y="893" on="1"/>
        <pt x="1065" y="602" on="1"/>
        <pt x="702" y="602" on="1"/>
        <pt x="626" y="274" on="1"/>
        <pt x="801" y="274" on="1"/>
        <pt x="737" y="0" on="1"/>
        <pt x="61" y="0" on="1"/>
        <pt x="125" y="274" on="1"/>
        <pt x="276" y="274" on="1"/>
        <pt x="500" y="1241" on="1"/>
        <pt x="285" y="1241" on="1"/>
      </contour>
    </TTGlyph>
    <TTGlyph name="G" xMin="123" yMin="-31" xMax="1702" yMax="1544">
      <contour>
        <pt x="1133" y="0" on="1"/>
        <pt x="1186" y="228" on="1"/>
        <pt x="1146" y="164" on="0"/>
        <pt x="1019" y="43" on="0"/>
        <pt x="834" y="-31" on="0"/>
        <pt x="737" y="-31" on="1"/>
        <pt x="606" y="-31" on="0"/>
        <pt x="382" y="62" on="0"/>
        <pt x="217" y="230" on="0"/>
        <pt x="123" y="465" on="0"/>
        <pt x="123" y="608" on="1"/>
        <pt x="123" y="750" on="0"/>
        <pt x="195" y="999" on="0"/>
        <pt x="322" y="1207" on="0"/>
        <pt x="495" y="1371" on="0"/>
        <pt x="697" y="1484" on="0"/>
        <pt x="920" y="1544" on="0"/>
        <pt x="1034" y="1544" on="1"/>
        <pt x="1112" y="1544" on="0"/>
        <pt x="1260" y="1511" on="0"/>
        <pt x="1389" y="1452" on="0"/>
        <pt x="1490" y="1373" on="0"/>
        <pt x="1524" y="1329" on="1"/>
        <pt x="1702" y="1329" on="1"/>
        <pt x="1638" y="1055" on="1"/>
        <pt x="1249" y="1055" on="1"/>
        <pt x="1236" y="1086" on="0"/>
        <pt x="1189" y="1144" on="0"/>
        <pt x="1123" y="1188" on="0"/>
        <pt x="1040" y="1214" on="0"/>
        <pt x="991" y="1214" on="1"/>
        <pt x="889" y="1214" on="0"/>
        <pt x="705" y="1118" on="0"/>
        <pt x="567" y="958" on="0"/>
        <pt x="485" y="752" on="0"/>
        <pt x="485" y="641" on="1"/>
        <pt x="485" y="566" on="0"/>
        <pt x="526" y="440" on="0"/>
        <pt x="603" y="347" on="0"/>
        <pt x="714" y="295" on="0"/>
        <pt x="784" y="295" on="1"/>
        <pt x="849" y="295" on="0"/>
        <pt x="974" y="334" on="0"/>
        <pt x="1079" y="403" on="0"/>
        <pt x="1152" y="490" on="0"/>
        <pt x="1171" y="535" on="1"/>
        <pt x="852" y="535" on="1"/>
        <pt x="915" y="809" on="1"/>
        <pt x="1620" y="809" on="1"/>
        <pt x="1432" y="0" on="1"/>
      </contour>
    </TTGlyph>
    <TTGlyph name="Gamma" xMin="34" yMin="0" xMax="1539" yMax="1516">
      <component glyphName="uni0413" x="-13" y="0" flags="0x4"/>
    </TTGlyph>
    <TTGlyph name="Gbreve" xMin="123" yMin="-31" xMax="2233" yMax="2440">
      <component glyphName="G" x="0" y="0" flags="0x204"/>
      <component glyphName="breve" x="516" y="479" flags="0x4"/>
    </TTGlyph>
    <TTGlyph name="Gcommaaccent" xMin="123" yMin="-471" xMax="1702" yMax="1544">
      <component glyphName="G" x="0" y="0" flags="0x204"/>
      <component glyphName="commabelow" x="561" y="0" flags="0x4"/>
    </TTGlyph>
    <TTGlyph name="H" xMin="61" yMin="0" xMax="2089" yMax="1516">
      <contour>
        <pt x="1413" y="1516" on="1"/>
        <pt x="2089" y="1516" on="1"/>
        <pt x="2025" y="1241" on="1"/>
        <pt x="1870" y="1241" on="1"/>
        <pt x="1646" y="274" on="1"/>
        <pt x="1821" y="274" on="1"/>
        <pt x="1757" y="0" on="1"/>
        <pt x="1081" y="0" on="1"/>
        <pt x="1145" y="274" on="1"/>
        <pt x="1296" y="274" on="1"/>
        <pt x="1386" y="662" on="1"/>
        <pt x="720" y="662" on="1"/>
        <pt x="630" y="274" on="1"/>
        <pt x="801" y="274" on="1"/>
        <pt x="737" y="0" on="1"/>
        <pt x="61" y="0" on="1"/>
        <pt x="125" y="274" on="1"/>
        <pt x="280" y="274" on="1"/>
        <pt x="504" y="1241" on="1"/>
        <pt x="332" y="1241" on="1"/>
        <pt x="395" y="1516" on="1"/>
        <pt x="1071" y="1516" on="1"/>
        <pt x="1008" y="1241" on="1"/>
        <pt x="855" y="1241" on="1"/>
        <pt x="783" y="932" on="1"/>
        <pt x="1448" y="932" on="1"/>
        <pt x="1520" y="1241" on="1"/>
        <pt x="1350" y="1241" on="1"/>
      </contour>
    </TTGlyph>
    <TTGlyph name="I" xMin="61" yMin="0" xMax="1069" yMax="1516">
      <contour>
        <pt x="393" y="1516" on="1"/>
        <pt x="1069" y="1516" on="1"/>
        <pt x="1006" y="1241" on="1"/>
        <pt x="855" y="1241" on="1"/>
        <pt x="630" y="274" on="1"/>
        <pt x="801" y="274" on="1"/>
        <pt x="737" y="0" on="1"/>
        <pt x="61" y="0" on="1"/>
        <pt x="125" y="274" on="1"/>
        <pt x="280" y="274" on="1"/>
        <pt x="504" y="1241" on="1"/>
        <pt x="330" y="1241" on="1"/>
      </contour>
    </TTGlyph>
    <TTGlyph name="Iacute" xMin="1365" yMin="0" xMax="5146" yMax="3409">
      <component glyphName="I" x="0" y="0" flags="0x204"/>
      <component glyphName="acute" x="520" y="480" flags="0x4"/>
    </TTGlyph>
    <TTGlyph name="Icircumflex" xMin="1365" yMin="0" xMax="2748" yMax="2943">
      <component glyphName="I" x="0" y="0" flags="0x204"/>
      <component glyphName="circumflex" x="255" y="480" flags="0x4"/>
    </TTGlyph>
    <TTGlyph name="Idieresis" xMin="424" yMin="0" xMax="2373" yMax="1981">
      <component glyphName="I" x="0" y="0" flags="0x204"/>
      <component glyphName="dieresis.i" x="207" y="478" flags="0x4"/>
    </TTGlyph>
    <TTGlyph name="Idotaccent" xMin="1365" yMin="0" xMax="3255" yMax="2987">
      <component glyphName="I" x="0" y="0" flags="0x204"/>
      <component glyphName="dotaccent" x="440" y="480" flags="0x4"/>
    </TTGlyph>
    <TTGlyph name="Igrave" xMin="1365" yMin="0" xMax="2449" yMax="2929">
      <component glyphName="I" x="0" y="0" flags="0x204"/>
      <component glyphName="grave" x="215" y="480" flags="0x4"/>
    </TTGlyph>
    <TTGlyph name="Imacron" xMin="1365" yMin="0" xMax="2983" yMax="2831">
      <component glyphName="I" x="0" y="0" flags="0x204"/>
      <component glyphName="macron" x="335" y="480" flags="0x4"/>
    </TTGlyph>
    <TTGlyph name="Iogonek" xMin="-102" yMin="-471" xMax="1069" yMax="1516">
      <contour>
        <pt x="393" y="1516" on="1"/>
        <pt x="1069" y="1516" on="1"/>
        <pt x="1006" y="1241" on="1"/>
        <pt x="854" y="1241" on="1"/>
        <pt x="631" y="274" on="1"/>
        <pt x="801" y="274" on="1"/>
        <pt x="737" y="0" on="1"/>
        <pt x="422" y="0" on="1"/>
        <pt x="371" y="-2" on="0"/>
        <pt x="268" y="-45" on="0"/>
        <pt x="184" y="-109" on="0"/>
        <pt x="133" y="-182" on="0"/>
        <pt x="133" y="-215" on="1"/>
        <pt x="133" y="-254" on="0"/>
        <pt x="182" y="-283" on="0"/>
        <pt x="205" y="-283" on="1"/>
        <pt x="244" y="-283" on="0"/>
        <pt x="297" y="-270" on="0"/>
        <pt x="317" y="-260" on="1"/>
        <pt x="367" y="-430" on="1"/>
        <pt x="344" y="-442" on="0"/>
        <pt x="242" y="-471" on="0"/>
        <pt x="188" y="-471" on="1"/>
        <pt x="127" y="-471" on="0"/>
        <pt x="23" y="-442" on="0"/>
        <pt x="-57" y="-389" on="0"/>
        <pt x="-102" y="-311" on="0"/>
        <pt x="-102" y="-260" on="1"/>
        <pt x="-102" y="-174" on="0"/>
        <pt x="6" y="-45" on="0"/>
        <pt x="82" y="0" on="1"/>
        <pt x="145" y="274" on="1"/>
        <pt x="281" y="274" on="1"/>
        <pt x="504" y="1241" on="1"/>
        <pt x="330" y="1241" on="1"/>
      </contour>
    </TTGlyph>
    <TTGlyph name="J" xMin="-82" yMin="-246" xMax="1028" yMax="1516">
      <contour>
        <pt x="352" y="1516" on="1"/>
        <pt x="1028" y="1516" on="1"/>
        <pt x="965" y="1241" on="1"/>
        <pt x="816" y="1241" on="1"/>
        <pt x="569" y="172" on="1"/>
        <pt x="527" y="91" on="0"/>
        <pt x="461" y="4" on="0"/>
        <pt x="373" y="-81" on="1"/>
        <pt x="296" y="-160" on="0"/>
        <pt x="199" y="-246" on="1"/>
        <pt x="-82" y="-223" on="1"/>
        <pt x="2" y="-133" on="0"/>
        <pt x="98" y="-24" on="0"/>
        <pt x="197" y="114" on="0"/>
        <pt x="229" y="205" on="1"/>
        <pt x="468" y="1241" on="1"/>
        <pt x="289" y="1241" on="1"/>
      </contour>
    </TTGlyph>
    <TTGlyph name="K" xMin="61" yMin="0" xMax="2052" yMax="1516">
      <contour>
        <pt x="1370" y="1243" on="1"/>
        <pt x="1434" y="1516" on="1"/>
        <pt x="2052" y="1516" on="1"/>
        <pt x="1989" y="1241" on="1"/>
        <pt x="1855" y="1241" on="1"/>
        <pt x="1213" y="764" on="1"/>
        <pt x="1563" y="274" on="1"/>
        <pt x="1710" y="274" on="1"/>
        <pt x="1649" y="0" on="1"/>
        <pt x="1085" y="0" on="1"/>
        <pt x="1149" y="274" on="1"/>
        <pt x="772" y="793" on="1"/>
      </contour>
      <contour>
        <pt x="393" y="1516" on="1"/>
        <pt x="1069" y="1516" on="1"/>
        <pt x="1006" y="1241" on="1"/>
        <pt x="855" y="1241" on="1"/>
        <pt x="630" y="274" on="1"/>
        <pt x="801" y="274" on="1"/>
        <pt x="737" y="0" on="1"/>
        <pt x="61" y="0" on="1"/>
        <pt x="125" y="274" on="1"/>
        <pt x="280" y="274" on="1"/>
        <pt x="504" y="1241" on="1"/>
        <pt x="330" y="1241" on="1"/>
      </contour>
    </TTGlyph>
    <TTGlyph name="Kcommaaccent" xMin="61" yMin="-471" xMax="2052" yMax="1516">
      <component glyphName="K" x="0" y="0" flags="0x204"/>
      <component glyphName="commabelow" x="645" y="0" flags="0x4"/>
    </TTGlyph>
    <TTGlyph name="L" xMin="61" yMin="0" xMax="1399" yMax="1516">
      <contour>
        <pt x="393" y="1516" on="1"/>
        <pt x="1069" y="1516" on="1"/>
        <pt x="1006" y="1241" on="1"/>
        <pt x="853" y="1241" on="1"/>
        <pt x="628" y="274" on="1"/>
        <pt x="915" y="274" on="1"/>
        <pt x="951" y="274" on="0"/>
        <pt x="1002" y="321" on="0"/>
        <pt x="1012" y="356" on="1"/>
        <pt x="1061" y="557" on="1"/>
        <pt x="1399" y="557" on="1"/>
        <pt x="1272" y="0" on="1"/>
        <pt x="61" y="0" on="1"/>
        <pt x="125" y="274" on="1"/>
        <pt x="278" y="274" on="1"/>
        <pt x="502" y="1241" on="1"/>
        <pt x="330" y="1241" on="1"/>
      </contour>
    </TTGlyph>
    <TTGlyph name="Lacute" xMin="61" yMin="0" xMax="5952" yMax="3806">
      <component glyphName="L" x="0" y="0" flags="0x204"/>
      <component glyphName="acute" x="477" y="397" flags="0x4"/>
    </TTGlyph>
    <TTGlyph name="Lcaron" xMin="61" yMin="0" xMax="2785" yMax="1533">
      <component glyphName="L" x="0" y="0" flags="0x4"/>
      <component glyphName="quotesingle" x="907" y="-60" flags="0x4"/>
    </TTGlyph>
    <TTGlyph name="Lcommaaccent" xMin="61" yMin="-471" xMax="2495" yMax="1516">
      <component glyphName="L" x="0" y="0" flags="0x204"/>
      <component glyphName="commabelow" x="432" y="0" flags="0x4"/>
    </TTGlyph>
    <TTGlyph name="Lslash" xMin="61" yMin="0" xMax="1399" yMax="1516">
      <contour>
        <pt x="393" y="1516" on="1"/>
        <pt x="1069" y="1516" on="1"/>
        <pt x="1006" y="1241" on="1"/>
        <pt x="852" y="1241" on="1"/>
        <pt x="809" y="1051" on="1"/>
        <pt x="1243" y="1255" on="1"/>
        <pt x="1165" y="905" on="1"/>
        <pt x="727" y="698" on="1"/>
        <pt x="629" y="274" on="1"/>
        <pt x="915" y="274" on="1"/>
        <pt x="950" y="274" on="0"/>
        <pt x="1001" y="322" on="0"/>
        <pt x="1012" y="356" on="1"/>
        <pt x="1061" y="557" on="1"/>
        <pt x="1399" y="557" on="1"/>
        <pt x="1272" y="0" on="1"/>
        <pt x="61" y="0" on="1"/>
        <pt x="125" y="274" on="1"/>
        <pt x="279" y="274" on="1"/>
        <pt x="334" y="514" on="1"/>
        <pt x="80" y="395" on="1"/>
        <pt x="158" y="745" on="1"/>
        <pt x="416" y="866" on="1"/>
        <pt x="502" y="1241" on="1"/>
        <pt x="330" y="1241" on="1"/>
      </contour>
    </TTGlyph>
    <TTGlyph name="M" xMin="51" yMin="0" xMax="2560" yMax="1516">
      <contour>
        <pt x="115" y="274" on="1"/>
        <pt x="251" y="274" on="1"/>
        <pt x="475" y="1241" on="1"/>
        <pt x="301" y="1241" on="1"/>
        <pt x="365" y="1516" on="1"/>
        <pt x="1053" y="1516" on="1"/>
        <pt x="1234" y="500" on="1"/>
        <pt x="1853" y="1516" on="1"/>
        <pt x="2560" y="1516" on="1"/>
        <pt x="2497" y="1241" on="1"/>
        <pt x="2343" y="1241" on="1"/>
        <pt x="2118" y="274" on="1"/>
        <pt x="2267" y="274" on="1"/>
        <pt x="2204" y="0" on="1"/>
        <pt x="1591" y="0" on="1"/>
        <pt x="1655" y="274" on="1"/>
        <pt x="1770" y="274" on="1"/>
        <pt x="1959" y="1088" on="1"/>
        <pt x="1282" y="18" on="1"/>
        <pt x="981" y="18" on="1"/>
        <pt x="782" y="1100" on="1"/>
        <pt x="583" y="274" on="1"/>
        <pt x="727" y="274" on="1"/>
        <pt x="664" y="0" on="1"/>
        <pt x="51" y="0" on="1"/>
      </contour>
    </TTGlyph>
    <TTGlyph name="N" xMin="61" yMin="0" xMax="1970" yMax="1516">
      <contour>
        <pt x="1358" y="1516" on="1"/>
        <pt x="1970" y="1516" on="1"/>
        <pt x="1907" y="1241" on="1"/>
        <pt x="1777" y="1241" on="1"/>
        <pt x="1491" y="0" on="1"/>
        <pt x="1147" y="0" on="1"/>
        <pt x="761" y="935" on="1"/>
        <pt x="608" y="274" on="1"/>
        <pt x="737" y="274" on="1"/>
        <pt x="674" y="0" on="1"/>
        <pt x="61" y="0" on="1"/>
        <pt x="125" y="274" on="1"/>
        <pt x="260" y="274" on="1"/>
        <pt x="483" y="1241" on="1"/>
        <pt x="319" y="1241" on="1"/>
        <pt x="383" y="1516" on="1"/>
        <pt x="899" y="1516" on="1"/>
        <pt x="1273" y="580" on="1"/>
        <pt x="1427" y="1241" on="1"/>
        <pt x="1294" y="1241" on="1"/>
      </contour>
    </TTGlyph>
    <TTGlyph name="Nacute" xMin="61" yMin="0" xMax="7350" yMax="4757">
      <component glyphName="N" x="0" y="0" flags="0x204"/>
      <component glyphName="acute" x="960" y="480" flags="0x4"/>
    </TTGlyph>
    <TTGlyph name="Ncaron" xMin="61" yMin="0" xMax="3589" yMax="3340">
      <component glyphName="N" x="0" y="0" flags="0x204"/>
      <component glyphName="caron" x="686" y="480" flags="0x4"/>
    </TTGlyph>
    <TTGlyph name="Ncommaaccent" xMin="61" yMin="-471" xMax="3215" yMax="1516">
      <component glyphName="N" x="0" y="0" flags="0x204"/>
      <component glyphName="commabelow" x="582" y="0" flags="0x4"/>
    </TTGlyph>
    <TTGlyph name="Ntilde" xMin="61" yMin="0" xMax="2433" yMax="2439">
      <component glyphName="N" x="0" y="0" flags="0x204"/>
      <component glyphName="tilde" x="676" y="480" flags="0x4"/>
    </TTGlyph>
    <TTGlyph name="O" xMin="123" yMin="-31" xMax="1659" yMax="1544">
      <contour>
        <pt x="748" y="-31" on="1"/>
        <pt x="612" y="-31" on="0"/>
        <pt x="383" y="62" on="0"/>
        <pt x="216" y="230" on="0"/>
        <pt x="123" y="465" on="0"/>
        <pt x="123" y="608" on="1"/>
        <pt x="123" y="750" on="0"/>
        <pt x="195" y="999" on="0"/>
        <pt x="322" y="1207" on="0"/>
        <pt x="495" y="1371" on="0"/>
        <pt x="697" y="1484" on="0"/>
        <pt x="920" y="1544" on="0"/>
        <pt x="1034" y="1544" on="1"/>
        <pt x="1176" y="1544" on="0"/>
        <pt x="1407" y="1450" on="0"/>
        <pt x="1570" y="1281" on="0"/>
        <pt x="1659" y="1045" on="0"/>
        <pt x="1659" y="903" on="1"/>
        <pt x="1659" y="764" on="0"/>
        <pt x="1592" y="518" on="0"/>
        <pt x="1470" y="310" on="0"/>
        <pt x="1302" y="145" on="0"/>
        <pt x="1099" y="30" on="0"/>
        <pt x="870" y="-31" on="0"/>
      </contour>
      <contour>
        <pt x="786" y="305" on="1"/>
        <pt x="853" y="305" on="0"/>
        <pt x="981" y="348" on="0"/>
        <pt x="1093" y="424" on="0"/>
        <pt x="1187" y="530" on="0"/>
        <pt x="1254" y="656" on="0"/>
        <pt x="1292" y="798" on="0"/>
        <pt x="1292" y="872" on="1"/>
        <pt x="1292" y="947" on="0"/>
        <pt x="1251" y="1070" on="0"/>
        <pt x="1173" y="1159" on="0"/>
        <pt x="1061" y="1208" on="0"/>
        <pt x="991" y="1208" on="1"/>
        <pt x="889" y="1208" on="0"/>
        <pt x="705" y="1114" on="0"/>
        <pt x="567" y="956" on="0"/>
        <pt x="485" y="752" on="0"/>
        <pt x="485" y="641" on="1"/>
        <pt x="485" y="566" on="0"/>
        <pt x="527" y="443" on="0"/>
        <pt x="606" y="354" on="0"/>
        <pt x="717" y="305" on="0"/>
      </contour>
    </TTGlyph>
    <TTGlyph name="OE" xMin="123" yMin="0" xMax="2284" yMax="1516">
      <contour>
        <pt x="737" y="0" on="1"/>
        <pt x="596" y="0" on="0"/>
        <pt x="369" y="102" on="0"/>
        <pt x="209" y="274" on="0"/>
        <pt x="123" y="506" on="0"/>
        <pt x="123" y="635" on="1"/>
        <pt x="123" y="817" on="0"/>
        <pt x="266" y="1137" on="0"/>
        <pt x="514" y="1376" on="0"/>
        <pt x="850" y="1516" on="0"/>
        <pt x="1042" y="1516" on="1"/>
        <pt x="2284" y="1516" on="1"/>
        <pt x="2165" y="999" on="1"/>
        <pt x="1815" y="999" on="1"/>
        <pt x="1870" y="1239" on="1"/>
        <pt x="1460" y="1239" on="1"/>
        <pt x="1384" y="915" on="1"/>
        <pt x="1690" y="915" on="1"/>
        <pt x="1618" y="625" on="1"/>
        <pt x="1317" y="625" on="1"/>
        <pt x="1237" y="274" on="1"/>
        <pt x="1620" y="274" on="1"/>
        <pt x="1681" y="543" on="1"/>
        <pt x="2034" y="543" on="1"/>
        <pt x="1909" y="0" on="1"/>
      </contour>
      <contour>
        <pt x="481" y="670" on="1"/>
        <pt x="481" y="590" on="0"/>
        <pt x="524" y="446" on="0"/>
        <pt x="600" y="338" on="0"/>
        <pt x="711" y="274" on="0"/>
        <pt x="778" y="274" on="1"/>
        <pt x="905" y="274" on="1"/>
        <pt x="1128" y="1241" on="1"/>
        <pt x="1038" y="1241" on="1"/>
        <pt x="936" y="1241" on="0"/>
        <pt x="737" y="1153" on="0"/>
        <pt x="580" y="997" on="0"/>
        <pt x="481" y="788" on="0"/>
        <pt x="481" y="670" on="1"/>
      </contour>
    </TTGlyph>
    <TTGlyph name="Oacute" xMin="123" yMin="-31" xMax="9027" yMax="5277">
      <component glyphName="O" x="0" y="0" flags="0x204"/>
      <component glyphName="acute" x="936" y="520" flags="0x4"/>
    </TTGlyph>
    <TTGlyph name="Ocircumflex" xMin="123" yMin="-31" xMax="3385" yMax="3463">
      <component glyphName="O" x="0" y="0" flags="0x204"/>
      <component glyphName="circumflex" x="637" y="520" flags="0x4"/>
    </TTGlyph>
    <TTGlyph name="Odieresis" xMin="123" yMin="-31" xMax="3210" yMax="2996">
      <component glyphName="O" x="0" y="0" flags="0x204"/>
      <component glyphName="dieresis" x="623" y="518" flags="0x4"/>
    </TTGlyph>
    <TTGlyph name="Ograve" xMin="123" yMin="-31" xMax="2854" yMax="3449">
      <component glyphName="O" x="0" y="0" flags="0x204"/>
      <component glyphName="grave" x="430" y="520" flags="0x4"/>
    </TTGlyph>
    <TTGlyph name="Ohm" xMin="106" yMin="0" xMax="1935" yMax="1548">
      <component glyphName="uni2126" x="0" y="0" flags="0x204"/>
    </TTGlyph>
    <TTGlyph name="Ohungarumlaut" xMin="123" yMin="-31" xMax="1659" yMax="2042">
      <component glyphName="O" x="0" y="0" flags="0x204"/>
      <component glyphName="hungarumlaut" x="800" y="526" flags="0x4"/>
    </TTGlyph>
    <TTGlyph name="Omacron" xMin="123" yMin="-31" xMax="3735" yMax="3351">
      <component glyphName="O" x="0" y="0" flags="0x204"/>
      <component glyphName="macron" x="650" y="520" flags="0x4"/>
    </TTGlyph>
    <TTGlyph name="Oslash" xMin="-87" yMin="-61" xMax="1844" yMax="1577">
      <contour>
        <pt x="219" y="247" on="1"/>
        <pt x="172" y="322" on="0"/>
        <pt x="123" y="503" on="0"/>
        <pt x="123" y="608" on="1"/>
        <pt x="123" y="750" on="0"/>
        <pt x="195" y="999" on="0"/>
        <pt x="322" y="1207" on="0"/>
        <pt x="495" y="1371" on="0"/>
        <pt x="697" y="1484" on="0"/>
        <pt x="921" y="1544" on="0"/>
        <pt x="1034" y="1544" on="1"/>
        <pt x="1143" y="1544" on="0"/>
        <pt x="1329" y="1488" on="0"/>
        <pt x="1404" y="1437" on="1"/>
        <pt x="1543" y="1577" on="1"/>
        <pt x="1844" y="1577" on="1"/>
        <pt x="1553" y="1284" on="1"/>
        <pt x="1604" y="1206" on="0"/>
        <pt x="1659" y="1014" on="0"/>
        <pt x="1659" y="903" on="1"/>
        <pt x="1659" y="764" on="0"/>
        <pt x="1592" y="518" on="0"/>
        <pt x="1470" y="310" on="0"/>
        <pt x="1302" y="145" on="0"/>
        <pt x="1099" y="30" on="0"/>
        <pt x="870" y="-31" on="0"/>
        <pt x="748" y="-31" on="1"/>
        <pt x="637" y="-31" on="0"/>
        <pt x="445" y="30" on="0"/>
        <pt x="367" y="87" on="1"/>
        <pt x="220" y="-61" on="1"/>
        <pt x="-87" y="-61" on="1"/>
      </contour>
      <contour>
        <pt x="853" y="305" on="0"/>
        <pt x="981" y="348" on="0"/>
        <pt x="1093" y="424" on="0"/>
        <pt x="1187" y="530" on="0"/>
        <pt x="1254" y="656" on="0"/>
        <pt x="1292" y="798" on="0"/>
        <pt x="1292" y="872" on="1"/>
        <pt x="1292" y="907" on="0"/>
        <pt x="1282" y="972" on="0"/>
        <pt x="1273" y="1001" on="1"/>
        <pt x="626" y="348" on="1"/>
        <pt x="659" y="327" on="0"/>
        <pt x="739" y="305" on="0"/>
        <pt x="786" y="305" on="1"/>
      </contour>
      <contour>
        <pt x="485" y="610" on="0"/>
        <pt x="492" y="554" on="0"/>
        <pt x="499" y="528" on="1"/>
        <pt x="1140" y="1172" on="1"/>
        <pt x="1108" y="1189" on="0"/>
        <pt x="1034" y="1208" on="0"/>
        <pt x="991" y="1208" on="1"/>
        <pt x="889" y="1208" on="0"/>
        <pt x="705" y="1114" on="0"/>
        <pt x="567" y="956" on="0"/>
        <pt x="485" y="752" on="0"/>
        <pt x="485" y="641" on="1"/>
      </contour>
    </TTGlyph>
    <TTGlyph name="Otilde" xMin="123" yMin="-31" xMax="3447" yMax="2959">
      <component glyphName="O" x="0" y="0" flags="0x204"/>
      <component glyphName="tilde" x="594" y="520" flags="0x4"/>
    </TTGlyph>
    <TTGlyph name="P" xMin="61" yMin="0" xMax="1538" yMax="1516">
      <contour>
        <pt x="393" y="1516" on="1"/>
        <pt x="1098" y="1516" on="1"/>
        <pt x="1202" y="1516" on="0"/>
        <pt x="1366" y="1453" on="0"/>
        <pt x="1479" y="1343" on="0"/>
        <pt x="1538" y="1194" on="0"/>
        <pt x="1538" y="1108" on="1"/>
        <pt x="1538" y="998" on="0"/>
        <pt x="1467" y="800" on="0"/>
        <pt x="1310" y="651" on="0"/>
        <pt x="1058" y="563" on="0"/>
        <pt x="877" y="563" on="1"/>
        <pt x="697" y="563" on="1"/>
        <pt x="630" y="274" on="1"/>
        <pt x="801" y="274" on="1"/>
        <pt x="737" y="0" on="1"/>
        <pt x="61" y="0" on="1"/>
        <pt x="125" y="274" on="1"/>
        <pt x="280" y="274" on="1"/>
        <pt x="504" y="1241" on="1"/>
        <pt x="330" y="1241" on="1"/>
      </contour>
      <contour>
        <pt x="855" y="1241" on="1"/>
        <pt x="760" y="834" on="1"/>
        <pt x="866" y="834" on="1"/>
        <pt x="934" y="834" on="0"/>
        <pt x="1045" y="863" on="0"/>
        <pt x="1124" y="923" on="0"/>
        <pt x="1167" y="1013" on="0"/>
        <pt x="1167" y="1075" on="1"/>
        <pt x="1167" y="1151" on="0"/>
        <pt x="1064" y="1241" on="0"/>
        <pt x="961" y="1241" on="1"/>
      </contour>
    </TTGlyph>
    <TTGlyph name="Pi" xMin="46" yMin="0" xMax="2001" yMax="1516">
      <component glyphName="uni041F" x="-15" y="0" flags="0x4"/>
    </TTGlyph>
    <TTGlyph name="Q" xMin="102" yMin="-395" xMax="1638" yMax="1544">
      <contour>
        <pt x="619" y="-23" on="1"/>
        <pt x="544" y="-12" on="0"/>
        <pt x="476" y="15" on="1"/>
        <pt x="362" y="62" on="0"/>
        <pt x="195" y="230" on="0"/>
        <pt x="102" y="465" on="0"/>
        <pt x="102" y="608" on="1"/>
        <pt x="102" y="750" on="0"/>
        <pt x="174" y="999" on="0"/>
        <pt x="301" y="1207" on="0"/>
        <pt x="474" y="1371" on="0"/>
        <pt x="677" y="1484" on="0"/>
        <pt x="900" y="1544" on="0"/>
        <pt x="1014" y="1544" on="1"/>
        <pt x="1156" y="1544" on="0"/>
        <pt x="1387" y="1450" on="0"/>
        <pt x="1550" y="1281" on="0"/>
        <pt x="1638" y="1045" on="0"/>
        <pt x="1638" y="903" on="1"/>
        <pt x="1638" y="764" on="0"/>
        <pt x="1571" y="518" on="0"/>
        <pt x="1449" y="310" on="0"/>
        <pt x="1281" y="145" on="0"/>
        <pt x="1078" y="30" on="0"/>
        <pt x="963" y="0" on="1"/>
        <pt x="922" y="-11" on="0"/>
        <pt x="881" y="-18" on="1"/>
        <pt x="950" y="-45" on="1"/>
        <pt x="1050" y="-105" on="0"/>
        <pt x="1112" y="-106" on="1"/>
        <pt x="1170" y="-106" on="0"/>
        <pt x="1260" y="-68" on="0"/>
        <pt x="1308" y="-2" on="0"/>
        <pt x="1323" y="37" on="1"/>
        <pt x="1522" y="-74" on="1"/>
        <pt x="1496" y="-147" on="0"/>
        <pt x="1403" y="-265" on="0"/>
        <pt x="1281" y="-349" on="0"/>
        <pt x="1140" y="-395" on="0"/>
        <pt x="1067" y="-395" on="1"/>
        <pt x="1029" y="-395" on="0"/>
        <pt x="959" y="-374" on="0"/>
        <pt x="891" y="-342" on="0"/>
        <pt x="825" y="-305" on="0"/>
        <pt x="757" y="-273" on="0"/>
        <pt x="685" y="-252" on="0"/>
        <pt x="647" y="-252" on="1"/>
        <pt x="622" y="-252" on="0"/>
        <pt x="586" y="-256" on="0"/>
        <pt x="561" y="-264" on="1"/>
      </contour>
      <contour>
        <pt x="766" y="305" on="1"/>
        <pt x="833" y="305" on="0"/>
        <pt x="960" y="348" on="0"/>
        <pt x="1073" y="424" on="0"/>
        <pt x="1166" y="530" on="0"/>
        <pt x="1234" y="656" on="0"/>
        <pt x="1272" y="798" on="0"/>
        <pt x="1272" y="872" on="1"/>
        <pt x="1272" y="947" on="0"/>
        <pt x="1230" y="1070" on="0"/>
        <pt x="1152" y="1159" on="0"/>
        <pt x="1041" y="1208" on="0"/>
        <pt x="971" y="1208" on="1"/>
        <pt x="903" y="1208" on="0"/>
        <pt x="775" y="1165" on="0"/>
        <pt x="662" y="1088" on="0"/>
        <pt x="569" y="982" on="0"/>
        <pt x="502" y="856" on="0"/>
        <pt x="465" y="715" on="0"/>
        <pt x="465" y="641" on="1"/>
        <pt x="465" y="566" on="0"/>
        <pt x="507" y="443" on="0"/>
        <pt x="586" y="354" on="0"/>
        <pt x="697" y="305" on="0"/>
      </contour>
    </TTGlyph>
    <TTGlyph name="R" xMin="61" yMin="0" xMax="1565" yMax="1516">
      <contour>
        <pt x="373" y="1516" on="1"/>
        <pt x="1180" y="1516" on="1"/>
        <pt x="1280" y="1516" on="0"/>
        <pt x="1426" y="1448" on="0"/>
        <pt x="1520" y="1339" on="0"/>
        <pt x="1565" y="1200" on="0"/>
        <pt x="1565" y="1128" on="1"/>
        <pt x="1565" y="1030" on="0"/>
        <pt x="1509" y="876" on="0"/>
        <pt x="1391" y="756" on="0"/>
        <pt x="1277" y="700" on="0"/>
        <pt x="1253" y="689" on="1"/>
        <pt x="1263" y="680" on="0"/>
        <pt x="1297" y="639" on="0"/>
        <pt x="1325" y="552" on="0"/>
        <pt x="1327" y="492" on="1"/>
        <pt x="1333" y="274" on="1"/>
        <pt x="1477" y="274" on="1"/>
        <pt x="1413" y="0" on="1"/>
        <pt x="963" y="0" on="1"/>
        <pt x="987" y="360" on="1"/>
        <pt x="991" y="424" on="0"/>
        <pt x="974" y="517" on="0"/>
        <pt x="925" y="576" on="0"/>
        <pt x="843" y="604" on="0"/>
        <pt x="782" y="604" on="1"/>
        <pt x="686" y="604" on="1"/>
        <pt x="609" y="274" on="1"/>
        <pt x="737" y="274" on="1"/>
        <pt x="674" y="0" on="1"/>
        <pt x="61" y="0" on="1"/>
        <pt x="125" y="274" on="1"/>
        <pt x="259" y="274" on="1"/>
        <pt x="484" y="1241" on="1"/>
        <pt x="309" y="1241" on="1"/>
      </contour>
      <contour>
        <pt x="834" y="1241" on="1"/>
        <pt x="748" y="874" on="1"/>
        <pt x="938" y="874" on="1"/>
        <pt x="1000" y="874" on="0"/>
        <pt x="1101" y="899" on="0"/>
        <pt x="1173" y="951" on="0"/>
        <pt x="1212" y="1031" on="0"/>
        <pt x="1212" y="1085" on="1"/>
        <pt x="1212" y="1156" on="0"/>
        <pt x="1129" y="1241" on="0"/>
        <pt x="1032" y="1241" on="1"/>
      </contour>
    </TTGlyph>
    <TTGlyph name="Racute" xMin="61" yMin="0" xMax="10373" yMax="5756">
      <component glyphName="R" x="0" y="0" flags="0x204"/>
      <component glyphName="acute" x="801" y="479" flags="0x4"/>
    </TTGlyph>
    <TTGlyph name="Rcaron" xMin="61" yMin="0" xMax="4445" yMax="3819">
      <component glyphName="R" x="0" y="0" flags="0x204"/>
      <component glyphName="caron" x="526" y="479" flags="0x4"/>
    </TTGlyph>
    <TTGlyph name="Rcommaaccent" xMin="61" yMin="-471" xMax="4120" yMax="1516">
      <component glyphName="R" x="0" y="0" flags="0x204"/>
      <component glyphName="commabelow" x="514" y="0" flags="0x4"/>
    </TTGlyph>
    <TTGlyph name="S" xMin="20" yMin="-25" xMax="1444" yMax="1542">
      <contour>
        <pt x="80" y="532" on="1"/>
        <pt x="444" y="532" on="1"/>
        <pt x="417" y="431" on="0"/>
        <pt x="433" y="347" on="0"/>
        <pt x="484" y="291" on="0"/>
        <pt x="571" y="260" on="0"/>
        <pt x="633" y="260" on="1"/>
        <pt x="689" y="260" on="0"/>
        <pt x="778" y="290" on="0"/>
        <pt x="841" y="343" on="0"/>
        <pt x="874" y="416" on="0"/>
        <pt x="874" y="459" on="1"/>
        <pt x="874" y="492" on="0"/>
        <pt x="846" y="540" on="0"/>
        <pt x="799" y="575" on="0"/>
        <pt x="737" y="601" on="0"/>
        <pt x="702" y="612" on="1"/>
        <pt x="530" y="672" on="1"/>
        <pt x="470" y="692" on="0"/>
        <pt x="371" y="763" on="0"/>
        <pt x="300" y="859" on="0"/>
        <pt x="260" y="980" on="0"/>
        <pt x="260" y="1049" on="1"/>
        <pt x="260" y="1172" on="0"/>
        <pt x="352" y="1357" on="0"/>
        <pt x="517" y="1480" on="0"/>
        <pt x="746" y="1542" on="0"/>
        <pt x="883" y="1542" on="1"/>
        <pt x="982" y="1542" on="0"/>
        <pt x="1144" y="1496" on="0"/>
        <pt x="1261" y="1419" on="0"/>
        <pt x="1322" y="1324" on="0"/>
        <pt x="1329" y="1276" on="1"/>
        <pt x="1444" y="1276" on="1"/>
        <pt x="1384" y="1020" on="1"/>
        <pt x="1022" y="1020" on="1"/>
        <pt x="1043" y="1113" on="0"/>
        <pt x="1025" y="1185" on="0"/>
        <pt x="973" y="1237" on="0"/>
        <pt x="894" y="1264" on="0"/>
        <pt x="846" y="1264" on="1"/>
        <pt x="797" y="1264" on="0"/>
        <pt x="709" y="1245" on="0"/>
        <pt x="643" y="1204" on="0"/>
        <pt x="604" y="1140" on="0"/>
        <pt x="604" y="1096" on="1"/>
        <pt x="604" y="1057" on="0"/>
        <pt x="637" y="1008" on="0"/>
        <pt x="710" y="971" on="0"/>
        <pt x="782" y="944" on="1"/>
        <pt x="989" y="868" on="1"/>
        <pt x="1117" y="822" on="0"/>
        <pt x="1235" y="636" on="0"/>
        <pt x="1235" y="502" on="1"/>
        <pt x="1235" y="378" on="0"/>
        <pt x="1138" y="183" on="0"/>
        <pt x="966" y="47" on="0"/>
        <pt x="727" y="-25" on="0"/>
        <pt x="586" y="-25" on="1"/>
        <pt x="481" y="-25" on="0"/>
        <pt x="308" y="27" on="0"/>
        <pt x="188" y="122" on="0"/>
        <pt x="138" y="230" on="0"/>
        <pt x="132" y="276" on="1"/>
        <pt x="20" y="276" on="1"/>
      </contour>
    </TTGlyph>
    <TTGlyph name="Sacute" xMin="20" yMin="-25" xMax="11658" yMax="6235">
      <component glyphName="S" x="0" y="0" flags="0x204"/>
      <component glyphName="acute" x="650" y="479" flags="0x4"/>
    </TTGlyph>
    <TTGlyph name="Scaron" xMin="20" yMin="-25" xMax="5145" yMax="4298">
      <component glyphName="S" x="0" y="0" flags="0x204"/>
      <component glyphName="caron" x="390" y="479" flags="0x4"/>
    </TTGlyph>
    <TTGlyph name="Scedilla" xMin="20" yMin="-453" xMax="1444" yMax="1542">
      <component glyphName="S" x="0" y="0" flags="0x204"/>
      <component glyphName="cedilla" x="156" y="0" flags="0x4"/>
    </TTGlyph>
    <TTGlyph name="Scommaaccent" xMin="20" yMin="-471" xMax="4630" yMax="1542">
      <component glyphName="S" x="0" y="0" flags="0x204"/>
      <component glyphName="commabelow" x="350" y="0" flags="0x4"/>
    </TTGlyph>
    <TTGlyph name="T" xMin="143" yMin="0" xMax="1675" yMax="1516">
      <contour>
        <pt x="342" y="274" on="1"/>
        <pt x="499" y="274" on="1"/>
        <pt x="724" y="1241" on="1"/>
        <pt x="530" y="1241" on="1"/>
        <pt x="487" y="1055" on="1"/>
        <pt x="143" y="1055" on="1"/>
        <pt x="250" y="1516" on="1"/>
        <pt x="1675" y="1516" on="1"/>
        <pt x="1569" y="1055" on="1"/>
        <pt x="1225" y="1055" on="1"/>
        <pt x="1268" y="1241" on="1"/>
        <pt x="1074" y="1241" on="1"/>
        <pt x="849" y="274" on="1"/>
        <pt x="1018" y="274" on="1"/>
        <pt x="954" y="0" on="1"/>
        <pt x="279" y="0" on="1"/>
      </contour>
    </TTGlyph>
    <TTGlyph name="Tcaron" xMin="143" yMin="0" xMax="5773" yMax="4777">
      <component glyphName="T" x="0" y="0" flags="0x204"/>
      <component glyphName="caron" x="463" y="479" flags="0x4"/>
    </TTGlyph>
    <TTGlyph name="Tcommaaccent" xMin="143" yMin="-471" xMax="5194" yMax="1516">
      <component glyphName="T" x="0" y="0" flags="0x204"/>
      <component glyphName="commabelow" x="334" y="0" flags="0x4"/>
    </TTGlyph>
    <TTGlyph name="Thorn" xMin="61" yMin="0" xMax="1473" yMax="1516">
      <contour>
        <pt x="393" y="1516" on="1"/>
        <pt x="918" y="1516" on="1"/>
        <pt x="881" y="1358" on="1"/>
        <pt x="881" y="1358" on="1"/>
        <pt x="845" y="1200" on="1"/>
        <pt x="1030" y="1200" on="1"/>
        <pt x="1134" y="1200" on="0"/>
        <pt x="1298" y="1141" on="0"/>
        <pt x="1412" y="1036" on="0"/>
        <pt x="1473" y="893" on="0"/>
        <pt x="1473" y="809" on="1"/>
        <pt x="1473" y="723" on="0"/>
        <pt x="1408" y="567" on="0"/>
        <pt x="1279" y="441" on="0"/>
        <pt x="1087" y="355" on="0"/>
        <pt x="960" y="340" on="1"/>
        <pt x="928" y="336" on="0"/>
        <pt x="861" y="332" on="0"/>
        <pt x="835" y="332" on="1"/>
        <pt x="644" y="332" on="1"/>
        <pt x="567" y="0" on="1"/>
        <pt x="61" y="0" on="1"/>
        <pt x="125" y="274" on="1"/>
        <pt x="280" y="274" on="1"/>
        <pt x="503" y="1241" on="1"/>
        <pt x="330" y="1241" on="1"/>
      </contour>
      <contour>
        <pt x="781" y="926" on="1"/>
        <pt x="706" y="602" on="1"/>
        <pt x="834" y="602" on="1"/>
        <pt x="856" y="602" on="0"/>
        <pt x="896" y="605" on="0"/>
        <pt x="915" y="607" on="1"/>
        <pt x="961" y="613" on="0"/>
        <pt x="1032" y="642" on="0"/>
        <pt x="1081" y="688" on="0"/>
        <pt x="1106" y="750" on="0"/>
        <pt x="1106" y="791" on="1"/>
        <pt x="1106" y="853" on="0"/>
        <pt x="1009" y="926" on="0"/>
        <pt x="903" y="926" on="1"/>
      </contour>
    </TTGlyph>
    <TTGlyph name="U" xMin="200" yMin="-31" xMax="1759" yMax="1516">
      <contour>
        <pt x="281" y="1516" on="1"/>
        <pt x="893" y="1516" on="1"/>
        <pt x="829" y="1241" on="1"/>
        <pt x="713" y="1241" on="1"/>
        <pt x="567" y="612" on="1"/>
        <pt x="546" y="512" on="0"/>
        <pt x="564" y="401" on="0"/>
        <pt x="624" y="321" on="0"/>
        <pt x="712" y="285" on="0"/>
        <pt x="772" y="285" on="1"/>
        <pt x="830" y="285" on="0"/>
        <pt x="923" y="318" on="0"/>
        <pt x="997" y="395" on="0"/>
        <pt x="1054" y="520" on="0"/>
        <pt x="1075" y="612" on="1"/>
        <pt x="1220" y="1241" on="1"/>
        <pt x="1083" y="1241" on="1"/>
        <pt x="1147" y="1516" on="1"/>
        <pt x="1759" y="1516" on="1"/>
        <pt x="1696" y="1241" on="1"/>
        <pt x="1566" y="1241" on="1"/>
        <pt x="1411" y="567" on="1"/>
        <pt x="1375" y="409" on="0"/>
        <pt x="1253" y="182" on="0"/>
        <pt x="1081" y="37" on="0"/>
        <pt x="858" y="-31" on="0"/>
        <pt x="721" y="-31" on="1"/>
        <pt x="608" y="-31" on="0"/>
        <pt x="419" y="36" on="0"/>
        <pt x="282" y="157" on="0"/>
        <pt x="211" y="328" on="0"/>
        <pt x="200" y="520" on="0"/>
        <pt x="225" y="633" on="1"/>
        <pt x="367" y="1241" on="1"/>
        <pt x="217" y="1241" on="1"/>
      </contour>
    </TTGlyph>
    <TTGlyph name="Uacute" xMin="200" yMin="-31" xMax="12911" yMax="6715">
      <component glyphName="U" x="0" y="0" flags="0x204"/>
      <component glyphName="acute" x="823" y="480" flags="0x4"/>
    </TTGlyph>
    <TTGlyph name="Ucircumflex" xMin="200" yMin="-31" xMax="4155" yMax="3943">
      <component glyphName="U" x="0" y="0" flags="0x204"/>
      <component glyphName="circumflex" x="524" y="480" flags="0x4"/>
    </TTGlyph>
    <TTGlyph name="Udieresis" xMin="200" yMin="-31" xMax="4010" yMax="3474">
      <component glyphName="U" x="0" y="0" flags="0x204"/>
      <component glyphName="dieresis" x="510" y="478" flags="0x4"/>
    </TTGlyph>
    <TTGlyph name="Ugrave" xMin="200" yMin="-31" xMax="3552" yMax="3929">
      <component glyphName="U" x="0" y="0" flags="0x204"/>
      <component glyphName="grave" x="518" y="480" flags="0x4"/>
    </TTGlyph>
    <TTGlyph name="Uhungarumlaut" xMin="200" yMin="-31" xMax="2898" yMax="2534">
      <component glyphName="U" x="0" y="0" flags="0x204"/>
      <component glyphName="hungarumlaut" x="770" y="486" flags="0x4"/>
    </TTGlyph>
    <TTGlyph name="Umacron" xMin="200" yMin="-31" xMax="4648" yMax="3831">
      <component glyphName="U" x="0" y="0" flags="0x204"/>
      <component glyphName="macron" x="596" y="480" flags="0x4"/>
    </TTGlyph>
    <TTGlyph name="Uogonek" xMin="205" yMin="-471" xMax="1759" yMax="1516">
      <contour>
        <pt x="1147" y="1516" on="1"/>
        <pt x="1759" y="1516" on="1"/>
        <pt x="1696" y="1241" on="1"/>
        <pt x="1565" y="1241" on="1"/>
        <pt x="1411" y="567" on="1"/>
        <pt x="1380" y="436" on="0"/>
        <pt x="1300" y="254" on="0"/>
        <pt x="1190" y="123" on="0"/>
        <pt x="1044" y="31" on="0"/>
        <pt x="950" y="-8" on="1"/>
        <pt x="913" y="-25" on="0"/>
        <pt x="819" y="-68" on="0"/>
        <pt x="735" y="-119" on="0"/>
        <pt x="680" y="-182" on="0"/>
        <pt x="680" y="-215" on="1"/>
        <pt x="680" y="-254" on="0"/>
        <pt x="729" y="-283" on="0"/>
        <pt x="752" y="-283" on="1"/>
        <pt x="791" y="-283" on="0"/>
        <pt x="844" y="-270" on="0"/>
        <pt x="864" y="-260" on="1"/>
        <pt x="913" y="-430" on="1"/>
        <pt x="891" y="-442" on="0"/>
        <pt x="788" y="-471" on="0"/>
        <pt x="735" y="-471" on="1"/>
        <pt x="674" y="-471" on="0"/>
        <pt x="569" y="-442" on="0"/>
        <pt x="489" y="-389" on="0"/>
        <pt x="444" y="-311" on="0"/>
        <pt x="444" y="-260" on="1"/>
        <pt x="444" y="-182" on="0"/>
        <pt x="530" y="-63" on="0"/>
        <pt x="596" y="-18" on="1"/>
        <pt x="508" y="-2" on="0"/>
        <pt x="365" y="76" on="0"/>
        <pt x="262" y="197" on="0"/>
        <pt x="205" y="356" on="0"/>
        <pt x="205" y="453" on="1"/>
        <pt x="205" y="494" on="0"/>
        <pt x="215" y="584" on="0"/>
        <pt x="225" y="633" on="1"/>
        <pt x="367" y="1241" on="1"/>
        <pt x="217" y="1241" on="1"/>
        <pt x="281" y="1516" on="1"/>
        <pt x="893" y="1516" on="1"/>
        <pt x="829" y="1241" on="1"/>
        <pt x="713" y="1241" on="1"/>
        <pt x="567" y="612" on="1"/>
        <pt x="561" y="584" on="0"/>
        <pt x="555" y="532" on="0"/>
        <pt x="555" y="506" on="1"/>
        <pt x="555" y="463" on="0"/>
        <pt x="578" y="383" on="0"/>
        <pt x="629" y="322" on="0"/>
        <pt x="713" y="285" on="0"/>
        <pt x="772" y="285" on="1"/>
        <pt x="829" y="285" on="0"/>
        <pt x="924" y="317" on="0"/>
        <pt x="997" y="395" on="0"/>
        <pt x="1053" y="520" on="0"/>
        <pt x="1075" y="612" on="1"/>
        <pt x="1221" y="1241" on="1"/>
        <pt x="1083" y="1241" on="1"/>
      </contour>
    </TTGlyph>
    <TTGlyph name="Uring" xMin="205" yMin="-31" xMax="1759" yMax="2025">
      <contour>
        <pt x="281" y="1516" on="1"/>
        <pt x="776" y="1516" on="1"/>
        <pt x="713" y="1241" on="1"/>
        <pt x="567" y="612" on="1"/>
        <pt x="555" y="556" on="0"/>
        <pt x="555" y="506" on="1"/>
        <pt x="555" y="462" on="0"/>
        <pt x="578" y="382" on="0"/>
        <pt x="629" y="321" on="0"/>
        <pt x="712" y="285" on="0"/>
        <pt x="772" y="285" on="1"/>
        <pt x="830" y="285" on="0"/>
        <pt x="923" y="318" on="0"/>
        <pt x="997" y="395" on="0"/>
        <pt x="1054" y="520" on="0"/>
        <pt x="1075" y="612" on="1"/>
        <pt x="1282" y="1516" on="1"/>
        <pt x="1759" y="1516" on="1"/>
        <pt x="1696" y="1241" on="1"/>
        <pt x="1565" y="1241" on="1"/>
        <pt x="1411" y="567" on="1"/>
        <pt x="1375" y="409" on="0"/>
        <pt x="1253" y="182" on="0"/>
        <pt x="1081" y="37" on="0"/>
        <pt x="858" y="-31" on="0"/>
        <pt x="721" y="-31" on="1"/>
        <pt x="608" y="-31" on="0"/>
        <pt x="419" y="36" on="0"/>
        <pt x="282" y="161" on="0"/>
        <pt x="205" y="340" on="0"/>
        <pt x="205" y="453" on="1"/>
        <pt x="205" y="493" on="0"/>
        <pt x="214" y="583" on="0"/>
        <pt x="225" y="633" on="1"/>
        <pt x="367" y="1241" on="1"/>
        <pt x="217" y="1241" on="1"/>
      </contour>
      <contour>
        <pt x="911" y="1726" on="1"/>
        <pt x="911" y="1700" on="0"/>
        <pt x="930" y="1656" on="0"/>
        <pt x="963" y="1623" on="0"/>
        <pt x="1008" y="1604" on="0"/>
        <pt x="1034" y="1604" on="1"/>
        <pt x="1060" y="1604" on="0"/>
        <pt x="1105" y="1623" on="0"/>
        <pt x="1138" y="1656" on="0"/>
        <pt x="1157" y="1700" on="0"/>
        <pt x="1157" y="1726" on="1"/>
        <pt x="1157" y="1752" on="0"/>
        <pt x="1138" y="1797" on="0"/>
        <pt x="1105" y="1830" on="0"/>
        <pt x="1060" y="1849" on="0"/>
        <pt x="1034" y="1849" on="1"/>
        <pt x="1008" y="1849" on="0"/>
        <pt x="963" y="1830" on="0"/>
        <pt x="930" y="1797" on="0"/>
        <pt x="911" y="1752" on="0"/>
      </contour>
      <contour>
        <pt x="1034" y="2025" on="1"/>
        <pt x="1095" y="2025" on="0"/>
        <pt x="1204" y="1978" on="0"/>
        <pt x="1286" y="1896" on="0"/>
        <pt x="1333" y="1787" on="0"/>
        <pt x="1333" y="1726" on="1"/>
        <pt x="1333" y="1665" on="0"/>
        <pt x="1286" y="1556" on="0"/>
        <pt x="1204" y="1475" on="0"/>
        <pt x="1095" y="1427" on="0"/>
        <pt x="1034" y="1427" on="1"/>
        <pt x="972" y="1427" on="0"/>
        <pt x="864" y="1475" on="0"/>
        <pt x="782" y="1556" on="0"/>
        <pt x="735" y="1665" on="0"/>
        <pt x="735" y="1726" on="1"/>
        <pt x="735" y="1787" on="0"/>
        <pt x="782" y="1896" on="0"/>
        <pt x="864" y="1978" on="0"/>
        <pt x="972" y="2025" on="0"/>
      </contour>
    </TTGlyph>
    <TTGlyph name="V" xMin="164" yMin="0" xMax="1726" yMax="1516">
      <contour>
        <pt x="1114" y="1516" on="1"/>
        <pt x="1726" y="1516" on="1"/>
        <pt x="1663" y="1241" on="1"/>
        <pt x="1543" y="1241" on="1"/>
        <pt x="834" y="0" on="1"/>
        <pt x="426" y="0" on="1"/>
        <pt x="319" y="1241" on="1"/>
        <pt x="164" y="1241" on="1"/>
        <pt x="227" y="1516" on="1"/>
        <pt x="840" y="1516" on="1"/>
        <pt x="776" y="1241" on="1"/>
        <pt x="663" y="1241" on="1"/>
        <pt x="725" y="457" on="1"/>
        <pt x="1168" y="1241" on="1"/>
        <pt x="1051" y="1241" on="1"/>
      </contour>
    </TTGlyph>
    <TTGlyph name="W" xMin="158" yMin="0" xMax="2527" yMax="1516">
      <contour>
        <pt x="1915" y="1516" on="1"/>
        <pt x="2527" y="1516" on="1"/>
        <pt x="2464" y="1241" on="1"/>
        <pt x="2345" y="1241" on="1"/>
        <pt x="1696" y="0" on="1"/>
        <pt x="1286" y="0" on="1"/>
        <pt x="1278" y="975" on="1"/>
        <pt x="801" y="0" on="1"/>
        <pt x="391" y="0" on="1"/>
        <pt x="322" y="1241" on="1"/>
        <pt x="158" y="1241" on="1"/>
        <pt x="221" y="1516" on="1"/>
        <pt x="834" y="1516" on="1"/>
        <pt x="770" y="1241" on="1"/>
        <pt x="645" y="1241" on="1"/>
        <pt x="684" y="412" on="1"/>
        <pt x="1214" y="1516" on="1"/>
        <pt x="1575" y="1516" on="1"/>
        <pt x="1591" y="416" on="1"/>
        <pt x="2008" y="1241" on="1"/>
        <pt x="1851" y="1241" on="1"/>
      </contour>
    </TTGlyph>
    <TTGlyph name="X" xMin="-41" yMin="0" xMax="1884" yMax="1516">
      <contour>
        <pt x="1208" y="1516" on="1"/>
        <pt x="1884" y="1516" on="1"/>
        <pt x="1821" y="1241" on="1"/>
        <pt x="1696" y="1241" on="1"/>
        <pt x="1138" y="750" on="1"/>
        <pt x="1450" y="274" on="1"/>
        <pt x="1620" y="274" on="1"/>
        <pt x="1556" y="0" on="1"/>
        <pt x="881" y="0" on="1"/>
        <pt x="944" y="274" on="1"/>
        <pt x="1062" y="274" on="1"/>
        <pt x="892" y="534" on="1"/>
        <pt x="597" y="274" on="1"/>
        <pt x="698" y="274" on="1"/>
        <pt x="635" y="0" on="1"/>
        <pt x="-41" y="0" on="1"/>
        <pt x="23" y="274" on="1"/>
        <pt x="144" y="274" on="1"/>
        <pt x="728" y="786" on="1"/>
        <pt x="431" y="1241" on="1"/>
        <pt x="258" y="1241" on="1"/>
        <pt x="322" y="1516" on="1"/>
        <pt x="997" y="1516" on="1"/>
        <pt x="934" y="1241" on="1"/>
        <pt x="817" y="1241" on="1"/>
        <pt x="973" y="1002" on="1"/>
        <pt x="1245" y="1241" on="1"/>
        <pt x="1145" y="1241" on="1"/>
      </contour>
    </TTGlyph>
    <TTGlyph name="Y" xMin="184" yMin="0" xMax="1700" yMax="1516">
      <contour>
        <pt x="248" y="1516" on="1"/>
        <pt x="860" y="1516" on="1"/>
        <pt x="797" y="1241" on="1"/>
        <pt x="692" y="1241" on="1"/>
        <pt x="825" y="913" on="1"/>
        <pt x="850" y="939" on="1"/>
        <pt x="1112" y="1241" on="1"/>
        <pt x="1024" y="1241" on="1"/>
        <pt x="1087" y="1516" on="1"/>
        <pt x="1700" y="1516" on="1"/>
        <pt x="1636" y="1241" on="1"/>
        <pt x="1535" y="1241" on="1"/>
        <pt x="941" y="615" on="1"/>
        <pt x="862" y="274" on="1"/>
        <pt x="1032" y="274" on="1"/>
        <pt x="969" y="0" on="1"/>
        <pt x="293" y="0" on="1"/>
        <pt x="356" y="274" on="1"/>
        <pt x="516" y="274" on="1"/>
        <pt x="598" y="635" on="1"/>
        <pt x="318" y="1241" on="1"/>
        <pt x="184" y="1241" on="1"/>
      </contour>
    </TTGlyph>
    <TTGlyph name="Yacute" xMin="184" yMin="0" xMax="14211" yMax="7195">
      <component glyphName="Y" x="0" y="0" flags="0x204"/>
      <component glyphName="acute" x="776" y="480" flags="0x4"/>
    </TTGlyph>
    <TTGlyph name="Ydieresis" xMin="184" yMin="0" xMax="4773" yMax="3952">
      <component glyphName="Y" x="0" y="0" flags="0x204"/>
      <component glyphName="dieresis" x="463" y="478" flags="0x4"/>
    </TTGlyph>
    <TTGlyph name="Z" xMin="20" yMin="0" xMax="1527" yMax="1516">
      <contour>
        <pt x="1455" y="1202" on="1"/>
        <pt x="481" y="274" on="1"/>
        <pt x="911" y="274" on="1"/>
        <pt x="970" y="532" on="1"/>
        <pt x="1318" y="532" on="1"/>
        <pt x="1195" y="0" on="1"/>
        <pt x="20" y="0" on="1"/>
        <pt x="91" y="313" on="1"/>
        <pt x="1047" y="1241" on="1"/>
        <pt x="642" y="1241" on="1"/>
        <pt x="583" y="979" on="1"/>
        <pt x="239" y="979" on="1"/>
        <pt x="364" y="1516" on="1"/>
        <pt x="1527" y="1516" on="1"/>
      </contour>
    </TTGlyph>
    <TTGlyph name="Zacute" xMin="20" yMin="0" xMax="15424" yMax="7705">
      <component glyphName="Z" x="0" y="0" flags="0x204"/>
      <component glyphName="acute" x="713" y="479" flags="0x4"/>
    </TTGlyph>
    <TTGlyph name="Zcaron" xMin="20" yMin="0" xMax="6211" yMax="5256">
      <component glyphName="Z" x="0" y="0" flags="0x204"/>
      <component glyphName="caron" x="438" y="479" flags="0x4"/>
    </TTGlyph>
    <TTGlyph name="Zdotaccent" xMin="20" yMin="0" xMax="2385" yMax="2507">
      <component glyphName="Z" x="0" y="0" flags="0x204"/>
      <component glyphName="dotaccent" x="670" y="479" flags="0x4"/>
    </TTGlyph>
    <TTGlyph name="a" xMin="102" yMin="-16" xMax="1362" yMax="1061">
      <contour>
        <pt x="786" y="79" on="1"/>
        <pt x="749" y="40" on="0"/>
        <pt x="688" y="13" on="1"/>
        <pt x="623" y="-16" on="0"/>
        <pt x="535" y="-16" on="1"/>
        <pt x="454" y="-16" on="0"/>
        <pt x="298" y="42" on="0"/>
        <pt x="177" y="157" on="0"/>
        <pt x="102" y="327" on="0"/>
        <pt x="102" y="438" on="1"/>
        <pt x="102" y="534" on="0"/>
        <pt x="152" y="701" on="0"/>
        <pt x="240" y="840" on="0"/>
        <pt x="361" y="948" on="0"/>
        <pt x="504" y="1022" on="0"/>
        <pt x="663" y="1061" on="0"/>
        <pt x="745" y="1061" on="1"/>
        <pt x="791" y="1061" on="0"/>
        <pt x="856" y="1049" on="0"/>
        <pt x="940" y="1025" on="0"/>
        <pt x="996" y="985" on="1"/>
        <pt x="1008" y="1036" on="1"/>
        <pt x="1348" y="1036" on="1"/>
        <pt x="1171" y="274" on="1"/>
        <pt x="1362" y="274" on="1"/>
        <pt x="1298" y="0" on="1"/>
        <pt x="768" y="0" on="1"/>
      </contour>
      <contour>
        <pt x="823" y="372" on="1"/>
        <pt x="867" y="427" on="1"/>
        <pt x="917" y="643" on="1"/>
        <pt x="905" y="666" on="0"/>
        <pt x="867" y="709" on="0"/>
        <pt x="810" y="741" on="0"/>
        <pt x="743" y="758" on="0"/>
        <pt x="709" y="758" on="1"/>
        <pt x="655" y="758" on="0"/>
        <pt x="557" y="715" on="0"/>
        <pt x="484" y="642" on="0"/>
        <pt x="440" y="542" on="0"/>
        <pt x="440" y="485" on="1"/>
        <pt x="440" y="437" on="0"/>
        <pt x="470" y="365" on="0"/>
        <pt x="522" y="317" on="0"/>
        <pt x="590" y="293" on="0"/>
        <pt x="629" y="293" on="1"/>
        <pt x="662" y="293" on="0"/>
        <pt x="731" y="310" on="0"/>
        <pt x="795" y="345" on="0"/>
      </contour>
    </TTGlyph>
    <TTGlyph name="aacute" xMin="102" yMin="-16" xMax="1917" yMax="1969">
      <component glyphName="a" x="0" y="0" flags="0x204"/>
      <component glyphName="acute" x="557" y="0" flags="0x4"/>
    </TTGlyph>
    <TTGlyph name="abreve" xMin="102" yMin="-16" xMax="1717" yMax="1961">
      <component glyphName="a" x="0" y="0" flags="0x204"/>
      <component glyphName="breve" x="280" y="0" flags="0x4"/>
    </TTGlyph>
    <TTGlyph name="acircumflex" xMin="102" yMin="-16" xMax="1662" yMax="1983">
      <component glyphName="a" x="0" y="0" flags="0x204"/>
      <component glyphName="circumflex" x="290" y="0" flags="0x4"/>
    </TTGlyph>
    <TTGlyph name="acute" xMin="41" yMin="1178" xMax="582" yMax="1489">
      <contour>
        <pt x="256" y="1489" on="1"/>
        <pt x="582" y="1489" on="1"/>
        <pt x="582" y="1464" on="1"/>
        <pt x="276" y="1178" on="1"/>
        <pt x="41" y="1178" on="1"/>
      </contour>
    </TTGlyph>
    <TTGlyph name="adieresis" xMin="102" yMin="-16" xMax="1736" yMax="2000">
      <component glyphName="a" x="0" y="0" flags="0x204"/>
      <component glyphName="dieresis" x="280" y="0" flags="0x4"/>
    </TTGlyph>
    <TTGlyph name="ae" xMin="41" yMin="-27" xMax="1829" yMax="1067">
      <contour>
        <pt x="530" y="637" on="1"/>
        <pt x="599" y="637" on="0"/>
        <pt x="708" y="624" on="0"/>
        <pt x="755" y="613" on="1"/>
        <pt x="762" y="643" on="1"/>
        <pt x="771" y="682" on="0"/>
        <pt x="756" y="739" on="0"/>
        <pt x="713" y="776" on="0"/>
        <pt x="643" y="793" on="0"/>
        <pt x="598" y="793" on="1"/>
        <pt x="551" y="793" on="0"/>
        <pt x="468" y="784" on="0"/>
        <pt x="390" y="766" on="0"/>
        <pt x="316" y="739" on="0"/>
        <pt x="279" y="721" on="1"/>
        <pt x="227" y="915" on="1"/>
        <pt x="281" y="949" on="0"/>
        <pt x="392" y="1003" on="0"/>
        <pt x="506" y="1040" on="0"/>
        <pt x="623" y="1059" on="0"/>
        <pt x="684" y="1059" on="1"/>
        <pt x="784" y="1059" on="0"/>
        <pt x="946" y="1008" on="0"/>
        <pt x="999" y="954" on="1"/>
        <pt x="1078" y="1008" on="0"/>
        <pt x="1264" y="1067" on="0"/>
        <pt x="1366" y="1067" on="1"/>
        <pt x="1466" y="1067" on="0"/>
        <pt x="1636" y="996" on="0"/>
        <pt x="1760" y="877" on="0"/>
        <pt x="1829" y="721" on="0"/>
        <pt x="1829" y="637" on="1"/>
        <pt x="1829" y="617" on="0"/>
        <pt x="1825" y="567" on="0"/>
        <pt x="1817" y="514" on="0"/>
        <pt x="1805" y="462" on="0"/>
        <pt x="1798" y="440" on="1"/>
        <pt x="1059" y="440" on="1"/>
        <pt x="1061" y="415" on="0"/>
        <pt x="1072" y="371" on="0"/>
        <pt x="1083" y="351" on="1"/>
        <pt x="1094" y="331" on="0"/>
        <pt x="1126" y="300" on="0"/>
        <pt x="1168" y="278" on="0"/>
        <pt x="1221" y="266" on="0"/>
        <pt x="1253" y="266" on="1"/>
        <pt x="1293" y="266" on="0"/>
        <pt x="1361" y="282" on="0"/>
        <pt x="1421" y="311" on="0"/>
        <pt x="1476" y="351" on="0"/>
        <pt x="1503" y="375" on="1"/>
        <pt x="1722" y="182" on="1"/>
        <pt x="1672" y="128" on="0"/>
        <pt x="1555" y="50" on="0"/>
        <pt x="1424" y="-2" on="0"/>
        <pt x="1281" y="-27" on="0"/>
        <pt x="1206" y="-27" on="1"/>
        <pt x="1146" y="-27" on="0"/>
        <pt x="1035" y="-3" on="0"/>
        <pt x="936" y="43" on="0"/>
        <pt x="852" y="110" on="0"/>
        <pt x="820" y="153" on="1"/>
        <pt x="781" y="113" on="0"/>
        <pt x="693" y="48" on="0"/>
        <pt x="590" y="1" on="0"/>
        <pt x="467" y="-25" on="0"/>
        <pt x="393" y="-25" on="1"/>
        <pt x="305" y="-25" on="0"/>
        <pt x="173" y="23" on="0"/>
        <pt x="85" y="104" on="0"/>
        <pt x="41" y="210" on="0"/>
        <pt x="41" y="268" on="1"/>
        <pt x="41" y="323" on="0"/>
        <pt x="72" y="420" on="0"/>
        <pt x="131" y="502" on="0"/>
        <pt x="216" y="567" on="0"/>
        <pt x="325" y="613" on="0"/>
        <pt x="455" y="637" on="0"/>
        <pt x="530" y="637" on="1"/>
      </contour>
      <contour>
        <pt x="442" y="211" on="1"/>
        <pt x="533" y="211" on="0"/>
        <pt x="682" y="270" on="0"/>
        <pt x="745" y="318" on="1"/>
        <pt x="741" y="335" on="0"/>
        <pt x="737" y="369" on="0"/>
        <pt x="735" y="386" on="1"/>
        <pt x="733" y="405" on="0"/>
        <pt x="733" y="422" on="1"/>
        <pt x="530" y="422" on="1"/>
        <pt x="494" y="422" on="0"/>
        <pt x="423" y="414" on="0"/>
        <pt x="366" y="388" on="0"/>
        <pt x="330" y="339" on="0"/>
        <pt x="330" y="299" on="1"/>
        <pt x="330" y="261" on="0"/>
        <pt x="384" y="211" on="0"/>
        <pt x="442" y="211" on="1"/>
      </contour>
      <contour>
        <pt x="1333" y="809" on="1"/>
        <pt x="1293" y="809" on="0"/>
        <pt x="1219" y="790" on="0"/>
        <pt x="1156" y="753" on="0"/>
        <pt x="1108" y="700" on="0"/>
        <pt x="1094" y="666" on="1"/>
        <pt x="1528" y="666" on="1"/>
        <pt x="1526" y="693" on="0"/>
        <pt x="1495" y="744" on="0"/>
        <pt x="1444" y="784" on="0"/>
        <pt x="1375" y="809" on="0"/>
      </contour>
    </TTGlyph>
    <TTGlyph name="agrave" xMin="102" yMin="-16" xMax="1415" yMax="1969">
      <component glyphName="a" x="0" y="0" flags="0x204"/>
      <component glyphName="grave" x="252" y="0" flags="0x4"/>
    </TTGlyph>
    <TTGlyph name="amacron" xMin="102" yMin="-16" xMax="1674" yMax="1871">
      <component glyphName="a" x="0" y="0" flags="0x204"/>
      <component glyphName="macron" x="330" y="0" flags="0x4"/>
    </TTGlyph>
    <TTGlyph name="ampersand" xMin="41" yMin="-59" xMax="1286" yMax="1544">
      <contour>
        <pt x="1016" y="-59" on="1"/>
        <pt x="893" y="107" on="1"/>
        <pt x="804" y="45" on="0"/>
        <pt x="589" y="-25" on="0"/>
        <pt x="459" y="-25" on="1"/>
        <pt x="368" y="-25" on="0"/>
        <pt x="215" y="42" on="0"/>
        <pt x="104" y="154" on="0"/>
        <pt x="41" y="303" on="0"/>
        <pt x="41" y="385" on="1"/>
        <pt x="41" y="462" on="0"/>
        <pt x="84" y="581" on="0"/>
        <pt x="166" y="682" on="0"/>
        <pt x="284" y="771" on="0"/>
        <pt x="361" y="818" on="0"/>
        <pt x="365" y="820" on="1"/>
        <pt x="313" y="891" on="0"/>
        <pt x="276" y="1016" on="0"/>
        <pt x="276" y="1085" on="1"/>
        <pt x="276" y="1187" on="0"/>
        <pt x="346" y="1356" on="0"/>
        <pt x="472" y="1477" on="0"/>
        <pt x="649" y="1544" on="0"/>
        <pt x="756" y="1544" on="1"/>
        <pt x="840" y="1544" on="0"/>
        <pt x="982" y="1484" on="0"/>
        <pt x="1084" y="1386" on="0"/>
        <pt x="1141" y="1261" on="0"/>
        <pt x="1141" y="1196" on="1"/>
        <pt x="1141" y="1125" on="0"/>
        <pt x="1102" y="1013" on="0"/>
        <pt x="1031" y="921" on="0"/>
        <pt x="932" y="842" on="0"/>
        <pt x="872" y="805" on="1"/>
        <pt x="853" y="793" on="0"/>
        <pt x="816" y="771" on="0"/>
        <pt x="796" y="760" on="1"/>
        <pt x="929" y="591" on="1"/>
        <pt x="952" y="636" on="0"/>
        <pt x="984" y="722" on="0"/>
        <pt x="995" y="764" on="1"/>
        <pt x="1286" y="764" on="1"/>
        <pt x="1263" y="655" on="0"/>
        <pt x="1182" y="442" on="0"/>
        <pt x="1120" y="347" on="1"/>
        <pt x="1286" y="137" on="1"/>
      </contour>
      <contour>
        <pt x="358" y="408" on="1"/>
        <pt x="358" y="381" on="0"/>
        <pt x="377" y="331" on="0"/>
        <pt x="413" y="293" on="0"/>
        <pt x="466" y="270" on="0"/>
        <pt x="500" y="270" on="1"/>
        <pt x="560" y="270" on="0"/>
        <pt x="670" y="309" on="0"/>
        <pt x="719" y="342" on="1"/>
        <pt x="520" y="611" on="1"/>
        <pt x="482" y="590" on="0"/>
        <pt x="422" y="548" on="0"/>
        <pt x="380" y="500" on="0"/>
        <pt x="358" y="444" on="0"/>
      </contour>
      <contour>
        <pt x="758" y="1022" on="1"/>
        <pt x="806" y="1053" on="0"/>
        <pt x="848" y="1121" on="0"/>
        <pt x="848" y="1169" on="1"/>
        <pt x="848" y="1214" on="0"/>
        <pt x="791" y="1278" on="0"/>
        <pt x="743" y="1278" on="1"/>
        <pt x="708" y="1278" on="0"/>
        <pt x="646" y="1253" on="0"/>
        <pt x="599" y="1208" on="0"/>
        <pt x="571" y="1147" on="0"/>
        <pt x="571" y="1110" on="1"/>
        <pt x="571" y="1082" on="0"/>
        <pt x="591" y="1021" on="0"/>
        <pt x="640" y="959" on="1"/>
        <pt x="674" y="976" on="0"/>
        <pt x="734" y="1007" on="0"/>
      </contour>
    </TTGlyph>
    <TTGlyph name="aogonek" xMin="102" yMin="-473" xMax="1362" yMax="1061">
      <contour>
        <pt x="1348" y="1036" on="1"/>
        <pt x="1171" y="274" on="1"/>
        <pt x="1362" y="274" on="1"/>
        <pt x="1298" y="0" on="1"/>
        <pt x="1178" y="0" on="1"/>
        <pt x="1120" y="0" on="0"/>
        <pt x="991" y="-37" on="0"/>
        <pt x="885" y="-98" on="0"/>
        <pt x="813" y="-176" on="0"/>
        <pt x="813" y="-217" on="1"/>
        <pt x="813" y="-256" on="0"/>
        <pt x="868" y="-285" on="0"/>
        <pt x="891" y="-285" on="1"/>
        <pt x="930" y="-285" on="0"/>
        <pt x="977" y="-272" on="0"/>
        <pt x="997" y="-262" on="1"/>
        <pt x="1047" y="-432" on="1"/>
        <pt x="1024" y="-444" on="0"/>
        <pt x="922" y="-473" on="0"/>
        <pt x="868" y="-473" on="1"/>
        <pt x="807" y="-473" on="0"/>
        <pt x="702" y="-444" on="0"/>
        <pt x="623" y="-391" on="0"/>
        <pt x="578" y="-313" on="0"/>
        <pt x="578" y="-262" on="1"/>
        <pt x="578" y="-182" on="0"/>
        <pt x="686" y="-47" on="0"/>
        <pt x="768" y="0" on="1"/>
        <pt x="786" y="78" on="1"/>
        <pt x="748" y="37" on="0"/>
        <pt x="621" y="-16" on="0"/>
        <pt x="535" y="-16" on="1"/>
        <pt x="455" y="-16" on="0"/>
        <pt x="299" y="43" on="0"/>
        <pt x="176" y="158" on="0"/>
        <pt x="102" y="328" on="0"/>
        <pt x="102" y="438" on="1"/>
        <pt x="102" y="582" on="0"/>
        <pt x="211" y="813" on="0"/>
        <pt x="389" y="975" on="0"/>
        <pt x="623" y="1061" on="0"/>
        <pt x="745" y="1061" on="1"/>
        <pt x="817" y="1061" on="0"/>
        <pt x="956" y="1018" on="0"/>
        <pt x="995" y="985" on="1"/>
        <pt x="1008" y="1036" on="1"/>
      </contour>
      <contour>
        <pt x="629" y="293" on="1"/>
        <pt x="692" y="293" on="0"/>
        <pt x="823" y="356" on="0"/>
        <pt x="866" y="426" on="1"/>
        <pt x="915" y="643" on="1"/>
        <pt x="889" y="698" on="0"/>
        <pt x="774" y="758" on="0"/>
        <pt x="709" y="758" on="1"/>
        <pt x="655" y="758" on="0"/>
        <pt x="557" y="715" on="0"/>
        <pt x="483" y="641" on="0"/>
        <pt x="440" y="543" on="0"/>
        <pt x="440" y="485" on="1"/>
        <pt x="440" y="389" on="0"/>
        <pt x="551" y="293" on="0"/>
        <pt x="629" y="293" on="1"/>
      </contour>
    </TTGlyph>
    <TTGlyph name="apostrophe" xMin="-4" yMin="1051" xMax="399" yMax="1493">
      <contour>
        <pt x="111" y="1493" on="1"/>
        <pt x="399" y="1389" on="1"/>
        <pt x="203" y="1051" on="1"/>
        <pt x="-4" y="1122" on="1"/>
      </contour>
    </TTGlyph>
    <TTGlyph name="approxequal" xMin="234" yMin="529" xMax="1338" yMax="1098">
      <component glyphName="asciitilde" x="242" y="258" flags="0x4"/>
      <component glyphName="asciitilde" x="166" y="-175" flags="0x4"/>
    </TTGlyph>
    <TTGlyph name="aring" xMin="102" yMin="-16" xMax="1362" yMax="1726">
      <component glyphName="a" x="0" y="0" flags="0x204"/>
      <component glyphName="ring" x="250" y="0" flags="0x4"/>
    </TTGlyph>
    <TTGlyph name="asciicircum" xMin="102" yMin="725" xMax="1151" yMax="1516">
      <contour>
        <pt x="932" y="1516" on="1"/>
        <pt x="1151" y="725" on="1"/>
        <pt x="903" y="725" on="1"/>
        <pt x="765" y="1249" on="1"/>
        <pt x="371" y="725" on="1"/>
        <pt x="102" y="725" on="1"/>
        <pt x="702" y="1516" on="1"/>
      </contour>
    </TTGlyph>
    <TTGlyph name="asciitilde" xMin="-8" yMin="446" xMax="930" yMax="840">
      <contour>
        <pt x="-8" y="512" on="1"/>
        <pt x="-8" y="542" on="0"/>
        <pt x="2" y="614" on="0"/>
        <pt x="25" y="687" on="0"/>
        <pt x="65" y="755" on="0"/>
        <pt x="125" y="808" on="0"/>
        <pt x="209" y="840" on="0"/>
        <pt x="264" y="840" on="1"/>
        <pt x="288" y="840" on="0"/>
        <pt x="351" y="818" on="0"/>
        <pt x="421" y="786" on="0"/>
        <pt x="495" y="748" on="0"/>
        <pt x="564" y="716" on="0"/>
        <pt x="623" y="696" on="0"/>
        <pt x="645" y="696" on="1"/>
        <pt x="692" y="696" on="0"/>
        <pt x="737" y="751" on="0"/>
        <pt x="745" y="811" on="1"/>
        <pt x="930" y="770" on="1"/>
        <pt x="930" y="725" on="0"/>
        <pt x="905" y="614" on="0"/>
        <pt x="839" y="516" on="0"/>
        <pt x="725" y="446" on="0"/>
        <pt x="635" y="446" on="1"/>
        <pt x="580" y="446" on="0"/>
        <pt x="474" y="493" on="0"/>
        <pt x="377" y="546" on="0"/>
        <pt x="293" y="590" on="0"/>
        <pt x="260" y="590" on="1"/>
        <pt x="241" y="590" on="0"/>
        <pt x="207" y="579" on="0"/>
        <pt x="181" y="552" on="0"/>
        <pt x="165" y="508" on="0"/>
        <pt x="164" y="475" on="1"/>
      </contour>
    </TTGlyph>
    <TTGlyph name="asterisk" xMin="102" yMin="770" xMax="983" yMax="1616">
      <contour>
        <pt x="708" y="1368" on="1"/>
        <pt x="961" y="1444" on="1"/>
        <pt x="983" y="1188" on="1"/>
        <pt x="735" y="1114" on="1"/>
        <pt x="829" y="922" on="1"/>
        <pt x="592" y="774" on="1"/>
        <pt x="500" y="965" on="1"/>
        <pt x="315" y="770" on="1"/>
        <pt x="129" y="940" on="1"/>
        <pt x="310" y="1132" on="1"/>
        <pt x="102" y="1204" on="1"/>
        <pt x="236" y="1446" on="1"/>
        <pt x="444" y="1372" on="1"/>
        <pt x="500" y="1616" on="1"/>
        <pt x="764" y="1616" on="1"/>
      </contour>
    </TTGlyph>
    <TTGlyph name="at" xMin="123" yMin="-463" xMax="2099" yMax="1448">
      <contour>
        <pt x="1677" y="956" on="1"/>
        <pt x="1528" y="309" on="1"/>
        <pt x="1522" y="288" on="0"/>
        <pt x="1522" y="252" on="0"/>
        <pt x="1534" y="226" on="0"/>
        <pt x="1556" y="211" on="0"/>
        <pt x="1573" y="211" on="1"/>
        <pt x="1622" y="211" on="0"/>
        <pt x="1698" y="264" on="0"/>
        <pt x="1754" y="347" on="0"/>
        <pt x="1793" y="448" on="0"/>
        <pt x="1817" y="545" on="0"/>
        <pt x="1827" y="626" on="0"/>
        <pt x="1827" y="647" on="1"/>
        <pt x="1827" y="757" on="0"/>
        <pt x="1747" y="952" on="0"/>
        <pt x="1600" y="1099" on="0"/>
        <pt x="1393" y="1184" on="0"/>
        <pt x="1266" y="1184" on="1"/>
        <pt x="1149" y="1184" on="0"/>
        <pt x="929" y="1127" on="0"/>
        <pt x="736" y="1023" on="0"/>
        <pt x="577" y="877" on="0"/>
        <pt x="462" y="696" on="0"/>
        <pt x="399" y="486" on="0"/>
        <pt x="399" y="371" on="1"/>
        <pt x="399" y="242" on="0"/>
        <pt x="478" y="32" on="0"/>
        <pt x="622" y="-118" on="0"/>
        <pt x="824" y="-199" on="0"/>
        <pt x="948" y="-199" on="1"/>
        <pt x="1047" y="-199" on="0"/>
        <pt x="1258" y="-136" on="0"/>
        <pt x="1364" y="-80" on="1"/>
        <pt x="1448" y="-307" on="1"/>
        <pt x="1308" y="-382" on="0"/>
        <pt x="1041" y="-463" on="0"/>
        <pt x="907" y="-463" on="1"/>
        <pt x="793" y="-463" on="0"/>
        <pt x="589" y="-406" on="0"/>
        <pt x="415" y="-302" on="0"/>
        <pt x="275" y="-156" on="0"/>
        <pt x="176" y="24" on="0"/>
        <pt x="123" y="232" on="0"/>
        <pt x="123" y="346" on="1"/>
        <pt x="123" y="502" on="0"/>
        <pt x="205" y="786" on="0"/>
        <pt x="354" y="1031" on="0"/>
        <pt x="565" y="1230" on="0"/>
        <pt x="822" y="1371" on="0"/>
        <pt x="1119" y="1448" on="0"/>
        <pt x="1280" y="1448" on="1"/>
        <pt x="1402" y="1448" on="0"/>
        <pt x="1619" y="1391" on="0"/>
        <pt x="1801" y="1289" on="0"/>
        <pt x="1945" y="1148" on="0"/>
        <pt x="2046" y="977" on="0"/>
        <pt x="2099" y="783" on="0"/>
        <pt x="2099" y="680" on="1"/>
        <pt x="2099" y="586" on="0"/>
        <pt x="2061" y="410" on="0"/>
        <pt x="1990" y="255" on="0"/>
        <pt x="1886" y="126" on="0"/>
        <pt x="1755" y="33" on="0"/>
        <pt x="1598" y="-18" on="0"/>
        <pt x="1509" y="-18" on="1"/>
        <pt x="1428" y="-18" on="0"/>
        <pt x="1311" y="39" on="0"/>
        <pt x="1278" y="92" on="1"/>
        <pt x="1214" y="39" on="0"/>
        <pt x="1061" y="-16" on="0"/>
        <pt x="981" y="-16" on="1"/>
        <pt x="886" y="-16" on="0"/>
        <pt x="734" y="50" on="0"/>
        <pt x="627" y="162" on="0"/>
        <pt x="569" y="310" on="0"/>
        <pt x="569" y="393" on="1"/>
        <pt x="569" y="486" on="0"/>
        <pt x="619" y="643" on="0"/>
        <pt x="705" y="771" on="0"/>
        <pt x="819" y="869" on="0"/>
        <pt x="949" y="935" on="0"/>
        <pt x="1087" y="969" on="0"/>
        <pt x="1153" y="969" on="1"/>
        <pt x="1227" y="969" on="0"/>
        <pt x="1334" y="933" on="0"/>
        <pt x="1379" y="904" on="1"/>
        <pt x="1391" y="956" on="1"/>
      </contour>
      <contour>
        <pt x="1071" y="276" on="0"/>
        <pt x="1130" y="292" on="0"/>
        <pt x="1186" y="322" on="0"/>
        <pt x="1237" y="366" on="0"/>
        <pt x="1259" y="394" on="1"/>
        <pt x="1297" y="556" on="1"/>
        <pt x="1290" y="585" on="0"/>
        <pt x="1260" y="633" on="0"/>
        <pt x="1218" y="667" on="0"/>
        <pt x="1165" y="686" on="0"/>
        <pt x="1135" y="686" on="1"/>
        <pt x="1087" y="686" on="0"/>
        <pt x="995" y="645" on="0"/>
        <pt x="923" y="576" on="0"/>
        <pt x="879" y="485" on="0"/>
        <pt x="879" y="434" on="1"/>
        <pt x="879" y="398" on="0"/>
        <pt x="903" y="340" on="0"/>
        <pt x="946" y="298" on="0"/>
        <pt x="1006" y="276" on="0"/>
        <pt x="1042" y="276" on="1"/>
      </contour>
    </TTGlyph>
    <TTGlyph name="atilde" xMin="102" yMin="-16" xMax="1757" yMax="1959">
      <component glyphName="a" x="0" y="0" flags="0x204"/>
      <component glyphName="tilde" x="340" y="0" flags="0x4"/>
    </TTGlyph>
    <TTGlyph name="b" xMin="102" yMin="-16" xMax="1348" yMax="1556">
      <contour>
        <pt x="264" y="1556" on="1"/>
        <pt x="801" y="1556" on="1"/>
        <pt x="665" y="967" on="1"/>
        <pt x="702" y="1005" on="0"/>
        <pt x="762" y="1032" on="1"/>
        <pt x="827" y="1061" on="0"/>
        <pt x="915" y="1061" on="1"/>
        <pt x="1000" y="1061" on="0"/>
        <pt x="1156" y="1002" on="0"/>
        <pt x="1276" y="887" on="0"/>
        <pt x="1348" y="717" on="0"/>
        <pt x="1348" y="606" on="1"/>
        <pt x="1348" y="469" on="0"/>
        <pt x="1247" y="240" on="0"/>
        <pt x="1073" y="75" on="0"/>
        <pt x="838" y="-16" on="0"/>
        <pt x="705" y="-16" on="1"/>
        <pt x="668" y="-16" on="0"/>
        <pt x="594" y="-4" on="0"/>
        <pt x="526" y="17" on="0"/>
        <pt x="498" y="31" on="1"/>
        <pt x="473" y="43" on="0"/>
        <pt x="455" y="57" on="1"/>
        <pt x="442" y="0" on="1"/>
        <pt x="102" y="0" on="1"/>
        <pt x="398" y="1282" on="1"/>
        <pt x="201" y="1282" on="1"/>
      </contour>
      <contour>
        <pt x="627" y="672" on="1"/>
        <pt x="603" y="649" on="0"/>
        <pt x="584" y="619" on="1"/>
        <pt x="534" y="400" on="1"/>
        <pt x="545" y="377" on="0"/>
        <pt x="561" y="359" on="1"/>
        <pt x="583" y="336" on="0"/>
        <pt x="640" y="304" on="0"/>
        <pt x="706" y="287" on="0"/>
        <pt x="741" y="287" on="1"/>
        <pt x="795" y="287" on="0"/>
        <pt x="893" y="330" on="0"/>
        <pt x="966" y="403" on="0"/>
        <pt x="1010" y="502" on="0"/>
        <pt x="1010" y="559" on="1"/>
        <pt x="1010" y="607" on="0"/>
        <pt x="980" y="679" on="0"/>
        <pt x="928" y="727" on="0"/>
        <pt x="860" y="752" on="0"/>
        <pt x="821" y="752" on="1"/>
        <pt x="788" y="752" on="0"/>
        <pt x="719" y="735" on="0"/>
        <pt x="655" y="699" on="0"/>
      </contour>
    </TTGlyph>
    <TTGlyph name="backslash" xMin="164" yMin="-88" xMax="584" yMax="1589">
      <contour>
        <pt x="164" y="1589" on="1"/>
        <pt x="399" y="1589" on="1"/>
        <pt x="584" y="-88" on="1"/>
        <pt x="342" y="-88" on="1"/>
      </contour>
    </TTGlyph>
    <TTGlyph name="bar" xMin="61" yMin="-270" xMax="795" yMax="1729">
      <contour>
        <pt x="522" y="1729" on="1"/>
        <pt x="795" y="1729" on="1"/>
        <pt x="334" y="-270" on="1"/>
        <pt x="61" y="-270" on="1"/>
      </contour>
    </TTGlyph>
    <TTGlyph name="braceleft" xMin="118" yMin="-346" xMax="1117" yMax="1792">
      <contour>
        <pt x="1117" y="1784" on="1"/>
        <pt x="1042" y="1456" on="1"/>
        <pt x="1019" y="1455" on="0"/>
        <pt x="981" y="1451" on="0"/>
        <pt x="965" y="1447" on="1"/>
        <pt x="942" y="1441" on="0"/>
        <pt x="909" y="1421" on="0"/>
        <pt x="885" y="1385" on="0"/>
        <pt x="868" y="1331" on="0"/>
        <pt x="859" y="1292" on="1"/>
        <pt x="773" y="922" on="1"/>
        <pt x="764" y="881" on="0"/>
        <pt x="738" y="817" on="0"/>
        <pt x="677" y="747" on="0"/>
        <pt x="617" y="722" on="1"/>
        <pt x="643" y="706" on="0"/>
        <pt x="687" y="650" on="0"/>
        <pt x="689" y="552" on="0"/>
        <pt x="676" y="502" on="1"/>
        <pt x="589" y="123" on="1"/>
        <pt x="579" y="78" on="0"/>
        <pt x="576" y="20" on="0"/>
        <pt x="599" y="-14" on="0"/>
        <pt x="653" y="-29" on="0"/>
        <pt x="700" y="-31" on="1"/>
        <pt x="628" y="-338" on="1"/>
        <pt x="525" y="-346" on="0"/>
        <pt x="431" y="-346" on="1"/>
        <pt x="406" y="-346" on="0"/>
        <pt x="361" y="-342" on="0"/>
        <pt x="301" y="-330" on="0"/>
        <pt x="242" y="-297" on="0"/>
        <pt x="205" y="-243" on="0"/>
        <pt x="189" y="-166" on="0"/>
        <pt x="193" y="-102" on="0"/>
        <pt x="202" y="-45" on="0"/>
        <pt x="208" y="-14" on="0"/>
        <pt x="212" y="2" on="1"/>
        <pt x="286" y="324" on="1"/>
        <pt x="306" y="410" on="0"/>
        <pt x="318" y="517" on="0"/>
        <pt x="308" y="581" on="0"/>
        <pt x="276" y="609" on="0"/>
        <pt x="226" y="619" on="0"/>
        <pt x="118" y="629" on="1"/>
        <pt x="163" y="819" on="1"/>
        <pt x="263" y="828" on="0"/>
        <pt x="355" y="855" on="0"/>
        <pt x="404" y="903" on="0"/>
        <pt x="438" y="984" on="0"/>
        <pt x="453" y="1048" on="1"/>
        <pt x="544" y="1444" on="1"/>
        <pt x="552" y="1476" on="0"/>
        <pt x="568" y="1535" on="0"/>
        <pt x="604" y="1625" on="0"/>
        <pt x="672" y="1713" on="0"/>
        <pt x="758" y="1768" on="0"/>
        <pt x="863" y="1792" on="0"/>
        <pt x="925" y="1792" on="1"/>
        <pt x="1019" y="1792" on="0"/>
        <pt x="1117" y="1784" on="0"/>
      </contour>
    </TTGlyph>
    <TTGlyph name="braceright" xMin="-102" yMin="-346" xMax="897" yMax="1792">
      <contour>
        <pt x="-27" y="-10" on="1"/>
        <pt x="-4" y="-9" on="0"/>
        <pt x="34" y="-5" on="0"/>
        <pt x="73" y="5" on="0"/>
        <pt x="106" y="25" on="0"/>
        <pt x="130" y="61" on="0"/>
        <pt x="147" y="115" on="0"/>
        <pt x="156" y="154" on="1"/>
        <pt x="242" y="524" on="1"/>
        <pt x="270" y="614" on="0"/>
        <pt x="359" y="709" on="0"/>
        <pt x="398" y="724" on="1"/>
        <pt x="333" y="779" on="0"/>
        <pt x="324" y="880" on="0"/>
        <pt x="340" y="948" on="0"/>
        <pt x="426" y="1323" on="1"/>
        <pt x="436" y="1368" on="0"/>
        <pt x="439" y="1426" on="0"/>
        <pt x="416" y="1460" on="0"/>
        <pt x="362" y="1475" on="0"/>
        <pt x="315" y="1477" on="1"/>
        <pt x="387" y="1784" on="1"/>
        <pt x="387" y="1784" on="0"/>
        <pt x="490" y="1792" on="0"/>
        <pt x="584" y="1792" on="1"/>
        <pt x="654" y="1788" on="0"/>
        <pt x="714" y="1776" on="0"/>
        <pt x="773" y="1743" on="0"/>
        <pt x="810" y="1689" on="0"/>
        <pt x="826" y="1612" on="0"/>
        <pt x="819" y="1520" on="0"/>
        <pt x="803" y="1444" on="1"/>
        <pt x="729" y="1122" on="1"/>
        <pt x="709" y="1036" on="0"/>
        <pt x="697" y="929" on="0"/>
        <pt x="707" y="865" on="0"/>
        <pt x="739" y="837" on="0"/>
        <pt x="789" y="827" on="0"/>
        <pt x="897" y="817" on="1"/>
        <pt x="852" y="627" on="1"/>
        <pt x="752" y="618" on="0"/>
        <pt x="651" y="590" on="0"/>
        <pt x="611" y="543" on="0"/>
        <pt x="577" y="462" on="0"/>
        <pt x="562" y="398" on="1"/>
        <pt x="472" y="-20" on="1"/>
        <pt x="465" y="-50" on="0"/>
        <pt x="415" y="-190" on="0"/>
        <pt x="347" y="-272" on="0"/>
        <pt x="260" y="-324" on="0"/>
        <pt x="153" y="-346" on="0"/>
        <pt x="90" y="-346" on="1"/>
        <pt x="-4" y="-346" on="0"/>
        <pt x="-102" y="-338" on="1"/>
      </contour>
    </TTGlyph>
    <TTGlyph name="bracketleft" xMin="-41" yMin="-289" xMax="1018" yMax="1835">
      <contour>
        <pt x="451" y="1835" on="1"/>
        <pt x="1018" y="1835" on="1"/>
        <pt x="961" y="1589" on="1"/>
        <pt x="737" y="1589" on="1"/>
        <pt x="360" y="-41" on="1"/>
        <pt x="584" y="-41" on="1"/>
        <pt x="526" y="-289" on="1"/>
        <pt x="-41" y="-289" on="1"/>
      </contour>
    </TTGlyph>
    <TTGlyph name="bracketright" xMin="-246" yMin="-289" xMax="813" yMax="1835">
      <contour>
        <pt x="412" y="1589" on="1"/>
        <pt x="188" y="1589" on="1"/>
        <pt x="246" y="1835" on="1"/>
        <pt x="813" y="1835" on="1"/>
        <pt x="322" y="-289" on="1"/>
        <pt x="-246" y="-289" on="1"/>
        <pt x="-188" y="-41" on="1"/>
        <pt x="35" y="-41" on="1"/>
      </contour>
    </TTGlyph>
    <TTGlyph name="breve" xMin="41" yMin="1157" xMax="922" yMax="1481">
      <contour>
        <pt x="483" y="1157" on="1"/>
        <pt x="388" y="1157" on="0"/>
        <pt x="244" y="1200" on="0"/>
        <pt x="138" y="1283" on="0"/>
        <pt x="65" y="1403" on="0"/>
        <pt x="41" y="1481" on="1"/>
        <pt x="293" y="1481" on="1"/>
        <pt x="313" y="1421" on="0"/>
        <pt x="408" y="1358" on="0"/>
        <pt x="483" y="1358" on="1"/>
        <pt x="555" y="1358" on="0"/>
        <pt x="647" y="1416" on="0"/>
        <pt x="672" y="1481" on="1"/>
        <pt x="922" y="1481" on="1"/>
        <pt x="900" y="1404" on="0"/>
        <pt x="828" y="1284" on="0"/>
        <pt x="721" y="1201" on="0"/>
        <pt x="577" y="1157" on="0"/>
      </contour>
    </TTGlyph>
    <TTGlyph name="breve.i" xMin="27" yMin="1157" xMax="1030" yMax="1481">
      <contour>
        <pt x="504" y="1157" on="1"/>
        <pt x="418" y="1157" on="0"/>
        <pt x="266" y="1200" on="0"/>
        <pt x="141" y="1282" on="0"/>
        <pt x="51" y="1403" on="0"/>
        <pt x="27" y="1481" on="1"/>
        <pt x="279" y="1481" on="1"/>
        <pt x="289" y="1450" on="0"/>
        <pt x="334" y="1405" on="0"/>
        <pt x="393" y="1374" on="0"/>
        <pt x="467" y="1358" on="0"/>
        <pt x="504" y="1358" on="1"/>
        <pt x="539" y="1358" on="0"/>
        <pt x="612" y="1372" on="0"/>
        <pt x="676" y="1403" on="0"/>
        <pt x="727" y="1448" on="0"/>
        <pt x="739" y="1481" on="1"/>
        <pt x="1030" y="1481" on="1"/>
        <pt x="1008" y="1425" on="0"/>
        <pt x="907" y="1311" on="0"/>
        <pt x="768" y="1217" on="0"/>
        <pt x="598" y="1157" on="0"/>
        <pt x="504" y="1157" on="1"/>
      </contour>
    </TTGlyph>
    <TTGlyph name="brokenbar" xMin="-37" yMin="-268" xMax="696" yMax="1729">
      <contour>
        <pt x="423" y="1729" on="1"/>
        <pt x="696" y="1729" on="1"/>
        <pt x="521" y="979" on="1"/>
        <pt x="249" y="979" on="1"/>
      </contour>
      <contour>
        <pt x="135" y="481" on="1"/>
        <pt x="407" y="481" on="1"/>
        <pt x="235" y="-268" on="1"/>
        <pt x="-37" y="-268" on="1"/>
      </contour>
    </TTGlyph>
    <TTGlyph name="bullet" xMin="307" yMin="164" xMax="1085" yMax="942">
      <contour>
        <pt x="307" y="553" on="1"/>
        <pt x="307" y="634" on="0"/>
        <pt x="368" y="775" on="0"/>
        <pt x="474" y="881" on="0"/>
        <pt x="615" y="942" on="0"/>
        <pt x="696" y="942" on="1"/>
        <pt x="777" y="942" on="0"/>
        <pt x="918" y="881" on="0"/>
        <pt x="1024" y="775" on="0"/>
        <pt x="1085" y="634" on="0"/>
        <pt x="1085" y="553" on="1"/>
        <pt x="1085" y="472" on="0"/>
        <pt x="1024" y="331" on="0"/>
        <pt x="918" y="225" on="0"/>
        <pt x="777" y="164" on="0"/>
        <pt x="696" y="164" on="1"/>
        <pt x="615" y="164" on="0"/>
        <pt x="474" y="225" on="0"/>
        <pt x="368" y="331" on="0"/>
        <pt x="307" y="472" on="0"/>
      </contour>
    </TTGlyph>
    <TTGlyph name="c" xMin="102" yMin="-25" xMax="1245" yMax="1067">
      <contour>
        <pt x="852" y="668" on="1"/>
        <pt x="836" y="710" on="0"/>
        <pt x="750" y="762" on="0"/>
        <pt x="700" y="762" on="1"/>
        <pt x="644" y="762" on="0"/>
        <pt x="545" y="717" on="0"/>
        <pt x="471" y="638" on="0"/>
        <pt x="428" y="533" on="0"/>
        <pt x="428" y="473" on="1"/>
        <pt x="428" y="428" on="0"/>
        <pt x="457" y="357" on="0"/>
        <pt x="505" y="306" on="0"/>
        <pt x="569" y="279" on="0"/>
        <pt x="604" y="279" on="1"/>
        <pt x="687" y="279" on="0"/>
        <pt x="798" y="356" on="0"/>
        <pt x="834" y="418" on="1"/>
        <pt x="1106" y="270" on="1"/>
        <pt x="1074" y="208" on="0"/>
        <pt x="970" y="100" on="0"/>
        <pt x="832" y="20" on="0"/>
        <pt x="665" y="-25" on="0"/>
        <pt x="571" y="-25" on="1"/>
        <pt x="470" y="-25" on="0"/>
        <pt x="299" y="48" on="0"/>
        <pt x="173" y="173" on="0"/>
        <pt x="102" y="341" on="0"/>
        <pt x="102" y="436" on="1"/>
        <pt x="102" y="579" on="0"/>
        <pt x="205" y="812" on="0"/>
        <pt x="379" y="977" on="0"/>
        <pt x="608" y="1067" on="0"/>
        <pt x="735" y="1067" on="1"/>
        <pt x="815" y="1067" on="0"/>
        <pt x="951" y="1021" on="0"/>
        <pt x="1006" y="981" on="1"/>
        <pt x="1031" y="963" on="0"/>
        <pt x="1053" y="942" on="1"/>
        <pt x="1245" y="942" on="1"/>
        <pt x="1182" y="668" on="1"/>
        <pt x="852" y="668" on="1"/>
      </contour>
    </TTGlyph>
    <TTGlyph name="cacute" xMin="102" yMin="-25" xMax="3197" yMax="2449">
      <component glyphName="c" x="0" y="0" flags="0x204"/>
      <component glyphName="acute" x="480" y="0" flags="0x4"/>
    </TTGlyph>
    <TTGlyph name="caron" xMin="162" yMin="1178" xMax="954" yMax="1503">
      <contour>
        <pt x="954" y="1503" on="1"/>
        <pt x="598" y="1178" on="1"/>
        <pt x="358" y="1178" on="1"/>
        <pt x="162" y="1503" on="1"/>
        <pt x="410" y="1503" on="1"/>
        <pt x="506" y="1346" on="1"/>
        <pt x="678" y="1503" on="1"/>
      </contour>
    </TTGlyph>
    <TTGlyph name="caron.i" xMin="162" yMin="1178" xMax="954" yMax="1503">
      <contour>
        <pt x="954" y="1503" on="1"/>
        <pt x="598" y="1178" on="1"/>
        <pt x="358" y="1178" on="1"/>
        <pt x="162" y="1503" on="1"/>
        <pt x="410" y="1503" on="1"/>
        <pt x="506" y="1346" on="1"/>
        <pt x="678" y="1503" on="1"/>
      </contour>
    </TTGlyph>
    <TTGlyph name="ccaron" xMin="102" yMin="-25" xMax="1771" yMax="1982">
      <component glyphName="c" x="0" y="0" flags="0x204"/>
      <component glyphName="caron" x="225" y="0" flags="0x4"/>
    </TTGlyph>
    <TTGlyph name="ccedilla" xMin="102" yMin="-453" xMax="1245" yMax="1067">
      <component glyphName="c" x="0" y="0" flags="0x204"/>
      <component glyphName="cedilla" x="106" y="0" flags="0x4"/>
    </TTGlyph>
    <TTGlyph name="cedilla" xMin="102" yMin="-453" xMax="602" yMax="-47">
      <contour>
        <pt x="102" y="-289" on="1"/>
        <pt x="154" y="-277" on="0"/>
        <pt x="231" y="-236" on="0"/>
        <pt x="287" y="-177" on="0"/>
        <pt x="325" y="-98" on="0"/>
        <pt x="338" y="-47" on="1"/>
        <pt x="602" y="-139" on="1"/>
        <pt x="573" y="-208" on="0"/>
        <pt x="487" y="-317" on="0"/>
        <pt x="376" y="-395" on="0"/>
        <pt x="245" y="-444" on="0"/>
        <pt x="172" y="-453" on="1"/>
      </contour>
    </TTGlyph>
    <TTGlyph name="cent" xMin="102" yMin="-242" xMax="1245" yMax="1329">
      <contour>
        <pt x="295" y="-242" on="1"/>
        <pt x="356" y="24" on="1"/>
        <pt x="298" y="52" on="0"/>
        <pt x="204" y="138" on="0"/>
        <pt x="138" y="244" on="0"/>
        <pt x="102" y="368" on="0"/>
        <pt x="102" y="436" on="1"/>
        <pt x="102" y="558" on="0"/>
        <pt x="178" y="764" on="0"/>
        <pt x="310" y="923" on="0"/>
        <pt x="489" y="1029" on="0"/>
        <pt x="592" y="1052" on="1"/>
        <pt x="657" y="1329" on="1"/>
        <pt x="989" y="1329" on="1"/>
        <pt x="919" y="1030" on="1"/>
        <pt x="994" y="997" on="0"/>
        <pt x="1053" y="942" on="1"/>
        <pt x="1245" y="942" on="1"/>
        <pt x="1182" y="668" on="1"/>
        <pt x="852" y="668" on="1"/>
        <pt x="836" y="710" on="0"/>
        <pt x="750" y="762" on="0"/>
        <pt x="700" y="762" on="1"/>
        <pt x="644" y="762" on="0"/>
        <pt x="545" y="717" on="0"/>
        <pt x="471" y="638" on="0"/>
        <pt x="428" y="533" on="0"/>
        <pt x="428" y="473" on="1"/>
        <pt x="428" y="428" on="0"/>
        <pt x="457" y="357" on="0"/>
        <pt x="505" y="306" on="0"/>
        <pt x="569" y="279" on="0"/>
        <pt x="604" y="279" on="1"/>
        <pt x="687" y="279" on="0"/>
        <pt x="798" y="356" on="0"/>
        <pt x="834" y="418" on="1"/>
        <pt x="1106" y="270" on="1"/>
        <pt x="1079" y="217" on="0"/>
        <pt x="995" y="122" on="0"/>
        <pt x="885" y="47" on="0"/>
        <pt x="754" y="-5" on="0"/>
        <pt x="679" y="-16" on="1"/>
        <pt x="627" y="-242" on="1"/>
      </contour>
    </TTGlyph>
    <TTGlyph name="circumflex" xMin="100" yMin="1178" xMax="893" yMax="1503">
      <contour>
        <pt x="100" y="1178" on="1"/>
        <pt x="457" y="1503" on="1"/>
        <pt x="696" y="1503" on="1"/>
        <pt x="893" y="1178" on="1"/>
        <pt x="645" y="1178" on="1"/>
        <pt x="549" y="1335" on="1"/>
        <pt x="377" y="1178" on="1"/>
      </contour>
    </TTGlyph>
    <TTGlyph name="circumflex.i" xMin="130" yMin="1178" xMax="863" yMax="1503">
      <contour>
        <pt x="130" y="1178" on="1"/>
        <pt x="453" y="1503" on="1"/>
        <pt x="699" y="1503" on="1"/>
        <pt x="863" y="1178" on="1"/>
        <pt x="615" y="1178" on="1"/>
        <pt x="549" y="1335" on="1"/>
        <pt x="407" y="1178" on="1"/>
      </contour>
    </TTGlyph>
    <TTGlyph name="colon" xMin="82" yMin="-33" xMax="600" yMax="1085">
      <contour>
        <pt x="245" y="944" on="0"/>
        <pt x="273" y="1009" on="0"/>
        <pt x="321" y="1057" on="0"/>
        <pt x="386" y="1085" on="0"/>
        <pt x="424" y="1085" on="1"/>
        <pt x="460" y="1085" on="0"/>
        <pt x="524" y="1057" on="0"/>
        <pt x="572" y="1009" on="0"/>
        <pt x="600" y="944" on="0"/>
        <pt x="600" y="907" on="1"/>
        <pt x="600" y="870" on="0"/>
        <pt x="572" y="805" on="0"/>
        <pt x="524" y="757" on="0"/>
        <pt x="460" y="729" on="0"/>
        <pt x="424" y="729" on="1"/>
        <pt x="386" y="729" on="0"/>
        <pt x="321" y="757" on="0"/>
        <pt x="273" y="805" on="0"/>
        <pt x="245" y="870" on="0"/>
        <pt x="245" y="907" on="1"/>
      </contour>
      <contour>
        <pt x="82" y="182" on="0"/>
        <pt x="110" y="247" on="0"/>
        <pt x="158" y="295" on="0"/>
        <pt x="223" y="323" on="0"/>
        <pt x="261" y="323" on="1"/>
        <pt x="297" y="323" on="0"/>
        <pt x="361" y="295" on="0"/>
        <pt x="409" y="247" on="0"/>
        <pt x="437" y="182" on="0"/>
        <pt x="437" y="145" on="1"/>
        <pt x="437" y="108" on="0"/>
        <pt x="409" y="43" on="0"/>
        <pt x="361" y="-5" on="0"/>
        <pt x="297" y="-33" on="0"/>
        <pt x="261" y="-33" on="1"/>
        <pt x="223" y="-33" on="0"/>
        <pt x="158" y="-5" on="0"/>
        <pt x="110" y="43" on="0"/>
        <pt x="82" y="108" on="0"/>
        <pt x="82" y="145" on="1"/>
      </contour>
    </TTGlyph>
    <TTGlyph name="comma" xMin="20" yMin="-365" xMax="510" yMax="283">
      <contour>
        <pt x="205" y="283" on="1"/>
        <pt x="510" y="176" on="1"/>
        <pt x="225" y="-365" on="1"/>
        <pt x="20" y="-287" on="1"/>
      </contour>
    </TTGlyph>
    <TTGlyph name="commaaccent" xMin="-4" yMin="1112" xMax="399" yMax="1554">
      <contour>
        <pt x="285" y="1112" on="1"/>
        <pt x="-4" y="1217" on="1"/>
        <pt x="193" y="1554" on="1"/>
        <pt x="399" y="1483" on="1"/>
      </contour>
    </TTGlyph>
    <TTGlyph name="commabelow" xMin="25" yMin="-471" xMax="428" yMax="-29">
      <contour>
        <pt x="139" y="-29" on="1"/>
        <pt x="428" y="-133" on="1"/>
        <pt x="231" y="-471" on="1"/>
        <pt x="25" y="-399" on="1"/>
      </contour>
    </TTGlyph>
    <TTGlyph name="copyright" xMin="102" yMin="-25" xMax="1817" yMax="1686">
      <contour>
        <pt x="102" y="831" on="1"/>
        <pt x="102" y="949" on="0"/>
        <pt x="163" y="1168" on="0"/>
        <pt x="274" y="1358" on="0"/>
        <pt x="430" y="1514" on="0"/>
        <pt x="620" y="1625" on="0"/>
        <pt x="839" y="1686" on="0"/>
        <pt x="958" y="1686" on="1"/>
        <pt x="1076" y="1686" on="0"/>
        <pt x="1296" y="1625" on="0"/>
        <pt x="1487" y="1514" on="0"/>
        <pt x="1644" y="1358" on="0"/>
        <pt x="1756" y="1168" on="0"/>
        <pt x="1817" y="949" on="0"/>
        <pt x="1817" y="831" on="1"/>
        <pt x="1817" y="712" on="0"/>
        <pt x="1756" y="493" on="0"/>
        <pt x="1644" y="303" on="0"/>
        <pt x="1487" y="147" on="0"/>
        <pt x="1296" y="36" on="0"/>
        <pt x="1076" y="-25" on="0"/>
        <pt x="958" y="-25" on="1"/>
        <pt x="839" y="-25" on="0"/>
        <pt x="620" y="36" on="0"/>
        <pt x="430" y="147" on="0"/>
        <pt x="274" y="303" on="0"/>
        <pt x="163" y="493" on="0"/>
        <pt x="102" y="712" on="0"/>
      </contour>
      <contour>
        <pt x="330" y="831" on="1"/>
        <pt x="330" y="743" on="0"/>
        <pt x="374" y="581" on="0"/>
        <pt x="455" y="441" on="0"/>
        <pt x="569" y="326" on="0"/>
        <pt x="709" y="245" on="0"/>
        <pt x="870" y="201" on="0"/>
        <pt x="958" y="201" on="1"/>
        <pt x="1046" y="201" on="0"/>
        <pt x="1208" y="245" on="0"/>
        <pt x="1347" y="326" on="0"/>
        <pt x="1461" y="441" on="0"/>
        <pt x="1542" y="581" on="0"/>
        <pt x="1586" y="743" on="0"/>
        <pt x="1586" y="831" on="1"/>
        <pt x="1586" y="919" on="0"/>
        <pt x="1542" y="1081" on="0"/>
        <pt x="1461" y="1220" on="0"/>
        <pt x="1347" y="1335" on="0"/>
        <pt x="1208" y="1416" on="0"/>
        <pt x="1046" y="1460" on="0"/>
        <pt x="958" y="1460" on="1"/>
        <pt x="871" y="1460" on="0"/>
        <pt x="709" y="1416" on="0"/>
        <pt x="569" y="1335" on="0"/>
        <pt x="455" y="1220" on="0"/>
        <pt x="374" y="1081" on="0"/>
        <pt x="330" y="919" on="0"/>
      </contour>
      <contour>
        <pt x="1148" y="973" on="1"/>
        <pt x="1116" y="1015" on="0"/>
        <pt x="1023" y="1060" on="0"/>
        <pt x="969" y="1060" on="1"/>
        <pt x="920" y="1060" on="0"/>
        <pt x="838" y="1025" on="0"/>
        <pt x="777" y="962" on="0"/>
        <pt x="741" y="878" on="0"/>
        <pt x="741" y="831" on="1"/>
        <pt x="741" y="784" on="0"/>
        <pt x="777" y="700" on="0"/>
        <pt x="838" y="638" on="0"/>
        <pt x="920" y="603" on="0"/>
        <pt x="969" y="603" on="1"/>
        <pt x="1022" y="603" on="0"/>
        <pt x="1114" y="644" on="0"/>
        <pt x="1149" y="686" on="1"/>
        <pt x="1339" y="495" on="1"/>
        <pt x="1269" y="421" on="0"/>
        <pt x="1080" y="334" on="0"/>
        <pt x="969" y="334" on="1"/>
        <pt x="866" y="334" on="0"/>
        <pt x="685" y="412" on="0"/>
        <pt x="550" y="547" on="0"/>
        <pt x="472" y="727" on="0"/>
        <pt x="472" y="831" on="1"/>
        <pt x="472" y="935" on="0"/>
        <pt x="550" y="1116" on="0"/>
        <pt x="685" y="1250" on="0"/>
        <pt x="866" y="1328" on="0"/>
        <pt x="969" y="1328" on="1"/>
        <pt x="1081" y="1328" on="0"/>
        <pt x="1272" y="1242" on="0"/>
        <pt x="1341" y="1168" on="1"/>
      </contour>
    </TTGlyph>
    <TTGlyph name="currency" xMin="61" yMin="41" xMax="1599" yMax="1458">
      <contour>
        <pt x="270" y="662" on="1"/>
        <pt x="270" y="763" on="0"/>
        <pt x="338" y="945" on="0"/>
        <pt x="398" y="1021" on="1"/>
        <pt x="256" y="1229" on="1"/>
        <pt x="559" y="1458" on="1"/>
        <pt x="708" y="1241" on="1"/>
        <pt x="760" y="1260" on="0"/>
        <pt x="869" y="1280" on="0"/>
        <pt x="926" y="1280" on="1"/>
        <pt x="983" y="1280" on="0"/>
        <pt x="1086" y="1253" on="0"/>
        <pt x="1132" y="1229" on="1"/>
        <pt x="1386" y="1452" on="1"/>
        <pt x="1599" y="1204" on="1"/>
        <pt x="1346" y="983" on="1"/>
        <pt x="1360" y="945" on="0"/>
        <pt x="1376" y="863" on="0"/>
        <pt x="1376" y="821" on="1"/>
        <pt x="1376" y="719" on="0"/>
        <pt x="1306" y="536" on="0"/>
        <pt x="1245" y="459" on="1"/>
        <pt x="1378" y="268" on="1"/>
        <pt x="1075" y="41" on="1"/>
        <pt x="935" y="240" on="1"/>
        <pt x="883" y="222" on="0"/>
        <pt x="775" y="203" on="0"/>
        <pt x="719" y="203" on="1"/>
        <pt x="661" y="203" on="0"/>
        <pt x="555" y="230" on="0"/>
        <pt x="508" y="256" on="1"/>
        <pt x="274" y="53" on="1"/>
        <pt x="61" y="299" on="1"/>
        <pt x="297" y="505" on="1"/>
        <pt x="283" y="542" on="0"/>
        <pt x="270" y="620" on="0"/>
      </contour>
      <contour>
        <pt x="563" y="694" on="1"/>
        <pt x="563" y="651" on="0"/>
        <pt x="592" y="577" on="0"/>
        <pt x="644" y="523" on="0"/>
        <pt x="719" y="492" on="0"/>
        <pt x="764" y="492" on="1"/>
        <pt x="824" y="492" on="0"/>
        <pt x="938" y="540" on="0"/>
        <pt x="1027" y="622" on="0"/>
        <pt x="1081" y="730" on="0"/>
        <pt x="1081" y="791" on="1"/>
        <pt x="1081" y="834" on="0"/>
        <pt x="1052" y="909" on="0"/>
        <pt x="999" y="964" on="0"/>
        <pt x="925" y="995" on="0"/>
        <pt x="881" y="995" on="1"/>
        <pt x="820" y="995" on="0"/>
        <pt x="706" y="946" on="0"/>
        <pt x="617" y="864" on="0"/>
        <pt x="563" y="755" on="0"/>
      </contour>
    </TTGlyph>
    <TTGlyph name="cyr.dotlessi" xMin="1338" yMin="0" xMax="1934" yMax="1036">
      <contour>
        <pt x="1577" y="1036" on="1"/>
        <pt x="1919" y="1036" on="1"/>
        <pt x="1743" y="274" on="1"/>
        <pt x="1934" y="274" on="1"/>
        <pt x="1870" y="0" on="1"/>
        <pt x="1338" y="0" on="1"/>
      </contour>
    </TTGlyph>
    <TTGlyph name="d" xMin="102" yMin="-18" xMax="1466" yMax="1556">
      <contour>
        <pt x="920" y="1556" on="1"/>
        <pt x="1466" y="1556" on="1"/>
        <pt x="1171" y="274" on="1"/>
        <pt x="1362" y="274" on="1"/>
        <pt x="1298" y="0" on="1"/>
        <pt x="768" y="0" on="1"/>
        <pt x="786" y="78" on="1"/>
        <pt x="770" y="60" on="0"/>
        <pt x="748" y="44" on="1"/>
        <pt x="723" y="26" on="0"/>
        <pt x="657" y="-2" on="0"/>
        <pt x="579" y="-18" on="0"/>
        <pt x="535" y="-18" on="1"/>
        <pt x="433" y="-18" on="0"/>
        <pt x="272" y="56" on="0"/>
        <pt x="161" y="181" on="0"/>
        <pt x="102" y="346" on="0"/>
        <pt x="102" y="438" on="1"/>
        <pt x="102" y="534" on="0"/>
        <pt x="152" y="701" on="0"/>
        <pt x="240" y="840" on="0"/>
        <pt x="361" y="948" on="0"/>
        <pt x="504" y="1022" on="0"/>
        <pt x="663" y="1061" on="0"/>
        <pt x="745" y="1061" on="1"/>
        <pt x="780" y="1061" on="0"/>
        <pt x="854" y="1050" on="0"/>
        <pt x="923" y="1030" on="0"/>
        <pt x="952" y="1016" on="1"/>
        <pt x="978" y="1004" on="0"/>
        <pt x="995" y="989" on="1"/>
        <pt x="1063" y="1282" on="1"/>
        <pt x="856" y="1282" on="1"/>
      </contour>
      <contour>
        <pt x="765" y="343" on="1"/>
        <pt x="826" y="376" on="0"/>
        <pt x="867" y="432" on="1"/>
        <pt x="919" y="658" on="1"/>
        <pt x="910" y="676" on="0"/>
        <pt x="896" y="692" on="1"/>
        <pt x="874" y="716" on="0"/>
        <pt x="816" y="748" on="0"/>
        <pt x="749" y="764" on="0"/>
        <pt x="715" y="764" on="1"/>
        <pt x="661" y="764" on="0"/>
        <pt x="566" y="723" on="0"/>
        <pt x="494" y="651" on="0"/>
        <pt x="453" y="553" on="0"/>
        <pt x="453" y="496" on="1"/>
        <pt x="453" y="453" on="0"/>
        <pt x="480" y="383" on="0"/>
        <pt x="526" y="334" on="0"/>
        <pt x="590" y="307" on="0"/>
        <pt x="627" y="307" on="1"/>
        <pt x="699" y="307" on="0"/>
      </contour>
    </TTGlyph>
    <TTGlyph name="dagger" xMin="121" yMin="-471" xMax="1208" yMax="1516">
      <contour>
        <pt x="184" y="1036" on="1"/>
        <pt x="532" y="1036" on="1"/>
        <pt x="643" y="1516" on="1"/>
        <pt x="993" y="1516" on="1"/>
        <pt x="883" y="1036" on="1"/>
        <pt x="1208" y="1036" on="1"/>
        <pt x="1145" y="768" on="1"/>
        <pt x="819" y="768" on="1"/>
        <pt x="535" y="-471" on="1"/>
        <pt x="184" y="-471" on="1"/>
        <pt x="469" y="768" on="1"/>
        <pt x="121" y="768" on="1"/>
      </contour>
    </TTGlyph>
    <TTGlyph name="daggerdbl" xMin="-74" yMin="-471" xMax="1167" yMax="1516">
      <contour>
        <pt x="170" y="1034" on="1"/>
        <pt x="498" y="1034" on="1"/>
        <pt x="610" y="1516" on="1"/>
        <pt x="961" y="1516" on="1"/>
        <pt x="848" y="1034" on="1"/>
        <pt x="1167" y="1034" on="1"/>
        <pt x="1106" y="764" on="1"/>
        <pt x="786" y="764" on="1"/>
        <pt x="674" y="274" on="1"/>
        <pt x="1014" y="274" on="1"/>
        <pt x="950" y="0" on="1"/>
        <pt x="610" y="0" on="1"/>
        <pt x="502" y="-471" on="1"/>
        <pt x="152" y="-471" on="1"/>
        <pt x="260" y="0" on="1"/>
        <pt x="-74" y="0" on="1"/>
        <pt x="-10" y="274" on="1"/>
        <pt x="324" y="274" on="1"/>
        <pt x="436" y="764" on="1"/>
        <pt x="109" y="764" on="1"/>
      </contour>
    </TTGlyph>
    <TTGlyph name="dcaron" xMin="102" yMin="-18" xMax="1878" yMax="1593">
      <component glyphName="d" x="0" y="0" flags="0x4"/>
      <component glyphName="quotesingle" x="1272" y="0" flags="0x4"/>
    </TTGlyph>
    <TTGlyph name="dcroat" xMin="102" yMin="-18" xMax="1559" yMax="1556">
      <contour>
        <pt x="1360" y="1100" on="1"/>
        <pt x="1313" y="893" on="0"/>
        <pt x="1219" y="481" on="0"/>
        <pt x="1171" y="274" on="1"/>
        <pt x="1362" y="274" on="1"/>
        <pt x="1346" y="205" on="0"/>
        <pt x="1315" y="70" on="0"/>
        <pt x="1298" y="0" on="1"/>
        <pt x="768" y="0" on="1"/>
        <pt x="772" y="20" on="0"/>
        <pt x="782" y="57" on="0"/>
        <pt x="786" y="78" on="1"/>
        <pt x="752" y="37" on="0"/>
        <pt x="621" y="-18" on="0"/>
        <pt x="535" y="-18" on="1"/>
        <pt x="432" y="-18" on="0"/>
        <pt x="272" y="55" on="0"/>
        <pt x="162" y="180" on="0"/>
        <pt x="102" y="346" on="0"/>
        <pt x="102" y="438" on="1"/>
        <pt x="102" y="582" on="0"/>
        <pt x="211" y="813" on="0"/>
        <pt x="389" y="975" on="0"/>
        <pt x="623" y="1061" on="0"/>
        <pt x="745" y="1061" on="1"/>
        <pt x="778" y="1061" on="0"/>
        <pt x="850" y="1051" on="0"/>
        <pt x="918" y="1032" on="0"/>
        <pt x="975" y="1006" on="0"/>
        <pt x="995" y="989" on="1"/>
        <pt x="1001" y="1018" on="0"/>
        <pt x="1016" y="1071" on="0"/>
        <pt x="1022" y="1100" on="1"/>
        <pt x="868" y="1100" on="1"/>
        <pt x="885" y="1169" on="0"/>
        <pt x="915" y="1305" on="0"/>
        <pt x="932" y="1374" on="1"/>
        <pt x="1083" y="1374" on="1"/>
        <pt x="1087" y="1397" on="0"/>
        <pt x="1098" y="1442" on="0"/>
        <pt x="1104" y="1464" on="1"/>
        <pt x="1104" y="1464" on="1"/>
        <pt x="1108" y="1487" on="0"/>
        <pt x="1120" y="1534" on="0"/>
        <pt x="1126" y="1556" on="1"/>
        <pt x="1466" y="1556" on="1"/>
        <pt x="1456" y="1509" on="0"/>
        <pt x="1434" y="1421" on="0"/>
        <pt x="1423" y="1374" on="1"/>
        <pt x="1559" y="1374" on="1"/>
        <pt x="1542" y="1305" on="0"/>
        <pt x="1511" y="1169" on="0"/>
        <pt x="1495" y="1100" on="1"/>
      </contour>
      <contour>
        <pt x="627" y="307" on="1"/>
        <pt x="696" y="307" on="0"/>
        <pt x="825" y="373" on="0"/>
        <pt x="868" y="432" on="1"/>
        <pt x="881" y="487" on="0"/>
        <pt x="907" y="600" on="0"/>
        <pt x="920" y="655" on="1"/>
        <pt x="893" y="709" on="0"/>
        <pt x="776" y="764" on="0"/>
        <pt x="715" y="764" on="1"/>
        <pt x="662" y="764" on="0"/>
        <pt x="565" y="723" on="0"/>
        <pt x="494" y="651" on="0"/>
        <pt x="453" y="553" on="0"/>
        <pt x="453" y="496" on="1"/>
        <pt x="453" y="410" on="0"/>
        <pt x="553" y="307" on="0"/>
        <pt x="627" y="307" on="1"/>
      </contour>
    </TTGlyph>
    <TTGlyph name="degree" xMin="102" yMin="1083" xMax="715" yMax="1706">
      <contour>
        <pt x="410" y="1706" on="1"/>
        <pt x="474" y="1706" on="0"/>
        <pt x="586" y="1659" on="0"/>
        <pt x="668" y="1576" on="0"/>
        <pt x="715" y="1462" on="0"/>
        <pt x="715" y="1395" on="1"/>
        <pt x="715" y="1330" on="0"/>
        <pt x="668" y="1217" on="0"/>
        <pt x="586" y="1132" on="0"/>
        <pt x="474" y="1083" on="0"/>
        <pt x="410" y="1083" on="1"/>
        <pt x="345" y="1083" on="0"/>
        <pt x="232" y="1132" on="0"/>
        <pt x="149" y="1217" on="0"/>
        <pt x="102" y="1332" on="0"/>
        <pt x="102" y="1397" on="1"/>
        <pt x="102" y="1461" on="0"/>
        <pt x="150" y="1573" on="0"/>
        <pt x="234" y="1657" on="0"/>
        <pt x="346" y="1706" on="0"/>
      </contour>
      <contour>
        <pt x="258" y="1389" on="1"/>
        <pt x="258" y="1360" on="0"/>
        <pt x="282" y="1306" on="0"/>
        <pt x="322" y="1265" on="0"/>
        <pt x="374" y="1241" on="0"/>
        <pt x="403" y="1241" on="1"/>
        <pt x="437" y="1241" on="0"/>
        <pt x="494" y="1263" on="0"/>
        <pt x="534" y="1303" on="0"/>
        <pt x="557" y="1359" on="0"/>
        <pt x="557" y="1393" on="1"/>
        <pt x="557" y="1427" on="0"/>
        <pt x="535" y="1485" on="0"/>
        <pt x="495" y="1525" on="0"/>
        <pt x="440" y="1548" on="0"/>
        <pt x="408" y="1548" on="1"/>
        <pt x="376" y="1548" on="0"/>
        <pt x="322" y="1524" on="0"/>
        <pt x="281" y="1481" on="0"/>
        <pt x="258" y="1423" on="0"/>
      </contour>
    </TTGlyph>
    <TTGlyph name="dieresis" xMin="47" yMin="1165" xMax="881" yMax="1522">
      <contour>
        <pt x="47" y="1343" on="1"/>
        <pt x="47" y="1380" on="0"/>
        <pt x="74" y="1445" on="0"/>
        <pt x="122" y="1494" on="0"/>
        <pt x="187" y="1522" on="0"/>
        <pt x="225" y="1522" on="1"/>
        <pt x="261" y="1522" on="0"/>
        <pt x="325" y="1494" on="0"/>
        <pt x="373" y="1445" on="0"/>
        <pt x="401" y="1380" on="0"/>
        <pt x="401" y="1343" on="1"/>
        <pt x="401" y="1306" on="0"/>
        <pt x="373" y="1241" on="0"/>
        <pt x="325" y="1193" on="0"/>
        <pt x="261" y="1165" on="0"/>
        <pt x="225" y="1165" on="1"/>
        <pt x="187" y="1165" on="0"/>
        <pt x="122" y="1193" on="0"/>
        <pt x="74" y="1241" on="0"/>
        <pt x="47" y="1306" on="0"/>
      </contour>
      <contour>
        <pt x="526" y="1343" on="1"/>
        <pt x="526" y="1380" on="0"/>
        <pt x="554" y="1445" on="0"/>
        <pt x="602" y="1494" on="0"/>
        <pt x="667" y="1522" on="0"/>
        <pt x="705" y="1522" on="1"/>
        <pt x="741" y="1522" on="0"/>
        <pt x="805" y="1494" on="0"/>
        <pt x="853" y="1445" on="0"/>
        <pt x="881" y="1380" on="0"/>
        <pt x="881" y="1343" on="1"/>
        <pt x="881" y="1306" on="0"/>
        <pt x="853" y="1241" on="0"/>
        <pt x="805" y="1193" on="0"/>
        <pt x="741" y="1165" on="0"/>
        <pt x="705" y="1165" on="1"/>
        <pt x="667" y="1165" on="0"/>
        <pt x="602" y="1193" on="0"/>
        <pt x="554" y="1241" on="0"/>
        <pt x="526" y="1306" on="0"/>
      </contour>
    </TTGlyph>
    <TTGlyph name="dieresis.i" xMin="217" yMin="1184" xMax="911" yMax="1503">
      <contour>
        <pt x="217" y="1343" on="1"/>
        <pt x="217" y="1409" on="0"/>
        <pt x="309" y="1503" on="0"/>
        <pt x="377" y="1503" on="1"/>
        <pt x="410" y="1503" on="0"/>
        <pt x="467" y="1479" on="0"/>
        <pt x="510" y="1436" on="0"/>
        <pt x="535" y="1376" on="0"/>
        <pt x="535" y="1343" on="1"/>
        <pt x="535" y="1311" on="0"/>
        <pt x="510" y="1251" on="0"/>
        <pt x="467" y="1208" on="0"/>
        <pt x="410" y="1184" on="0"/>
        <pt x="377" y="1184" on="1"/>
        <pt x="309" y="1184" on="0"/>
        <pt x="217" y="1278" on="0"/>
        <pt x="217" y="1343" on="1"/>
      </contour>
      <contour>
        <pt x="594" y="1343" on="1"/>
        <pt x="594" y="1409" on="0"/>
        <pt x="686" y="1503" on="0"/>
        <pt x="754" y="1503" on="1"/>
        <pt x="786" y="1503" on="0"/>
        <pt x="844" y="1479" on="0"/>
        <pt x="887" y="1436" on="0"/>
        <pt x="911" y="1376" on="0"/>
        <pt x="911" y="1343" on="1"/>
        <pt x="911" y="1311" on="0"/>
        <pt x="887" y="1251" on="0"/>
        <pt x="844" y="1208" on="0"/>
        <pt x="786" y="1184" on="0"/>
        <pt x="754" y="1184" on="1"/>
        <pt x="686" y="1184" on="0"/>
        <pt x="594" y="1278" on="0"/>
        <pt x="594" y="1343" on="1"/>
      </contour>
    </TTGlyph>
    <TTGlyph name="divide" xMin="50" yMin="-33" xMax="1089" yMax="1085">
      <contour>
        <pt x="693" y="1085" on="1"/>
        <pt x="729" y="1085" on="0"/>
        <pt x="793" y="1057" on="0"/>
        <pt x="841" y="1009" on="0"/>
        <pt x="869" y="944" on="0"/>
        <pt x="869" y="907" on="1"/>
        <pt x="869" y="870" on="0"/>
        <pt x="841" y="805" on="0"/>
        <pt x="793" y="757" on="0"/>
        <pt x="729" y="729" on="0"/>
        <pt x="693" y="729" on="1"/>
        <pt x="655" y="729" on="0"/>
        <pt x="590" y="757" on="0"/>
        <pt x="542" y="805" on="0"/>
        <pt x="514" y="870" on="0"/>
        <pt x="514" y="907" on="1"/>
        <pt x="514" y="944" on="0"/>
        <pt x="542" y="1009" on="0"/>
        <pt x="590" y="1057" on="0"/>
        <pt x="655" y="1085" on="0"/>
      </contour>
      <contour>
        <pt x="530" y="323" on="1"/>
        <pt x="566" y="323" on="0"/>
        <pt x="630" y="295" on="0"/>
        <pt x="678" y="247" on="0"/>
        <pt x="706" y="182" on="0"/>
        <pt x="706" y="145" on="1"/>
        <pt x="706" y="108" on="0"/>
        <pt x="678" y="43" on="0"/>
        <pt x="630" y="-5" on="0"/>
        <pt x="566" y="-33" on="0"/>
        <pt x="530" y="-33" on="1"/>
        <pt x="492" y="-33" on="0"/>
        <pt x="427" y="-5" on="0"/>
        <pt x="379" y="43" on="0"/>
        <pt x="351" y="108" on="0"/>
        <pt x="351" y="145" on="1"/>
        <pt x="351" y="182" on="0"/>
        <pt x="379" y="247" on="0"/>
        <pt x="427" y="295" on="0"/>
        <pt x="492" y="323" on="0"/>
      </contour>
      <contour>
        <pt x="50" y="383" on="1"/>
        <pt x="114" y="658" on="1"/>
        <pt x="1089" y="658" on="1"/>
        <pt x="1025" y="383" on="1"/>
      </contour>
    </TTGlyph>
    <TTGlyph name="divisionslash" xMin="0" yMin="-61" xMax="1454" yMax="1104">
      <contour>
        <pt x="1161" y="1104" on="1"/>
        <pt x="1454" y="1104" on="1"/>
        <pt x="299" y="-61" on="1"/>
        <pt x="0" y="-61" on="1"/>
      </contour>
    </TTGlyph>
    <TTGlyph name="dollar" xMin="20" yMin="-229" xMax="1444" yMax="1763">
      <contour>
        <pt x="344" y="-229" on="1"/>
        <pt x="397" y="0" on="1"/>
        <pt x="284" y="32" on="0"/>
        <pt x="145" y="175" on="0"/>
        <pt x="133" y="276" on="1"/>
        <pt x="20" y="276" on="1"/>
        <pt x="80" y="532" on="1"/>
        <pt x="444" y="532" on="1"/>
        <pt x="426" y="456" on="1"/>
        <pt x="412" y="367" on="0"/>
        <pt x="514" y="260" on="0"/>
        <pt x="633" y="260" on="1"/>
        <pt x="689" y="260" on="0"/>
        <pt x="778" y="290" on="0"/>
        <pt x="841" y="343" on="0"/>
        <pt x="874" y="416" on="0"/>
        <pt x="874" y="459" on="1"/>
        <pt x="874" y="492" on="0"/>
        <pt x="846" y="540" on="0"/>
        <pt x="799" y="575" on="0"/>
        <pt x="737" y="601" on="0"/>
        <pt x="702" y="612" on="1"/>
        <pt x="530" y="672" on="1"/>
        <pt x="470" y="692" on="0"/>
        <pt x="371" y="763" on="0"/>
        <pt x="300" y="859" on="0"/>
        <pt x="260" y="980" on="0"/>
        <pt x="260" y="1049" on="1"/>
        <pt x="260" y="1157" on="0"/>
        <pt x="331" y="1325" on="0"/>
        <pt x="460" y="1447" on="0"/>
        <pt x="642" y="1520" on="0"/>
        <pt x="752" y="1534" on="1"/>
        <pt x="805" y="1763" on="1"/>
        <pt x="1137" y="1763" on="1"/>
        <pt x="1079" y="1514" on="1"/>
        <pt x="1188" y="1481" on="0"/>
        <pt x="1318" y="1354" on="0"/>
        <pt x="1329" y="1276" on="1"/>
        <pt x="1444" y="1276" on="1"/>
        <pt x="1384" y="1020" on="1"/>
        <pt x="1022" y="1020" on="1"/>
        <pt x="1033" y="1069" on="1"/>
        <pt x="1043" y="1115" on="0"/>
        <pt x="1023" y="1188" on="0"/>
        <pt x="971" y="1238" on="0"/>
        <pt x="893" y="1264" on="0"/>
        <pt x="846" y="1264" on="1"/>
        <pt x="797" y="1264" on="0"/>
        <pt x="709" y="1245" on="0"/>
        <pt x="643" y="1204" on="0"/>
        <pt x="604" y="1140" on="0"/>
        <pt x="604" y="1096" on="1"/>
        <pt x="604" y="1057" on="0"/>
        <pt x="637" y="1008" on="0"/>
        <pt x="689" y="976" on="0"/>
        <pt x="752" y="955" on="0"/>
        <pt x="782" y="944" on="1"/>
        <pt x="989" y="868" on="1"/>
        <pt x="1117" y="822" on="0"/>
        <pt x="1235" y="636" on="0"/>
        <pt x="1235" y="502" on="1"/>
        <pt x="1235" y="394" on="0"/>
        <pt x="1161" y="217" on="0"/>
        <pt x="1026" y="85" on="0"/>
        <pt x="839" y="1" on="0"/>
        <pt x="725" y="-15" on="1"/>
        <pt x="676" y="-229" on="1"/>
      </contour>
    </TTGlyph>
    <TTGlyph name="dotaccent" xMin="92" yMin="1192" xMax="446" yMax="1548">
      <contour>
        <pt x="92" y="1370" on="1"/>
        <pt x="92" y="1407" on="0"/>
        <pt x="119" y="1472" on="0"/>
        <pt x="167" y="1520" on="0"/>
        <pt x="232" y="1548" on="0"/>
        <pt x="270" y="1548" on="1"/>
        <pt x="306" y="1548" on="0"/>
        <pt x="370" y="1520" on="0"/>
        <pt x="418" y="1472" on="0"/>
        <pt x="446" y="1407" on="0"/>
        <pt x="446" y="1370" on="1"/>
        <pt x="446" y="1333" on="0"/>
        <pt x="418" y="1268" on="0"/>
        <pt x="370" y="1220" on="0"/>
        <pt x="306" y="1192" on="0"/>
        <pt x="270" y="1192" on="1"/>
        <pt x="232" y="1192" on="0"/>
        <pt x="167" y="1220" on="0"/>
        <pt x="119" y="1268" on="0"/>
        <pt x="92" y="1333" on="0"/>
      </contour>
    </TTGlyph>
    <TTGlyph name="dotlessi" xMin="78" yMin="0" xMax="768" yMax="1036">
      <contour>
        <pt x="141" y="1036" on="1"/>
        <pt x="705" y="1036" on="1"/>
        <pt x="528" y="274" on="1"/>
        <pt x="768" y="274" on="1"/>
        <pt x="705" y="0" on="1"/>
        <pt x="123" y="0" on="1"/>
        <pt x="299" y="762" on="1"/>
        <pt x="78" y="762" on="1"/>
      </contour>
    </TTGlyph>
    <TTGlyph name="e" xMin="102" yMin="-27" xMax="1198" yMax="1067">
      <contour>
        <pt x="428" y="440" on="1"/>
        <pt x="430" y="416" on="0"/>
        <pt x="436" y="394" on="1"/>
        <pt x="446" y="356" on="0"/>
        <pt x="493" y="299" on="0"/>
        <pt x="569" y="266" on="0"/>
        <pt x="623" y="266" on="1"/>
        <pt x="663" y="266" on="0"/>
        <pt x="730" y="282" on="0"/>
        <pt x="790" y="311" on="0"/>
        <pt x="845" y="351" on="0"/>
        <pt x="872" y="375" on="1"/>
        <pt x="1092" y="182" on="1"/>
        <pt x="991" y="74" on="0"/>
        <pt x="727" y="-27" on="0"/>
        <pt x="575" y="-27" on="1"/>
        <pt x="477" y="-27" on="0"/>
        <pt x="305" y="37" on="0"/>
        <pt x="177" y="156" on="0"/>
        <pt x="102" y="326" on="0"/>
        <pt x="102" y="432" on="1"/>
        <pt x="102" y="575" on="0"/>
        <pt x="205" y="809" on="0"/>
        <pt x="379" y="976" on="0"/>
        <pt x="608" y="1067" on="0"/>
        <pt x="735" y="1067" on="1"/>
        <pt x="836" y="1067" on="0"/>
        <pt x="1006" y="996" on="0"/>
        <pt x="1129" y="877" on="0"/>
        <pt x="1198" y="721" on="0"/>
        <pt x="1198" y="637" on="1"/>
        <pt x="1198" y="617" on="0"/>
        <pt x="1194" y="567" on="0"/>
        <pt x="1186" y="514" on="0"/>
        <pt x="1174" y="462" on="0"/>
        <pt x="1167" y="440" on="1"/>
      </contour>
      <contour>
        <pt x="471" y="680" on="1"/>
        <pt x="467" y="673" on="0"/>
        <pt x="464" y="666" on="1"/>
        <pt x="897" y="666" on="1"/>
        <pt x="895" y="693" on="0"/>
        <pt x="864" y="744" on="0"/>
        <pt x="813" y="784" on="0"/>
        <pt x="744" y="809" on="0"/>
        <pt x="702" y="809" on="1"/>
        <pt x="652" y="809" on="0"/>
        <pt x="561" y="779" on="0"/>
        <pt x="492" y="722" on="0"/>
      </contour>
    </TTGlyph>
    <TTGlyph name="eacute" xMin="102" yMin="-27" xMax="4626" yMax="2929">
      <component glyphName="e" x="0" y="0" flags="0x204"/>
      <component glyphName="acute" x="545" y="0" flags="0x4"/>
    </TTGlyph>
    <TTGlyph name="ecaron" xMin="102" yMin="-27" xMax="2903" yMax="2860">
      <component glyphName="e" x="0" y="0" flags="0x204"/>
      <component glyphName="caron" x="270" y="0" flags="0x4"/>
    </TTGlyph>
    <TTGlyph name="ecircumflex" xMin="102" yMin="-27" xMax="2493" yMax="2463">
      <component glyphName="e" x="0" y="0" flags="0x204"/>
      <component glyphName="circumflex" x="246" y="0" flags="0x4"/>
    </TTGlyph>
    <TTGlyph name="edieresis" xMin="102" yMin="-27" xMax="2587" yMax="2478">
      <component glyphName="e" x="0" y="0" flags="0x204"/>
      <component glyphName="dieresis" x="280" y="0" flags="0x4"/>
    </TTGlyph>
    <TTGlyph name="edotaccent" xMin="102" yMin="-27" xMax="1715" yMax="2028">
      <component glyphName="e" x="0" y="0" flags="0x204"/>
      <component glyphName="dotaccent" x="465" y="0" flags="0x4"/>
    </TTGlyph>
    <TTGlyph name="egrave" xMin="102" yMin="-27" xMax="2234" yMax="2449">
      <component glyphName="e" x="0" y="0" flags="0x204"/>
      <component glyphName="grave" x="240" y="0" flags="0x4"/>
    </TTGlyph>
    <TTGlyph name="eight" xMin="61" yMin="-27" xMax="1278" yMax="1544">
      <contour>
        <pt x="860" y="1544" on="1"/>
        <pt x="951" y="1544" on="0"/>
        <pt x="1105" y="1490" on="0"/>
        <pt x="1216" y="1389" on="0"/>
        <pt x="1278" y="1242" on="0"/>
        <pt x="1278" y="1149" on="1"/>
        <pt x="1278" y="1092" on="0"/>
        <pt x="1242" y="987" on="0"/>
        <pt x="1177" y="892" on="0"/>
        <pt x="1088" y="811" on="0"/>
        <pt x="1034" y="779" on="1"/>
        <pt x="1094" y="723" on="0"/>
        <pt x="1163" y="579" on="0"/>
        <pt x="1163" y="500" on="1"/>
        <pt x="1163" y="395" on="0"/>
        <pt x="1064" y="205" on="0"/>
        <pt x="890" y="59" on="0"/>
        <pt x="654" y="-27" on="0"/>
        <pt x="516" y="-27" on="1"/>
        <pt x="412" y="-27" on="0"/>
        <pt x="243" y="44" on="0"/>
        <pt x="125" y="161" on="0"/>
        <pt x="61" y="312" on="0"/>
        <pt x="61" y="393" on="1"/>
        <pt x="61" y="459" on="0"/>
        <pt x="103" y="579" on="0"/>
        <pt x="178" y="684" on="0"/>
        <pt x="282" y="773" on="0"/>
        <pt x="344" y="807" on="1"/>
        <pt x="298" y="857" on="0"/>
        <pt x="248" y="978" on="0"/>
        <pt x="248" y="1042" on="1"/>
        <pt x="248" y="1146" on="0"/>
        <pt x="344" y="1329" on="0"/>
        <pt x="510" y="1465" on="0"/>
        <pt x="733" y="1544" on="0"/>
      </contour>
      <contour>
        <pt x="371" y="432" on="1"/>
        <pt x="371" y="397" on="0"/>
        <pt x="399" y="336" on="0"/>
        <pt x="450" y="289" on="0"/>
        <pt x="521" y="262" on="0"/>
        <pt x="565" y="262" on="1"/>
        <pt x="620" y="262" on="0"/>
        <pt x="722" y="301" on="0"/>
        <pt x="802" y="366" on="0"/>
        <pt x="850" y="451" on="0"/>
        <pt x="850" y="496" on="1"/>
        <pt x="850" y="530" on="0"/>
        <pt x="822" y="591" on="0"/>
        <pt x="771" y="636" on="0"/>
        <pt x="700" y="662" on="0"/>
        <pt x="657" y="662" on="1"/>
        <pt x="601" y="662" on="0"/>
        <pt x="498" y="625" on="0"/>
        <pt x="418" y="562" on="0"/>
        <pt x="371" y="478" on="0"/>
      </contour>
      <contour>
        <pt x="551" y="1055" on="1"/>
        <pt x="551" y="1026" on="0"/>
        <pt x="574" y="974" on="0"/>
        <pt x="617" y="935" on="0"/>
        <pt x="678" y="913" on="0"/>
        <pt x="715" y="913" on="1"/>
        <pt x="761" y="913" on="0"/>
        <pt x="849" y="945" on="0"/>
        <pt x="917" y="999" on="0"/>
        <pt x="958" y="1070" on="0"/>
        <pt x="958" y="1108" on="1"/>
        <pt x="958" y="1138" on="0"/>
        <pt x="934" y="1191" on="0"/>
        <pt x="891" y="1232" on="0"/>
        <pt x="831" y="1255" on="0"/>
        <pt x="795" y="1255" on="1"/>
        <pt x="747" y="1255" on="0"/>
        <pt x="659" y="1221" on="0"/>
        <pt x="592" y="1165" on="0"/>
        <pt x="551" y="1093" on="0"/>
      </contour>
    </TTGlyph>
    <TTGlyph name="ellipsis" xMin="31" yMin="-31" xMax="1284" yMax="317">
      <contour>
        <pt x="31" y="143" on="1"/>
        <pt x="31" y="180" on="0"/>
        <pt x="60" y="244" on="0"/>
        <pt x="111" y="290" on="0"/>
        <pt x="179" y="317" on="0"/>
        <pt x="217" y="317" on="1"/>
        <pt x="254" y="317" on="0"/>
        <pt x="324" y="290" on="0"/>
        <pt x="376" y="244" on="0"/>
        <pt x="408" y="180" on="0"/>
        <pt x="408" y="143" on="1"/>
        <pt x="408" y="108" on="0"/>
        <pt x="376" y="45" on="0"/>
        <pt x="324" y="-3" on="0"/>
        <pt x="254" y="-31" on="0"/>
        <pt x="217" y="-31" on="1"/>
        <pt x="179" y="-31" on="0"/>
        <pt x="111" y="-3" on="0"/>
        <pt x="60" y="45" on="0"/>
        <pt x="31" y="108" on="0"/>
      </contour>
      <contour>
        <pt x="469" y="143" on="1"/>
        <pt x="469" y="180" on="0"/>
        <pt x="498" y="244" on="0"/>
        <pt x="549" y="290" on="0"/>
        <pt x="617" y="317" on="0"/>
        <pt x="655" y="317" on="1"/>
        <pt x="693" y="317" on="0"/>
        <pt x="762" y="290" on="0"/>
        <pt x="815" y="244" on="0"/>
        <pt x="846" y="180" on="0"/>
        <pt x="846" y="143" on="1"/>
        <pt x="846" y="108" on="0"/>
        <pt x="815" y="45" on="0"/>
        <pt x="762" y="-3" on="0"/>
        <pt x="693" y="-31" on="0"/>
        <pt x="655" y="-31" on="1"/>
        <pt x="617" y="-31" on="0"/>
        <pt x="549" y="-3" on="0"/>
        <pt x="498" y="45" on="0"/>
        <pt x="469" y="108" on="0"/>
      </contour>
      <contour>
        <pt x="907" y="143" on="1"/>
        <pt x="907" y="180" on="0"/>
        <pt x="936" y="244" on="0"/>
        <pt x="987" y="290" on="0"/>
        <pt x="1055" y="317" on="0"/>
        <pt x="1094" y="317" on="1"/>
        <pt x="1131" y="317" on="0"/>
        <pt x="1200" y="290" on="0"/>
        <pt x="1253" y="244" on="0"/>
        <pt x="1284" y="180" on="0"/>
        <pt x="1284" y="143" on="1"/>
        <pt x="1284" y="108" on="0"/>
        <pt x="1253" y="45" on="0"/>
        <pt x="1200" y="-3" on="0"/>
        <pt x="1131" y="-31" on="0"/>
        <pt x="1094" y="-31" on="1"/>
        <pt x="1055" y="-31" on="0"/>
        <pt x="987" y="-3" on="0"/>
        <pt x="936" y="45" on="0"/>
        <pt x="907" y="108" on="0"/>
      </contour>
    </TTGlyph>
    <TTGlyph name="emacron" xMin="102" yMin="-27" xMax="2648" yMax="2351">
      <component glyphName="e" x="0" y="0" flags="0x204"/>
      <component glyphName="macron" x="317" y="0" flags="0x4"/>
    </TTGlyph>
    <TTGlyph name="emdash" xMin="434" yMin="459" xMax="2341" yMax="733">
      <contour>
        <pt x="498" y="733" on="1"/>
        <pt x="2341" y="733" on="1"/>
        <pt x="2277" y="459" on="1"/>
        <pt x="434" y="459" on="1"/>
      </contour>
    </TTGlyph>
    <TTGlyph name="endash" xMin="332" yMin="459" xMax="1419" yMax="733">
      <contour>
        <pt x="395" y="733" on="1"/>
        <pt x="1419" y="733" on="1"/>
        <pt x="1356" y="459" on="1"/>
        <pt x="332" y="459" on="1"/>
      </contour>
    </TTGlyph>
    <TTGlyph name="eogonek" xMin="102" yMin="-471" xMax="1198" yMax="1067">
      <contour>
        <pt x="324" y="-260" on="1"/>
        <pt x="324" y="-182" on="0"/>
        <pt x="397" y="-57" on="0"/>
        <pt x="453" y="-12" on="1"/>
        <pt x="377" y="4" on="0"/>
        <pt x="250" y="80" on="0"/>
        <pt x="156" y="195" on="0"/>
        <pt x="102" y="342" on="0"/>
        <pt x="102" y="432" on="1"/>
        <pt x="102" y="575" on="0"/>
        <pt x="205" y="809" on="0"/>
        <pt x="379" y="975" on="0"/>
        <pt x="608" y="1067" on="0"/>
        <pt x="735" y="1067" on="1"/>
        <pt x="836" y="1067" on="0"/>
        <pt x="1006" y="995" on="0"/>
        <pt x="1128" y="877" on="0"/>
        <pt x="1198" y="721" on="0"/>
        <pt x="1198" y="637" on="1"/>
        <pt x="1198" y="596" on="0"/>
        <pt x="1182" y="483" on="0"/>
        <pt x="1167" y="440" on="1"/>
        <pt x="428" y="440" on="1"/>
        <pt x="430" y="416" on="0"/>
        <pt x="442" y="373" on="0"/>
        <pt x="453" y="352" on="1"/>
        <pt x="463" y="334" on="0"/>
        <pt x="496" y="301" on="0"/>
        <pt x="537" y="279" on="0"/>
        <pt x="590" y="266" on="0"/>
        <pt x="623" y="266" on="1"/>
        <pt x="702" y="266" on="0"/>
        <pt x="817" y="328" on="0"/>
        <pt x="872" y="375" on="1"/>
        <pt x="928" y="328" on="0"/>
        <pt x="1036" y="229" on="0"/>
        <pt x="1092" y="182" on="1"/>
        <pt x="981" y="63" on="0"/>
        <pt x="825" y="12" on="1"/>
        <pt x="774" y="-8" on="0"/>
        <pt x="678" y="-59" on="0"/>
        <pt x="604" y="-117" on="0"/>
        <pt x="559" y="-182" on="0"/>
        <pt x="559" y="-215" on="1"/>
        <pt x="559" y="-254" on="0"/>
        <pt x="608" y="-283" on="0"/>
        <pt x="631" y="-283" on="1"/>
        <pt x="670" y="-283" on="0"/>
        <pt x="723" y="-270" on="0"/>
        <pt x="743" y="-260" on="1"/>
        <pt x="756" y="-303" on="0"/>
        <pt x="780" y="-387" on="0"/>
        <pt x="793" y="-430" on="1"/>
        <pt x="770" y="-442" on="0"/>
        <pt x="668" y="-471" on="0"/>
        <pt x="614" y="-471" on="1"/>
        <pt x="553" y="-471" on="0"/>
        <pt x="449" y="-442" on="0"/>
        <pt x="369" y="-389" on="0"/>
        <pt x="324" y="-311" on="0"/>
        <pt x="324" y="-260" on="1"/>
      </contour>
      <contour>
        <pt x="702" y="809" on="1"/>
        <pt x="623" y="809" on="0"/>
        <pt x="492" y="735" on="0"/>
        <pt x="463" y="666" on="1"/>
        <pt x="897" y="666" on="1"/>
        <pt x="895" y="692" on="0"/>
        <pt x="864" y="743" on="0"/>
        <pt x="813" y="784" on="0"/>
        <pt x="743" y="809" on="0"/>
        <pt x="702" y="809" on="1"/>
      </contour>
    </TTGlyph>
    <TTGlyph name="equal" xMin="102" yMin="252" xMax="1153" yMax="1024">
      <contour>
        <pt x="166" y="526" on="1"/>
        <pt x="1038" y="526" on="1"/>
        <pt x="975" y="252" on="1"/>
        <pt x="102" y="252" on="1"/>
      </contour>
      <contour>
        <pt x="281" y="1024" on="1"/>
        <pt x="1153" y="1024" on="1"/>
        <pt x="1090" y="750" on="1"/>
        <pt x="217" y="750" on="1"/>
      </contour>
    </TTGlyph>
    <TTGlyph name="estimated" xMin="102" yMin="-31" xMax="1559" yMax="1300">
      <contour>
        <pt x="829" y="-31" on="1"/>
        <pt x="676" y="-31" on="0"/>
        <pt x="410" y="61" on="0"/>
        <pt x="215" y="233" on="0"/>
        <pt x="102" y="479" on="0"/>
        <pt x="102" y="633" on="1"/>
        <pt x="102" y="797" on="0"/>
        <pt x="223" y="1047" on="0"/>
        <pt x="422" y="1214" on="0"/>
        <pt x="684" y="1300" on="0"/>
        <pt x="825" y="1300" on="1"/>
        <pt x="993" y="1300" on="0"/>
        <pt x="1260" y="1202" on="0"/>
        <pt x="1448" y="1022" on="0"/>
        <pt x="1552" y="768" on="0"/>
        <pt x="1559" y="614" on="1"/>
        <pt x="399" y="614" on="1"/>
        <pt x="387" y="614" on="0"/>
        <pt x="371" y="604" on="0"/>
        <pt x="371" y="582" on="1"/>
        <pt x="371" y="244" on="1"/>
        <pt x="371" y="215" on="0"/>
        <pt x="436" y="139" on="0"/>
        <pt x="557" y="72" on="0"/>
        <pt x="725" y="23" on="0"/>
        <pt x="829" y="23" on="1"/>
        <pt x="975" y="23" on="0"/>
        <pt x="1219" y="139" on="0"/>
        <pt x="1292" y="231" on="1"/>
        <pt x="1425" y="231" on="1"/>
        <pt x="1294" y="90" on="0"/>
        <pt x="1006" y="-31" on="0"/>
        <pt x="829" y="-31" on="1"/>
      </contour>
      <contour>
        <pt x="825" y="1247" on="1"/>
        <pt x="739" y="1247" on="0"/>
        <pt x="575" y="1210" on="0"/>
        <pt x="449" y="1153" on="0"/>
        <pt x="371" y="1079" on="0"/>
        <pt x="371" y="1040" on="1"/>
        <pt x="371" y="700" on="1"/>
        <pt x="371" y="668" on="0"/>
        <pt x="401" y="668" on="1"/>
        <pt x="1253" y="668" on="1"/>
        <pt x="1276" y="668" on="0"/>
        <pt x="1288" y="684" on="0"/>
        <pt x="1288" y="700" on="1"/>
        <pt x="1288" y="1040" on="1"/>
        <pt x="1288" y="1079" on="0"/>
        <pt x="1202" y="1155" on="0"/>
        <pt x="1067" y="1212" on="0"/>
        <pt x="903" y="1247" on="0"/>
        <pt x="825" y="1247" on="1"/>
      </contour>
    </TTGlyph>
    <TTGlyph name="eth" xMin="102" yMin="-25" xMax="1202" yMax="1556">
      <contour>
        <pt x="453" y="1360" on="1"/>
        <pt x="519" y="1381" on="1"/>
        <pt x="472" y="1427" on="0"/>
        <pt x="372" y="1513" on="0"/>
        <pt x="318" y="1556" on="1"/>
        <pt x="723" y="1556" on="1"/>
        <pt x="750" y="1538" on="0"/>
        <pt x="801" y="1502" on="0"/>
        <pt x="824" y="1482" on="1"/>
        <pt x="1013" y="1545" on="1"/>
        <pt x="1098" y="1284" on="1"/>
        <pt x="1027" y="1260" on="1"/>
        <pt x="1072" y="1191" on="0"/>
        <pt x="1138" y="1040" on="0"/>
        <pt x="1181" y="876" on="0"/>
        <pt x="1202" y="698" on="0"/>
        <pt x="1202" y="604" on="1"/>
        <pt x="1202" y="546" on="0"/>
        <pt x="1175" y="408" on="0"/>
        <pt x="1114" y="268" on="0"/>
        <pt x="1017" y="137" on="0"/>
        <pt x="876" y="36" on="0"/>
        <pt x="690" y="-25" on="0"/>
        <pt x="571" y="-25" on="1"/>
        <pt x="470" y="-25" on="0"/>
        <pt x="299" y="48" on="0"/>
        <pt x="173" y="173" on="0"/>
        <pt x="102" y="341" on="0"/>
        <pt x="102" y="436" on="1"/>
        <pt x="102" y="531" on="0"/>
        <pt x="149" y="697" on="0"/>
        <pt x="229" y="834" on="0"/>
        <pt x="337" y="941" on="0"/>
        <pt x="461" y="1015" on="0"/>
        <pt x="593" y="1053" on="0"/>
        <pt x="658" y="1053" on="1"/>
        <pt x="693" y="1053" on="0"/>
        <pt x="750" y="1054" on="0"/>
        <pt x="773" y="1052" on="1"/>
        <pt x="758" y="1079" on="0"/>
        <pt x="726" y="1130" on="0"/>
        <pt x="709" y="1156" on="1"/>
        <pt x="539" y="1100" on="1"/>
      </contour>
      <contour>
        <pt x="877" y="576" on="0"/>
        <pt x="876" y="596" on="0"/>
        <pt x="876" y="616" on="0"/>
        <pt x="875" y="636" on="0"/>
        <pt x="840" y="713" on="0"/>
        <pt x="748" y="768" on="0"/>
        <pt x="700" y="768" on="1"/>
        <pt x="662" y="768" on="0"/>
        <pt x="593" y="748" on="0"/>
        <pt x="532" y="710" on="0"/>
        <pt x="483" y="657" on="0"/>
        <pt x="447" y="592" on="0"/>
        <pt x="428" y="515" on="0"/>
        <pt x="428" y="473" on="1"/>
        <pt x="428" y="438" on="0"/>
        <pt x="445" y="367" on="0"/>
        <pt x="486" y="310" on="0"/>
        <pt x="553" y="274" on="0"/>
        <pt x="604" y="274" on="1"/>
        <pt x="652" y="274" on="0"/>
        <pt x="750" y="319" on="0"/>
        <pt x="828" y="398" on="0"/>
        <pt x="877" y="505" on="0"/>
        <pt x="877" y="567" on="1"/>
      </contour>
    </TTGlyph>
    <TTGlyph name="exclam" xMin="246" yMin="-33" xMax="908" yMax="1577">
      <contour>
        <pt x="533" y="1577" on="1"/>
        <pt x="908" y="1577" on="1"/>
        <pt x="622" y="516" on="1"/>
        <pt x="329" y="516" on="1"/>
      </contour>
      <contour>
        <pt x="246" y="145" on="1"/>
        <pt x="246" y="182" on="0"/>
        <pt x="274" y="247" on="0"/>
        <pt x="322" y="295" on="0"/>
        <pt x="387" y="323" on="0"/>
        <pt x="425" y="323" on="1"/>
        <pt x="461" y="323" on="0"/>
        <pt x="525" y="295" on="0"/>
        <pt x="573" y="247" on="0"/>
        <pt x="601" y="182" on="0"/>
        <pt x="601" y="145" on="1"/>
        <pt x="601" y="108" on="0"/>
        <pt x="573" y="43" on="0"/>
        <pt x="525" y="-5" on="0"/>
        <pt x="461" y="-33" on="0"/>
        <pt x="425" y="-33" on="1"/>
        <pt x="387" y="-33" on="0"/>
        <pt x="322" y="-5" on="0"/>
        <pt x="274" y="43" on="0"/>
        <pt x="246" y="108" on="0"/>
      </contour>
    </TTGlyph>
    <TTGlyph name="exclamdown" xMin="184" yMin="-543" xMax="846" yMax="1067">
      <contour>
        <pt x="559" y="-543" on="1"/>
        <pt x="184" y="-543" on="1"/>
        <pt x="471" y="518" on="1"/>
        <pt x="764" y="518" on="1"/>
      </contour>
      <contour>
        <pt x="846" y="889" on="1"/>
        <pt x="846" y="852" on="0"/>
        <pt x="818" y="787" on="0"/>
        <pt x="770" y="739" on="0"/>
        <pt x="705" y="711" on="0"/>
        <pt x="667" y="711" on="1"/>
        <pt x="631" y="711" on="0"/>
        <pt x="567" y="739" on="0"/>
        <pt x="519" y="787" on="0"/>
        <pt x="491" y="852" on="0"/>
        <pt x="491" y="889" on="1"/>
        <pt x="491" y="926" on="0"/>
        <pt x="519" y="991" on="0"/>
        <pt x="567" y="1039" on="0"/>
        <pt x="631" y="1067" on="0"/>
        <pt x="667" y="1067" on="1"/>
        <pt x="705" y="1067" on="0"/>
        <pt x="770" y="1039" on="0"/>
        <pt x="818" y="991" on="0"/>
        <pt x="846" y="926" on="0"/>
        <pt x="846" y="889" on="1"/>
      </contour>
    </TTGlyph>
    <TTGlyph name="f" xMin="31" yMin="-471" xMax="1169" yMax="1579">
      <contour>
        <pt x="182" y="1036" on="1"/>
        <pt x="384" y="1036" on="1"/>
        <pt x="424" y="1206" on="1"/>
        <pt x="446" y="1303" on="0"/>
        <pt x="536" y="1444" on="0"/>
        <pt x="659" y="1536" on="0"/>
        <pt x="811" y="1579" on="0"/>
        <pt x="895" y="1579" on="1"/>
        <pt x="953" y="1579" on="0"/>
        <pt x="1047" y="1560" on="0"/>
        <pt x="1116" y="1532" on="0"/>
        <pt x="1161" y="1499" on="0"/>
        <pt x="1169" y="1485" on="1"/>
        <pt x="985" y="1253" on="1"/>
        <pt x="968" y="1270" on="0"/>
        <pt x="927" y="1288" on="0"/>
        <pt x="889" y="1288" on="1"/>
        <pt x="844" y="1288" on="0"/>
        <pt x="766" y="1228" on="0"/>
        <pt x="752" y="1169" on="1"/>
        <pt x="721" y="1036" on="1"/>
        <pt x="942" y="1036" on="1"/>
        <pt x="874" y="743" on="1"/>
        <pt x="652" y="743" on="1"/>
        <pt x="369" y="-471" on="1"/>
        <pt x="31" y="-471" on="1"/>
        <pt x="315" y="743" on="1"/>
        <pt x="115" y="743" on="1"/>
      </contour>
    </TTGlyph>
    <TTGlyph name="fi" xMin="31" yMin="-471" xMax="1589" yMax="1579">
      <contour>
        <pt x="182" y="1036" on="1"/>
        <pt x="383" y="1036" on="1"/>
        <pt x="424" y="1206" on="1"/>
        <pt x="469" y="1401" on="0"/>
        <pt x="725" y="1579" on="0"/>
        <pt x="895" y="1579" on="1"/>
        <pt x="1012" y="1579" on="0"/>
        <pt x="1153" y="1513" on="0"/>
        <pt x="1169" y="1485" on="1"/>
        <pt x="985" y="1253" on="1"/>
        <pt x="969" y="1270" on="0"/>
        <pt x="928" y="1288" on="0"/>
        <pt x="889" y="1288" on="1"/>
        <pt x="844" y="1288" on="0"/>
        <pt x="766" y="1229" on="0"/>
        <pt x="752" y="1169" on="1"/>
        <pt x="721" y="1036" on="1"/>
        <pt x="942" y="1036" on="1"/>
        <pt x="874" y="743" on="1"/>
        <pt x="651" y="743" on="1"/>
        <pt x="369" y="-471" on="1"/>
        <pt x="31" y="-471" on="1"/>
        <pt x="315" y="743" on="1"/>
        <pt x="115" y="743" on="1"/>
      </contour>
      <contour>
        <pt x="1008" y="1036" on="1"/>
        <pt x="1540" y="1036" on="1"/>
        <pt x="1364" y="274" on="1"/>
        <pt x="1554" y="274" on="1"/>
        <pt x="1491" y="0" on="1"/>
        <pt x="958" y="0" on="1"/>
        <pt x="1135" y="762" on="1"/>
        <pt x="944" y="762" on="1"/>
      </contour>
      <contour>
        <pt x="1235" y="1370" on="1"/>
        <pt x="1235" y="1444" on="0"/>
        <pt x="1337" y="1548" on="0"/>
        <pt x="1413" y="1548" on="1"/>
        <pt x="1450" y="1548" on="0"/>
        <pt x="1513" y="1520" on="0"/>
        <pt x="1561" y="1473" on="0"/>
        <pt x="1589" y="1407" on="0"/>
        <pt x="1589" y="1370" on="1"/>
        <pt x="1589" y="1333" on="0"/>
        <pt x="1561" y="1268" on="0"/>
        <pt x="1513" y="1221" on="0"/>
        <pt x="1450" y="1192" on="0"/>
        <pt x="1413" y="1192" on="1"/>
        <pt x="1337" y="1192" on="0"/>
        <pt x="1235" y="1296" on="0"/>
        <pt x="1235" y="1370" on="1"/>
      </contour>
    </TTGlyph>
    <TTGlyph name="five" xMin="18" yMin="-31" xMax="1286" yMax="1516">
      <contour>
        <pt x="502" y="937" on="1"/>
        <pt x="546" y="951" on="0"/>
        <pt x="646" y="969" on="0"/>
        <pt x="709" y="969" on="1"/>
        <pt x="796" y="969" on="0"/>
        <pt x="948" y="919" on="0"/>
        <pt x="1062" y="822" on="0"/>
        <pt x="1128" y="680" on="0"/>
        <pt x="1128" y="588" on="1"/>
        <pt x="1128" y="449" on="0"/>
        <pt x="1023" y="221" on="0"/>
        <pt x="841" y="58" on="0"/>
        <pt x="598" y="-31" on="0"/>
        <pt x="459" y="-31" on="1"/>
        <pt x="367" y="-31" on="0"/>
        <pt x="205" y="25" on="0"/>
        <pt x="85" y="130" on="0"/>
        <pt x="18" y="282" on="0"/>
        <pt x="23" y="377" on="1"/>
        <pt x="352" y="461" on="1"/>
        <pt x="347" y="414" on="0"/>
        <pt x="370" y="340" on="0"/>
        <pt x="418" y="288" on="0"/>
        <pt x="487" y="260" on="0"/>
        <pt x="530" y="260" on="1"/>
        <pt x="588" y="260" on="0"/>
        <pt x="687" y="305" on="0"/>
        <pt x="759" y="380" on="0"/>
        <pt x="799" y="478" on="0"/>
        <pt x="799" y="530" on="1"/>
        <pt x="799" y="565" on="0"/>
        <pt x="773" y="629" on="0"/>
        <pt x="725" y="678" on="0"/>
        <pt x="656" y="707" on="0"/>
        <pt x="612" y="707" on="1"/>
        <pt x="580" y="707" on="0"/>
        <pt x="525" y="701" on="0"/>
        <pt x="473" y="689" on="0"/>
        <pt x="423" y="671" on="0"/>
        <pt x="395" y="659" on="1"/>
        <pt x="137" y="709" on="1"/>
        <pt x="324" y="1516" on="1"/>
        <pt x="1286" y="1516" on="1"/>
        <pt x="1214" y="1210" on="1"/>
        <pt x="565" y="1210" on="1"/>
      </contour>
    </TTGlyph>
    <TTGlyph name="fl" xMin="31" yMin="-471" xMax="1575" yMax="1579">
      <contour>
        <pt x="182" y="1036" on="1"/>
        <pt x="383" y="1036" on="1"/>
        <pt x="424" y="1206" on="1"/>
        <pt x="469" y="1401" on="0"/>
        <pt x="725" y="1579" on="0"/>
        <pt x="895" y="1579" on="1"/>
        <pt x="1018" y="1579" on="0"/>
        <pt x="1174" y="1503" on="0"/>
        <pt x="1214" y="1466" on="1"/>
        <pt x="1235" y="1556" on="1"/>
        <pt x="1575" y="1556" on="1"/>
        <pt x="1280" y="274" on="1"/>
        <pt x="1468" y="274" on="1"/>
        <pt x="1405" y="0" on="1"/>
        <pt x="877" y="0" on="1"/>
        <pt x="1141" y="1151" on="1"/>
        <pt x="1122" y="1223" on="0"/>
        <pt x="1006" y="1288" on="0"/>
        <pt x="942" y="1288" on="1"/>
        <pt x="856" y="1288" on="0"/>
        <pt x="764" y="1214" on="0"/>
        <pt x="748" y="1149" on="1"/>
        <pt x="721" y="1036" on="1"/>
        <pt x="942" y="1036" on="1"/>
        <pt x="874" y="743" on="1"/>
        <pt x="651" y="743" on="1"/>
        <pt x="369" y="-471" on="1"/>
        <pt x="31" y="-471" on="1"/>
        <pt x="315" y="743" on="1"/>
        <pt x="115" y="743" on="1"/>
      </contour>
    </TTGlyph>
    <TTGlyph name="florin" xMin="-221" yMin="-471" xMax="1241" yMax="1579">
      <contour>
        <pt x="315" y="1036" on="1"/>
        <pt x="471" y="1036" on="1"/>
        <pt x="512" y="1208" on="1"/>
        <pt x="532" y="1298" on="0"/>
        <pt x="629" y="1438" on="0"/>
        <pt x="758" y="1532" on="0"/>
        <pt x="907" y="1579" on="0"/>
        <pt x="985" y="1579" on="1"/>
        <pt x="1100" y="1579" on="0"/>
        <pt x="1219" y="1520" on="0"/>
        <pt x="1241" y="1493" on="1"/>
        <pt x="1079" y="1282" on="1"/>
        <pt x="1059" y="1298" on="0"/>
        <pt x="1006" y="1319" on="0"/>
        <pt x="965" y="1319" on="1"/>
        <pt x="911" y="1319" on="0"/>
        <pt x="819" y="1249" on="0"/>
        <pt x="803" y="1182" on="1"/>
        <pt x="768" y="1036" on="1"/>
        <pt x="958" y="1036" on="1"/>
        <pt x="897" y="774" on="1"/>
        <pt x="709" y="774" on="1"/>
        <pt x="508" y="-100" on="1"/>
        <pt x="485" y="-190" on="0"/>
        <pt x="391" y="-330" on="0"/>
        <pt x="262" y="-424" on="0"/>
        <pt x="111" y="-471" on="0"/>
        <pt x="35" y="-471" on="1"/>
        <pt x="-80" y="-471" on="0"/>
        <pt x="-199" y="-412" on="0"/>
        <pt x="-221" y="-385" on="1"/>
        <pt x="-59" y="-174" on="1"/>
        <pt x="-39" y="-190" on="0"/>
        <pt x="14" y="-211" on="0"/>
        <pt x="55" y="-211" on="1"/>
        <pt x="109" y="-211" on="0"/>
        <pt x="201" y="-141" on="0"/>
        <pt x="217" y="-74" on="1"/>
        <pt x="412" y="774" on="1"/>
        <pt x="254" y="774" on="1"/>
      </contour>
    </TTGlyph>
    <TTGlyph name="four" xMin="20" yMin="0" xMax="1272" yMax="1516">
      <contour>
        <pt x="76" y="670" on="1"/>
        <pt x="813" y="1516" on="1"/>
        <pt x="1176" y="1516" on="1"/>
        <pt x="449" y="668" on="1"/>
        <pt x="747" y="668" on="1"/>
        <pt x="815" y="961" on="1"/>
        <pt x="1130" y="965" on="1"/>
        <pt x="1061" y="668" on="1"/>
        <pt x="1272" y="668" on="1"/>
        <pt x="1214" y="414" on="1"/>
        <pt x="1003" y="414" on="1"/>
        <pt x="970" y="274" on="1"/>
        <pt x="1157" y="274" on="1"/>
        <pt x="1094" y="0" on="1"/>
        <pt x="418" y="0" on="1"/>
        <pt x="481" y="274" on="1"/>
        <pt x="656" y="274" on="1"/>
        <pt x="689" y="414" on="1"/>
        <pt x="20" y="414" on="1"/>
      </contour>
    </TTGlyph>
    <TTGlyph name="four.fract" xMin="2204" yMin="0" xMax="2927" yMax="764">
      <contour>
        <pt x="2239" y="348" on="1"/>
        <pt x="2616" y="764" on="1"/>
        <pt x="2831" y="764" on="1"/>
        <pt x="2450" y="342" on="1"/>
        <pt x="2618" y="342" on="1"/>
        <pt x="2657" y="508" on="1"/>
        <pt x="2859" y="508" on="1"/>
        <pt x="2820" y="342" on="1"/>
        <pt x="2927" y="342" on="1"/>
        <pt x="2890" y="182" on="1"/>
        <pt x="2784" y="182" on="1"/>
        <pt x="2743" y="0" on="1"/>
        <pt x="2540" y="0" on="1"/>
        <pt x="2581" y="182" on="1"/>
        <pt x="2204" y="182" on="1"/>
      </contour>
    </TTGlyph>
    <TTGlyph name="foursuperior" xMin="41" yMin="838" xMax="764" yMax="1602">
      <contour>
        <pt x="76" y="1186" on="1"/>
        <pt x="453" y="1602" on="1"/>
        <pt x="668" y="1602" on="1"/>
        <pt x="287" y="1180" on="1"/>
        <pt x="455" y="1180" on="1"/>
        <pt x="494" y="1346" on="1"/>
        <pt x="696" y="1346" on="1"/>
        <pt x="657" y="1180" on="1"/>
        <pt x="764" y="1180" on="1"/>
        <pt x="727" y="1020" on="1"/>
        <pt x="621" y="1020" on="1"/>
        <pt x="580" y="838" on="1"/>
        <pt x="377" y="838" on="1"/>
        <pt x="418" y="1020" on="1"/>
        <pt x="41" y="1020" on="1"/>
      </contour>
    </TTGlyph>
    <TTGlyph name="fraction" xMin="-61" yMin="-61" xMax="1870" yMax="1577">
      <contour>
        <pt x="1569" y="1577" on="1"/>
        <pt x="1870" y="1577" on="1"/>
        <pt x="246" y="-61" on="1"/>
        <pt x="-61" y="-61" on="1"/>
      </contour>
    </TTGlyph>
    <TTGlyph name="g" xMin="-20" yMin="-471" xMax="1343" yMax="1061">
      <contour>
        <pt x="777" y="79" on="1"/>
        <pt x="740" y="47" on="0"/>
        <pt x="676" y="24" on="1"/>
        <pt x="609" y="0" on="0"/>
        <pt x="526" y="0" on="1"/>
        <pt x="447" y="0" on="0"/>
        <pt x="292" y="56" on="0"/>
        <pt x="170" y="166" on="0"/>
        <pt x="94" y="330" on="0"/>
        <pt x="94" y="438" on="1"/>
        <pt x="94" y="572" on="0"/>
        <pt x="193" y="800" on="0"/>
        <pt x="366" y="967" on="0"/>
        <pt x="601" y="1061" on="0"/>
        <pt x="737" y="1061" on="1"/>
        <pt x="776" y="1061" on="0"/>
        <pt x="853" y="1048" on="0"/>
        <pt x="921" y="1027" on="0"/>
        <pt x="987" y="989" on="1"/>
        <pt x="1004" y="1061" on="1"/>
        <pt x="1343" y="1061" on="1"/>
        <pt x="1108" y="43" on="1"/>
        <pt x="1073" y="-110" on="0"/>
        <pt x="948" y="-309" on="0"/>
        <pt x="779" y="-425" on="0"/>
        <pt x="569" y="-471" on="0"/>
        <pt x="449" y="-471" on="1"/>
        <pt x="290" y="-471" on="0"/>
        <pt x="57" y="-398" on="0"/>
        <pt x="-20" y="-338" on="1"/>
        <pt x="156" y="-74" on="1"/>
        <pt x="216" y="-117" on="0"/>
        <pt x="372" y="-174" on="0"/>
        <pt x="463" y="-174" on="1"/>
        <pt x="514" y="-174" on="0"/>
        <pt x="610" y="-156" on="0"/>
        <pt x="692" y="-106" on="0"/>
        <pt x="754" y="-19" on="0"/>
        <pt x="770" y="49" on="1"/>
      </contour>
      <contour>
        <pt x="817" y="378" on="1"/>
        <pt x="839" y="399" on="0"/>
        <pt x="857" y="427" on="1"/>
        <pt x="911" y="659" on="1"/>
        <pt x="876" y="713" on="0"/>
        <pt x="810" y="748" on="0"/>
        <pt x="744" y="764" on="0"/>
        <pt x="707" y="764" on="1"/>
        <pt x="653" y="764" on="0"/>
        <pt x="555" y="721" on="0"/>
        <pt x="482" y="648" on="0"/>
        <pt x="438" y="549" on="0"/>
        <pt x="438" y="492" on="1"/>
        <pt x="438" y="444" on="0"/>
        <pt x="468" y="372" on="0"/>
        <pt x="520" y="324" on="0"/>
        <pt x="588" y="299" on="0"/>
        <pt x="627" y="299" on="1"/>
        <pt x="660" y="299" on="0"/>
        <pt x="727" y="316" on="0"/>
        <pt x="790" y="351" on="0"/>
      </contour>
    </TTGlyph>
    <TTGlyph name="gbreve" xMin="-20" yMin="-471" xMax="2583" yMax="2440">
      <component glyphName="g" x="0" y="0" flags="0x204"/>
      <component glyphName="breve" x="350" y="0" flags="0x4"/>
    </TTGlyph>
    <TTGlyph name="gcommaaccent" xMin="-20" yMin="-471" xMax="1343" yMax="1554">
      <component glyphName="g" x="0" y="0" flags="0x204"/>
      <component glyphName="commaaccent" x="596" y="0" flags="0x4"/>
    </TTGlyph>
    <TTGlyph name="germandbls" xMin="20" yMin="-12" xMax="1458" yMax="1577">
      <contour>
        <pt x="84" y="274" on="1"/>
        <pt x="272" y="274" on="1"/>
        <pt x="481" y="1180" on="1"/>
        <pt x="501" y="1266" on="0"/>
        <pt x="602" y="1411" on="0"/>
        <pt x="750" y="1517" on="0"/>
        <pt x="936" y="1577" on="0"/>
        <pt x="1042" y="1577" on="1"/>
        <pt x="1136" y="1577" on="0"/>
        <pt x="1289" y="1518" on="0"/>
        <pt x="1398" y="1418" on="0"/>
        <pt x="1458" y="1286" on="0"/>
        <pt x="1458" y="1214" on="1"/>
        <pt x="1458" y="1148" on="0"/>
        <pt x="1424" y="1044" on="0"/>
        <pt x="1370" y="963" on="0"/>
        <pt x="1300" y="905" on="0"/>
        <pt x="1264" y="885" on="1"/>
        <pt x="1336" y="831" on="0"/>
        <pt x="1419" y="663" on="0"/>
        <pt x="1419" y="563" on="1"/>
        <pt x="1419" y="422" on="0"/>
        <pt x="1319" y="207" on="0"/>
        <pt x="1145" y="62" on="0"/>
        <pt x="911" y="-12" on="0"/>
        <pt x="778" y="-12" on="1"/>
        <pt x="758" y="-12" on="0"/>
        <pt x="701" y="-9" on="0"/>
        <pt x="682" y="-6" on="1"/>
        <pt x="750" y="283" on="1"/>
        <pt x="764" y="280" on="0"/>
        <pt x="800" y="276" on="0"/>
        <pt x="815" y="276" on="1"/>
        <pt x="865" y="276" on="0"/>
        <pt x="959" y="314" on="0"/>
        <pt x="1033" y="381" on="0"/>
        <pt x="1077" y="471" on="0"/>
        <pt x="1077" y="522" on="1"/>
        <pt x="1077" y="556" on="0"/>
        <pt x="1054" y="618" on="0"/>
        <pt x="1010" y="663" on="0"/>
        <pt x="949" y="690" on="0"/>
        <pt x="911" y="690" on="1"/>
        <pt x="844" y="690" on="1"/>
        <pt x="909" y="979" on="1"/>
        <pt x="983" y="979" on="1"/>
        <pt x="1018" y="979" on="0"/>
        <pt x="1079" y="1008" on="0"/>
        <pt x="1124" y="1057" on="0"/>
        <pt x="1149" y="1122" on="0"/>
        <pt x="1149" y="1157" on="1"/>
        <pt x="1149" y="1217" on="0"/>
        <pt x="1078" y="1298" on="0"/>
        <pt x="1010" y="1298" on="1"/>
        <pt x="974" y="1298" on="0"/>
        <pt x="910" y="1273" on="0"/>
        <pt x="858" y="1228" on="0"/>
        <pt x="820" y="1163" on="0"/>
        <pt x="811" y="1124" on="1"/>
        <pt x="551" y="0" on="1"/>
        <pt x="20" y="0" on="1"/>
      </contour>
    </TTGlyph>
    <TTGlyph name="grave" xMin="168" yMin="1178" xMax="690" yMax="1489">
      <contour>
        <pt x="461" y="1178" on="1"/>
        <pt x="168" y="1464" on="1"/>
        <pt x="168" y="1489" on="1"/>
        <pt x="494" y="1489" on="1"/>
        <pt x="690" y="1178" on="1"/>
      </contour>
    </TTGlyph>
    <TTGlyph name="greater" xMin="41" yMin="180" xMax="909" yMax="975">
      <contour>
        <pt x="854" y="451" on="1"/>
        <pt x="41" y="180" on="1"/>
        <pt x="109" y="467" on="1"/>
        <pt x="558" y="590" on="1"/>
        <pt x="166" y="721" on="1"/>
        <pt x="223" y="975" on="1"/>
        <pt x="909" y="690" on="1"/>
      </contour>
    </TTGlyph>
    <TTGlyph name="greaterequal" xMin="63" yMin="147" xMax="1014" yMax="1309">
      <contour>
        <pt x="958" y="784" on="1"/>
        <pt x="145" y="514" on="1"/>
        <pt x="213" y="801" on="1"/>
        <pt x="662" y="924" on="1"/>
        <pt x="270" y="1055" on="1"/>
        <pt x="328" y="1309" on="1"/>
        <pt x="1014" y="1024" on="1"/>
      </contour>
      <contour>
        <pt x="127" y="422" on="1"/>
        <pt x="872" y="422" on="1"/>
        <pt x="809" y="147" on="1"/>
        <pt x="63" y="147" on="1"/>
      </contour>
    </TTGlyph>
    <TTGlyph name="guillemotleft" xMin="123" yMin="156" xMax="1151" yMax="969">
      <contour>
        <pt x="796" y="545" on="1"/>
        <pt x="963" y="156" on="1"/>
        <pt x="739" y="156" on="1"/>
        <pt x="563" y="535" on="1"/>
        <pt x="582" y="608" on="1"/>
        <pt x="911" y="969" on="1"/>
        <pt x="1151" y="969" on="1"/>
      </contour>
      <contour>
        <pt x="356" y="545" on="1"/>
        <pt x="522" y="156" on="1"/>
        <pt x="299" y="156" on="1"/>
        <pt x="123" y="535" on="1"/>
        <pt x="141" y="608" on="1"/>
        <pt x="471" y="969" on="1"/>
        <pt x="711" y="969" on="1"/>
      </contour>
    </TTGlyph>
    <TTGlyph name="guillemotright" xMin="41" yMin="156" xMax="1069" yMax="969">
      <contour>
        <pt x="386" y="579" on="1"/>
        <pt x="229" y="969" on="1"/>
        <pt x="453" y="969" on="1"/>
        <pt x="629" y="590" on="1"/>
        <pt x="610" y="516" on="1"/>
        <pt x="281" y="156" on="1"/>
        <pt x="41" y="156" on="1"/>
      </contour>
      <contour>
        <pt x="826" y="579" on="1"/>
        <pt x="670" y="969" on="1"/>
        <pt x="893" y="969" on="1"/>
        <pt x="1069" y="590" on="1"/>
        <pt x="1051" y="516" on="1"/>
        <pt x="721" y="156" on="1"/>
        <pt x="481" y="156" on="1"/>
      </contour>
    </TTGlyph>
    <TTGlyph name="guilsinglleft" xMin="123" yMin="156" xMax="711" yMax="969">
      <contour>
        <pt x="376" y="545" on="1"/>
        <pt x="522" y="156" on="1"/>
        <pt x="299" y="156" on="1"/>
        <pt x="123" y="535" on="1"/>
        <pt x="141" y="608" on="1"/>
        <pt x="471" y="969" on="1"/>
        <pt x="711" y="969" on="1"/>
      </contour>
    </TTGlyph>
    <TTGlyph name="guilsinglright" xMin="41" yMin="156" xMax="629" yMax="969">
      <contour>
        <pt x="376" y="579" on="1"/>
        <pt x="229" y="969" on="1"/>
        <pt x="453" y="969" on="1"/>
        <pt x="629" y="590" on="1"/>
        <pt x="610" y="516" on="1"/>
        <pt x="281" y="156" on="1"/>
        <pt x="41" y="156" on="1"/>
      </contour>
    </TTGlyph>
    <TTGlyph name="h" xMin="94" yMin="0" xMax="1360" yMax="1556">
      <contour>
        <pt x="893" y="557" on="1"/>
        <pt x="901" y="595" on="0"/>
        <pt x="894" y="658" on="0"/>
        <pt x="869" y="703" on="0"/>
        <pt x="826" y="727" on="0"/>
        <pt x="799" y="727" on="1"/>
        <pt x="748" y="727" on="0"/>
        <pt x="673" y="688" on="1"/>
        <pt x="633" y="667" on="0"/>
        <pt x="590" y="635" on="1"/>
        <pt x="444" y="0" on="1"/>
        <pt x="94" y="0" on="1"/>
        <pt x="390" y="1282" on="1"/>
        <pt x="203" y="1282" on="1"/>
        <pt x="266" y="1556" on="1"/>
        <pt x="803" y="1556" on="1"/>
        <pt x="663" y="952" on="1"/>
        <pt x="664" y="953" on="1"/>
        <pt x="709" y="988" on="0"/>
        <pt x="805" y="1039" on="0"/>
        <pt x="907" y="1067" on="0"/>
        <pt x="961" y="1067" on="1"/>
        <pt x="1048" y="1067" on="0"/>
        <pt x="1179" y="1008" on="0"/>
        <pt x="1256" y="897" on="0"/>
        <pt x="1276" y="739" on="0"/>
        <pt x="1253" y="639" on="1"/>
        <pt x="1169" y="274" on="1"/>
        <pt x="1360" y="274" on="1"/>
        <pt x="1296" y="0" on="1"/>
        <pt x="764" y="0" on="1"/>
      </contour>
    </TTGlyph>
    <TTGlyph name="hungarumlaut" xMin="-4" yMin="1196" xMax="836" yMax="1516">
      <contour>
        <pt x="836" y="1516" on="1"/>
        <pt x="555" y="1196" on="1"/>
        <pt x="367" y="1196" on="1"/>
        <pt x="575" y="1516" on="1"/>
      </contour>
      <contour>
        <pt x="438" y="1516" on="1"/>
        <pt x="182" y="1196" on="1"/>
        <pt x="-4" y="1196" on="1"/>
        <pt x="180" y="1516" on="1"/>
      </contour>
    </TTGlyph>
    <TTGlyph name="hyphen" xMin="143" yMin="449" xMax="834" yMax="723">
      <contour>
        <pt x="143" y="449" on="1"/>
        <pt x="207" y="723" on="1"/>
        <pt x="834" y="723" on="1"/>
        <pt x="770" y="449" on="1"/>
      </contour>
    </TTGlyph>
    <TTGlyph name="i" xMin="143" yMin="0" xMax="788" yMax="1548">
      <contour>
        <pt x="207" y="1036" on="1"/>
        <pt x="739" y="1036" on="1"/>
        <pt x="563" y="274" on="1"/>
        <pt x="754" y="274" on="1"/>
        <pt x="690" y="0" on="1"/>
        <pt x="158" y="0" on="1"/>
        <pt x="334" y="762" on="1"/>
        <pt x="143" y="762" on="1"/>
      </contour>
      <contour>
        <pt x="434" y="1370" on="1"/>
        <pt x="434" y="1407" on="0"/>
        <pt x="461" y="1472" on="0"/>
        <pt x="509" y="1520" on="0"/>
        <pt x="574" y="1548" on="0"/>
        <pt x="612" y="1548" on="1"/>
        <pt x="648" y="1548" on="0"/>
        <pt x="712" y="1520" on="0"/>
        <pt x="760" y="1472" on="0"/>
        <pt x="788" y="1407" on="0"/>
        <pt x="788" y="1370" on="1"/>
        <pt x="788" y="1333" on="0"/>
        <pt x="760" y="1268" on="0"/>
        <pt x="712" y="1220" on="0"/>
        <pt x="648" y="1192" on="0"/>
        <pt x="612" y="1192" on="1"/>
        <pt x="574" y="1192" on="0"/>
        <pt x="509" y="1220" on="0"/>
        <pt x="461" y="1268" on="0"/>
        <pt x="434" y="1333" on="0"/>
      </contour>
    </TTGlyph>
    <TTGlyph name="iacute" xMin="78" yMin="0" xMax="5475" yMax="3409">
      <component glyphName="dotlessi" x="0" y="0" flags="0x204"/>
      <component glyphName="acute" x="329" y="0" flags="0x4"/>
    </TTGlyph>
    <TTGlyph name="icircumflex" xMin="78" yMin="0" xMax="833" yMax="1503">
      <component glyphName="dotlessi" x="0" y="0" flags="0x204"/>
      <component glyphName="circumflex.i" x="-30" y="0" flags="0x4"/>
    </TTGlyph>
    <TTGlyph name="idieresis" xMin="78" yMin="0" xMax="1134" yMax="1980">
      <component glyphName="dotlessi" x="0" y="0" flags="0x204"/>
      <component glyphName="dieresis.i" x="16" y="-1" flags="0x4"/>
    </TTGlyph>
    <TTGlyph name="igrave" xMin="78" yMin="0" xMax="2424" yMax="2929">
      <component glyphName="dotlessi" x="0" y="0" flags="0x204"/>
      <component glyphName="grave" x="-25" y="0" flags="0x4"/>
    </TTGlyph>
    <TTGlyph name="imacron" xMin="78" yMin="0" xMax="3085" yMax="2831">
      <component glyphName="dotlessi" x="0" y="0" flags="0x204"/>
      <component glyphName="macron" x="102" y="0" flags="0x4"/>
    </TTGlyph>
    <TTGlyph name="infinity" xMin="82" yMin="352" xMax="1681" yMax="1239">
      <contour>
        <pt x="430" y="352" on="1"/>
        <pt x="350" y="352" on="0"/>
        <pt x="223" y="406" on="0"/>
        <pt x="131" y="502" on="0"/>
        <pt x="82" y="631" on="0"/>
        <pt x="82" y="707" on="1"/>
        <pt x="82" y="813" on="0"/>
        <pt x="174" y="1006" on="0"/>
        <pt x="328" y="1153" on="0"/>
        <pt x="528" y="1239" on="0"/>
        <pt x="635" y="1239" on="1"/>
        <pt x="756" y="1239" on="0"/>
        <pt x="895" y="1120" on="0"/>
        <pt x="938" y="1024" on="1"/>
        <pt x="1034" y="1122" on="0"/>
        <pt x="1237" y="1239" on="0"/>
        <pt x="1352" y="1239" on="1"/>
        <pt x="1427" y="1239" on="0"/>
        <pt x="1548" y="1182" on="0"/>
        <pt x="1634" y="1083" on="0"/>
        <pt x="1681" y="952" on="0"/>
        <pt x="1681" y="879" on="1"/>
        <pt x="1681" y="774" on="0"/>
        <pt x="1589" y="584" on="0"/>
        <pt x="1440" y="438" on="0"/>
        <pt x="1247" y="352" on="0"/>
        <pt x="1147" y="352" on="1"/>
        <pt x="1022" y="352" on="0"/>
        <pt x="874" y="467" on="0"/>
        <pt x="827" y="567" on="1"/>
        <pt x="737" y="469" on="0"/>
        <pt x="547" y="352" on="0"/>
        <pt x="430" y="352" on="1"/>
      </contour>
      <contour>
        <pt x="1266" y="969" on="1"/>
        <pt x="1188" y="969" on="0"/>
        <pt x="1069" y="881" on="0"/>
        <pt x="1014" y="803" on="1"/>
        <pt x="1014" y="799" on="0"/>
        <pt x="1014" y="797" on="0"/>
        <pt x="1016" y="795" on="1"/>
        <pt x="1038" y="702" on="0"/>
        <pt x="1118" y="623" on="0"/>
        <pt x="1186" y="623" on="1"/>
        <pt x="1225" y="623" on="0"/>
        <pt x="1303" y="655" on="0"/>
        <pt x="1364" y="711" on="0"/>
        <pt x="1403" y="786" on="0"/>
        <pt x="1403" y="827" on="1"/>
        <pt x="1403" y="887" on="0"/>
        <pt x="1325" y="969" on="0"/>
        <pt x="1266" y="969" on="1"/>
      </contour>
      <contour>
        <pt x="496" y="623" on="1"/>
        <pt x="565" y="623" on="0"/>
        <pt x="682" y="705" on="0"/>
        <pt x="748" y="795" on="1"/>
        <pt x="750" y="797" on="0"/>
        <pt x="752" y="799" on="0"/>
        <pt x="754" y="803" on="1"/>
        <pt x="745" y="834" on="0"/>
        <pt x="713" y="895" on="0"/>
        <pt x="666" y="940" on="0"/>
        <pt x="608" y="969" on="0"/>
        <pt x="575" y="969" on="1"/>
        <pt x="535" y="969" on="0"/>
        <pt x="457" y="936" on="0"/>
        <pt x="397" y="879" on="0"/>
        <pt x="362" y="803" on="0"/>
        <pt x="362" y="762" on="1"/>
        <pt x="362" y="702" on="0"/>
        <pt x="434" y="623" on="0"/>
        <pt x="496" y="623" on="1"/>
      </contour>
    </TTGlyph>
    <TTGlyph name="integral" xMin="-217" yMin="-471" xMax="1247" yMax="1579">
      <contour>
        <pt x="57" y="-471" on="1"/>
        <pt x="-59" y="-471" on="0"/>
        <pt x="-201" y="-406" on="0"/>
        <pt x="-217" y="-377" on="1"/>
        <pt x="-33" y="-145" on="1"/>
        <pt x="-16" y="-162" on="0"/>
        <pt x="25" y="-180" on="0"/>
        <pt x="63" y="-180" on="1"/>
        <pt x="86" y="-180" on="0"/>
        <pt x="129" y="-166" on="0"/>
        <pt x="166" y="-135" on="0"/>
        <pt x="195" y="-90" on="0"/>
        <pt x="201" y="-61" on="1"/>
        <pt x="502" y="1206" on="1"/>
        <pt x="524" y="1305" on="0"/>
        <pt x="612" y="1444" on="0"/>
        <pt x="735" y="1536" on="0"/>
        <pt x="887" y="1579" on="0"/>
        <pt x="973" y="1579" on="1"/>
        <pt x="1090" y="1579" on="0"/>
        <pt x="1231" y="1513" on="0"/>
        <pt x="1247" y="1485" on="1"/>
        <pt x="1063" y="1253" on="1"/>
        <pt x="1047" y="1270" on="0"/>
        <pt x="1006" y="1288" on="0"/>
        <pt x="967" y="1288" on="1"/>
        <pt x="922" y="1288" on="0"/>
        <pt x="844" y="1229" on="0"/>
        <pt x="829" y="1169" on="1"/>
        <pt x="528" y="-98" on="1"/>
        <pt x="506" y="-197" on="0"/>
        <pt x="416" y="-336" on="0"/>
        <pt x="293" y="-428" on="0"/>
        <pt x="141" y="-471" on="0"/>
        <pt x="57" y="-471" on="1"/>
      </contour>
    </TTGlyph>
    <TTGlyph name="iogonek" xMin="-33" yMin="-473" xMax="788" yMax="1548">
      <contour>
        <pt x="207" y="1036" on="1"/>
        <pt x="739" y="1036" on="1"/>
        <pt x="563" y="274" on="1"/>
        <pt x="754" y="274" on="1"/>
        <pt x="690" y="0" on="1"/>
        <pt x="555" y="0" on="1"/>
        <pt x="498" y="-2" on="0"/>
        <pt x="375" y="-39" on="0"/>
        <pt x="270" y="-100" on="0"/>
        <pt x="203" y="-178" on="0"/>
        <pt x="203" y="-217" on="1"/>
        <pt x="203" y="-256" on="0"/>
        <pt x="258" y="-285" on="0"/>
        <pt x="281" y="-285" on="1"/>
        <pt x="319" y="-285" on="0"/>
        <pt x="367" y="-272" on="0"/>
        <pt x="387" y="-262" on="1"/>
        <pt x="436" y="-432" on="1"/>
        <pt x="414" y="-444" on="0"/>
        <pt x="311" y="-473" on="0"/>
        <pt x="258" y="-473" on="1"/>
        <pt x="197" y="-473" on="0"/>
        <pt x="92" y="-444" on="0"/>
        <pt x="12" y="-391" on="0"/>
        <pt x="-33" y="-313" on="0"/>
        <pt x="-33" y="-262" on="1"/>
        <pt x="-33" y="-182" on="0"/>
        <pt x="76" y="-47" on="0"/>
        <pt x="158" y="0" on="1"/>
        <pt x="334" y="762" on="1"/>
        <pt x="143" y="762" on="1"/>
      </contour>
      <contour>
        <pt x="434" y="1370" on="1"/>
        <pt x="434" y="1444" on="0"/>
        <pt x="537" y="1548" on="0"/>
        <pt x="612" y="1548" on="1"/>
        <pt x="649" y="1548" on="0"/>
        <pt x="713" y="1520" on="0"/>
        <pt x="760" y="1473" on="0"/>
        <pt x="788" y="1407" on="0"/>
        <pt x="788" y="1370" on="1"/>
        <pt x="788" y="1333" on="0"/>
        <pt x="760" y="1268" on="0"/>
        <pt x="713" y="1221" on="0"/>
        <pt x="649" y="1192" on="0"/>
        <pt x="612" y="1192" on="1"/>
        <pt x="537" y="1192" on="0"/>
        <pt x="434" y="1296" on="0"/>
        <pt x="434" y="1370" on="1"/>
      </contour>
    </TTGlyph>
    <TTGlyph name="j" xMin="-72" yMin="-469" xMax="768" yMax="1548">
      <contour>
        <pt x="176" y="1036" on="1"/>
        <pt x="745" y="1036" on="1"/>
        <pt x="506" y="-2" on="1"/>
        <pt x="477" y="-128" on="0"/>
        <pt x="375" y="-305" on="0"/>
        <pt x="230" y="-418" on="0"/>
        <pt x="42" y="-469" on="0"/>
        <pt x="-72" y="-469" on="1"/>
        <pt x="-33" y="-205" on="1"/>
        <pt x="0" y="-205" on="0"/>
        <pt x="62" y="-183" on="0"/>
        <pt x="114" y="-139" on="0"/>
        <pt x="153" y="-75" on="0"/>
        <pt x="162" y="-33" on="1"/>
        <pt x="346" y="762" on="1"/>
        <pt x="113" y="762" on="1"/>
      </contour>
      <contour>
        <pt x="414" y="1370" on="1"/>
        <pt x="414" y="1407" on="0"/>
        <pt x="441" y="1472" on="0"/>
        <pt x="489" y="1520" on="0"/>
        <pt x="554" y="1548" on="0"/>
        <pt x="592" y="1548" on="1"/>
        <pt x="628" y="1548" on="0"/>
        <pt x="692" y="1520" on="0"/>
        <pt x="740" y="1472" on="0"/>
        <pt x="768" y="1407" on="0"/>
        <pt x="768" y="1370" on="1"/>
        <pt x="768" y="1333" on="0"/>
        <pt x="740" y="1268" on="0"/>
        <pt x="692" y="1220" on="0"/>
        <pt x="628" y="1192" on="0"/>
        <pt x="592" y="1192" on="1"/>
        <pt x="554" y="1192" on="0"/>
        <pt x="489" y="1220" on="0"/>
        <pt x="441" y="1268" on="0"/>
        <pt x="414" y="1333" on="0"/>
      </contour>
    </TTGlyph>
    <TTGlyph name="k" xMin="102" yMin="0" xMax="1372" yMax="1556">
      <contour>
        <pt x="262" y="1556" on="1"/>
        <pt x="801" y="1556" on="1"/>
        <pt x="599" y="682" on="1"/>
        <pt x="713" y="682" on="1"/>
        <pt x="872" y="851" on="1"/>
        <pt x="915" y="1036" on="1"/>
        <pt x="1372" y="1036" on="1"/>
        <pt x="1309" y="762" on="1"/>
        <pt x="1169" y="762" on="1"/>
        <pt x="934" y="539" on="1"/>
        <pt x="1069" y="274" on="1"/>
        <pt x="1225" y="274" on="1"/>
        <pt x="1161" y="0" on="1"/>
        <pt x="860" y="0" on="1"/>
        <pt x="664" y="406" on="1"/>
        <pt x="535" y="406" on="1"/>
        <pt x="442" y="0" on="1"/>
        <pt x="102" y="0" on="1"/>
        <pt x="398" y="1282" on="1"/>
        <pt x="199" y="1282" on="1"/>
      </contour>
    </TTGlyph>
    <TTGlyph name="kcommaaccent" xMin="102" yMin="-471" xMax="2063" yMax="1556">
      <component glyphName="k" x="0" y="0" flags="0x204"/>
      <component glyphName="commabelow" x="429" y="0" flags="0x4"/>
    </TTGlyph>
    <TTGlyph name="l" xMin="102" yMin="0" xMax="801" yMax="1556">
      <contour>
        <pt x="262" y="1556" on="1"/>
        <pt x="801" y="1556" on="1"/>
        <pt x="505" y="274" on="1"/>
        <pt x="694" y="274" on="1"/>
        <pt x="631" y="0" on="1"/>
        <pt x="102" y="0" on="1"/>
        <pt x="398" y="1282" on="1"/>
        <pt x="199" y="1282" on="1"/>
      </contour>
    </TTGlyph>
    <TTGlyph name="lacute" xMin="102" yMin="0" xMax="6390" yMax="4277">
      <component glyphName="l" x="0" y="0" flags="0x204"/>
      <component glyphName="acute" x="438" y="471" flags="0x4"/>
    </TTGlyph>
    <TTGlyph name="lcaron" xMin="102" yMin="0" xMax="3386" yMax="1556">
      <component glyphName="l" x="0" y="0" flags="0x4"/>
      <component glyphName="quotesingle" x="601" y="0" flags="0x4"/>
    </TTGlyph>
    <TTGlyph name="lcommaaccent" xMin="102" yMin="-471" xMax="2633" yMax="1556">
      <component glyphName="l" x="0" y="0" flags="0x204"/>
      <component glyphName="commabelow" x="138" y="0" flags="0x4"/>
    </TTGlyph>
    <TTGlyph name="less" xMin="102" yMin="180" xMax="971" yMax="975">
      <contour>
        <pt x="158" y="705" on="1"/>
        <pt x="971" y="975" on="1"/>
        <pt x="903" y="688" on="1"/>
        <pt x="453" y="564" on="1"/>
        <pt x="846" y="434" on="1"/>
        <pt x="788" y="180" on="1"/>
        <pt x="102" y="465" on="1"/>
      </contour>
    </TTGlyph>
    <TTGlyph name="lessequal" xMin="14" yMin="147" xMax="1032" yMax="1307">
      <contour>
        <pt x="219" y="1036" on="1"/>
        <pt x="1032" y="1307" on="1"/>
        <pt x="965" y="1020" on="1"/>
        <pt x="514" y="895" on="1"/>
        <pt x="907" y="766" on="1"/>
        <pt x="850" y="512" on="1"/>
        <pt x="164" y="797" on="1"/>
      </contour>
      <contour>
        <pt x="78" y="422" on="1"/>
        <pt x="823" y="422" on="1"/>
        <pt x="760" y="147" on="1"/>
        <pt x="14" y="147" on="1"/>
      </contour>
    </TTGlyph>
    <TTGlyph name="logicalnot" xMin="242" yMin="248" xMax="1780" yMax="1036">
      <contour>
        <pt x="1780" y="1036" on="1"/>
        <pt x="1597" y="248" on="1"/>
        <pt x="1311" y="248" on="1"/>
        <pt x="1430" y="762" on="1"/>
        <pt x="242" y="762" on="1"/>
        <pt x="305" y="1036" on="1"/>
      </contour>
    </TTGlyph>
    <TTGlyph name="lozenge" xMin="246" yMin="0" xMax="1397" yMax="1518">
      <contour>
        <pt x="246" y="807" on="1"/>
        <pt x="831" y="1518" on="1"/>
        <pt x="1100" y="1518" on="1"/>
        <pt x="1397" y="739" on="1"/>
        <pt x="784" y="0" on="1"/>
        <pt x="524" y="0" on="1"/>
      </contour>
      <contour>
        <pt x="721" y="406" on="1"/>
        <pt x="1026" y="764" on="1"/>
        <pt x="883" y="1108" on="1"/>
        <pt x="608" y="764" on="1"/>
      </contour>
    </TTGlyph>
    <TTGlyph name="lslash" xMin="-59" yMin="0" xMax="999" yMax="1556">
      <contour>
        <pt x="262" y="1556" on="1"/>
        <pt x="801" y="1556" on="1"/>
        <pt x="686" y="1061" on="1"/>
        <pt x="999" y="1208" on="1"/>
        <pt x="922" y="858" on="1"/>
        <pt x="606" y="709" on="1"/>
        <pt x="506" y="274" on="1"/>
        <pt x="694" y="274" on="1"/>
        <pt x="631" y="0" on="1"/>
        <pt x="102" y="0" on="1"/>
        <pt x="223" y="528" on="1"/>
        <pt x="-59" y="395" on="1"/>
        <pt x="18" y="745" on="1"/>
        <pt x="305" y="881" on="1"/>
        <pt x="397" y="1282" on="1"/>
        <pt x="199" y="1282" on="1"/>
      </contour>
    </TTGlyph>
    <TTGlyph name="m" xMin="139" yMin="0" xMax="2073" yMax="1061">
      <contour>
        <pt x="207" y="1036" on="1"/>
        <pt x="725" y="1036" on="1"/>
        <pt x="706" y="943" on="1"/>
        <pt x="762" y="986" on="0"/>
        <pt x="858" y="1034" on="0"/>
        <pt x="960" y="1061" on="0"/>
        <pt x="1014" y="1061" on="1"/>
        <pt x="1146" y="1061" on="0"/>
        <pt x="1227" y="995" on="1"/>
        <pt x="1280" y="952" on="0"/>
        <pt x="1304" y="887" on="1"/>
        <pt x="1382" y="963" on="0"/>
        <pt x="1471" y="1010" on="1"/>
        <pt x="1567" y="1061" on="0"/>
        <pt x="1675" y="1061" on="1"/>
        <pt x="1762" y="1061" on="0"/>
        <pt x="1893" y="1003" on="0"/>
        <pt x="1971" y="895" on="0"/>
        <pt x="1991" y="738" on="0"/>
        <pt x="1968" y="639" on="1"/>
        <pt x="1884" y="274" on="1"/>
        <pt x="2073" y="274" on="1"/>
        <pt x="2009" y="0" on="1"/>
        <pt x="1479" y="0" on="1"/>
        <pt x="1608" y="557" on="1"/>
        <pt x="1616" y="595" on="0"/>
        <pt x="1609" y="658" on="0"/>
        <pt x="1584" y="703" on="0"/>
        <pt x="1541" y="727" on="0"/>
        <pt x="1513" y="727" on="1"/>
        <pt x="1462" y="727" on="0"/>
        <pt x="1387" y="688" on="1"/>
        <pt x="1349" y="668" on="0"/>
        <pt x="1306" y="636" on="1"/>
        <pt x="1159" y="0" on="1"/>
        <pt x="809" y="0" on="1"/>
        <pt x="938" y="557" on="1"/>
        <pt x="947" y="595" on="0"/>
        <pt x="940" y="658" on="0"/>
        <pt x="915" y="703" on="0"/>
        <pt x="872" y="727" on="0"/>
        <pt x="844" y="727" on="1"/>
        <pt x="793" y="727" on="0"/>
        <pt x="718" y="688" on="1"/>
        <pt x="679" y="668" on="0"/>
        <pt x="636" y="636" on="1"/>
        <pt x="489" y="0" on="1"/>
        <pt x="139" y="0" on="1"/>
        <pt x="315" y="762" on="1"/>
        <pt x="143" y="762" on="1"/>
      </contour>
    </TTGlyph>
    <TTGlyph name="macron" xMin="62" yMin="1176" xMax="793" yMax="1391">
      <contour>
        <pt x="750" y="1176" on="1"/>
        <pt x="62" y="1176" on="1"/>
        <pt x="105" y="1391" on="1"/>
        <pt x="793" y="1391" on="1"/>
      </contour>
    </TTGlyph>
    <TTGlyph name="macron#1" xMin="62" yMin="1176" xMax="793" yMax="1391">
      <component glyphName="macron" x="0" y="0" flags="0x4"/>
    </TTGlyph>
    <TTGlyph name="minus" xMin="61" yMin="489" xMax="1100" yMax="764">
      <contour>
        <pt x="61" y="489" on="1"/>
        <pt x="125" y="764" on="1"/>
        <pt x="1100" y="764" on="1"/>
        <pt x="1036" y="489" on="1"/>
      </contour>
    </TTGlyph>
    <TTGlyph name="mu" xMin="0" yMin="-471" xMax="1329" yMax="1036">
      <contour>
        <pt x="0" y="-471" on="1"/>
        <pt x="348" y="1036" on="1"/>
        <pt x="668" y="1036" on="1"/>
        <pt x="528" y="435" on="1"/>
        <pt x="522" y="395" on="0"/>
        <pt x="537" y="332" on="0"/>
        <pt x="575" y="288" on="0"/>
        <pt x="634" y="264" on="0"/>
        <pt x="672" y="264" on="1"/>
        <pt x="696" y="264" on="0"/>
        <pt x="745" y="277" on="0"/>
        <pt x="791" y="301" on="0"/>
        <pt x="834" y="334" on="0"/>
        <pt x="852" y="355" on="1"/>
        <pt x="1010" y="1036" on="1"/>
        <pt x="1329" y="1036" on="1"/>
        <pt x="1153" y="274" on="1"/>
        <pt x="1315" y="274" on="1"/>
        <pt x="1251" y="0" on="1"/>
        <pt x="780" y="0" on="1"/>
        <pt x="799" y="81" on="1"/>
        <pt x="772" y="59" on="0"/>
        <pt x="713" y="24" on="0"/>
        <pt x="646" y="0" on="0"/>
        <pt x="571" y="-12" on="0"/>
        <pt x="528" y="-12" on="1"/>
        <pt x="502" y="-12" on="0"/>
        <pt x="451" y="-6" on="0"/>
        <pt x="427" y="-1" on="1"/>
        <pt x="319" y="-471" on="1"/>
      </contour>
    </TTGlyph>
    <TTGlyph name="multiply" xMin="31" yMin="88" xMax="1323" yMax="1262">
      <contour>
        <pt x="466" y="680" on="1"/>
        <pt x="207" y="1057" on="1"/>
        <pt x="461" y="1249" on="1"/>
        <pt x="708" y="890" on="1"/>
        <pt x="1135" y="1262" on="1"/>
        <pt x="1323" y="1047" on="1"/>
        <pt x="870" y="654" on="1"/>
        <pt x="1122" y="289" on="1"/>
        <pt x="868" y="98" on="1"/>
        <pt x="629" y="444" on="1"/>
        <pt x="219" y="88" on="1"/>
        <pt x="31" y="301" on="1"/>
      </contour>
    </TTGlyph>
    <TTGlyph name="n" xMin="143" yMin="0" xMax="1411" yMax="1061">
      <contour>
        <pt x="207" y="1036" on="1"/>
        <pt x="733" y="1036" on="1"/>
        <pt x="718" y="962" on="1"/>
        <pt x="717" y="952" on="1"/>
        <pt x="762" y="986" on="0"/>
        <pt x="858" y="1034" on="0"/>
        <pt x="960" y="1061" on="0"/>
        <pt x="1014" y="1061" on="1"/>
        <pt x="1101" y="1061" on="0"/>
        <pt x="1231" y="1003" on="0"/>
        <pt x="1309" y="895" on="0"/>
        <pt x="1330" y="738" on="0"/>
        <pt x="1307" y="639" on="1"/>
        <pt x="1222" y="274" on="1"/>
        <pt x="1411" y="274" on="1"/>
        <pt x="1348" y="0" on="1"/>
        <pt x="817" y="0" on="1"/>
        <pt x="946" y="557" on="1"/>
        <pt x="955" y="595" on="0"/>
        <pt x="948" y="658" on="0"/>
        <pt x="923" y="703" on="0"/>
        <pt x="880" y="727" on="0"/>
        <pt x="852" y="727" on="1"/>
        <pt x="801" y="727" on="0"/>
        <pt x="726" y="688" on="1"/>
        <pt x="687" y="668" on="0"/>
        <pt x="645" y="636" on="1"/>
        <pt x="498" y="0" on="1"/>
        <pt x="147" y="0" on="1"/>
        <pt x="323" y="762" on="1"/>
        <pt x="143" y="762" on="1"/>
      </contour>
    </TTGlyph>
    <TTGlyph name="nacute" xMin="143" yMin="0" xMax="8091" yMax="4757">
      <component glyphName="n" x="0" y="0" flags="0x204"/>
      <component glyphName="acute" x="741" y="0" flags="0x4"/>
    </TTGlyph>
    <TTGlyph name="napostrophe" xMin="143" yMin="0" xMax="1411" yMax="1493">
      <component glyphName="n" x="0" y="0" flags="0x204"/>
      <component glyphName="apostrophe" x="513" y="0" flags="0x4"/>
    </TTGlyph>
    <TTGlyph name="ncaron" xMin="143" yMin="0" xMax="3919" yMax="3340">
      <component glyphName="n" x="0" y="0" flags="0x204"/>
      <component glyphName="caron" x="330" y="0" flags="0x4"/>
    </TTGlyph>
    <TTGlyph name="ncommaaccent" xMin="143" yMin="-471" xMax="3606" yMax="1061">
      <component glyphName="n" x="0" y="0" flags="0x204"/>
      <component glyphName="commabelow" x="391" y="0" flags="0x4"/>
    </TTGlyph>
</ttFont>
